<?xml version="1.0" encoding="utf-8"?>
<!-- Generator: Adobe Illustrator 26.0.1, SVG Export Plug-In . SVG Version: 6.00 Build 0)  -->
<svg version="1.1" id="Layer_1" xmlns="http://www.w3.org/2000/svg" xmlns:xlink="http://www.w3.org/1999/xlink" x="0px" y="0px"
	 viewBox="0 0 28.33 64.52" style="enable-background:new 0 0 28.33 64.52;" xml:space="preserve">
<style type="text/css">
	.st0{fill:#FFFFFF;enable-background:new    ;}
	.st1{fill:#FFD67A;}
	.st2{fill:#BB8409;}
	.st3{fill:#FBB823;}
	.st4{clip-path:url(#SVGID_00000075862778496385980470000017132484952983987634_);}
	.st5{fill:#252525;}
	.st6{clip-path:url(#SVGID_00000127039857241279268320000001572789815610434224_);}
	.st7{fill:#2E2B25;}
	.st8{clip-path:url(#SVGID_00000049914525943328988590000003078440223675515832_);}
	.st9{fill:#3D3525;}
	.st10{clip-path:url(#SVGID_00000103247792099553896280000006715699051478891943_);}
	.st11{fill:#795E24;}
	.st12{clip-path:url(#SVGID_00000045606081332322719650000008081458480609330354_);}
	.st13{fill:#937024;}
	.st14{opacity:0.41;}
	.st15{fill:#762702;}
	.st16{fill:#782902;}
	.st17{fill:#742502;}
	.st18{fill:#806903;}
	.st19{fill:#7F5F03;}
	.st20{fill:#052822;}
	.st21{fill:#041F1D;}
	.st22{fill:#060A0B;}
	.st23{fill:#7D5903;}
	.st24{fill:#05090B;}
	.st25{fill:#030607;}
	.st26{fill:#041C1B;}
	.st27{fill:#806603;}
	.st28{fill:#054535;}
	.st29{fill:#600B03;}
	.st30{fill:#4C0A02;}
	.st31{fill:#064D3E;}
	.st32{fill:#064B3C;}
	.st33{fill:#054335;}
	.st34{fill:#5D0A03;}
	.st35{fill:#043E2E;}
	.st36{fill:#040607;}
	.st37{fill:#050A0B;}
	.st38{fill:#0B1113;}
	.st39{fill:#0D171B;}
	.st40{fill:#0D1519;}
	.st41{fill:#091113;}
	.st42{fill:#06503F;}
	.st43{fill:#054838;}
	.st44{fill:#054A3A;}
	.st45{fill:#043F30;}
	.st46{fill:#053F2F;}
	.st47{fill:#043C2D;}
	.st48{fill:#043D2E;}
	.st49{fill:#043F2E;}
	.st50{fill:#054C3B;}
	.st51{fill:#043D2D;}
	.st52{fill:#055242;}
	.st53{fill:#0D181D;}
	.st54{fill:#060B0D;}
	.st55{fill:#0B1419;}
	.st56{fill:#0B161B;}
	.st57{fill:#6F2402;}
	.st58{fill:#054233;}
	.st59{fill:#054334;}
	.st60{fill:#054C3E;}
	.st61{fill:#054033;}
	.st62{fill:#054030;}
	.st63{fill:#054333;}
	.st64{fill:#0A1216;}
	.st65{fill:#070E11;}
	.st66{fill:#070D10;}
	.st67{fill:#081013;}
	.st68{fill:#570803;}
	.st69{fill:#052321;}
	.st70{fill:#04221E;}
	.st71{fill:#052826;}
	.st72{fill:#670B03;}
	.st73{fill:#091115;}
	.st74{fill:#0C1519;}
	.st75{fill:#053A2D;}
	.st76{fill:#06493B;}
	.st77{fill:#722202;}
	.st78{fill:#054837;}
	.st79{fill:#053A2C;}
	.st80{fill:#054638;}
	.st81{fill:#044031;}
	.st82{fill:#560803;}
	.st83{fill:#480702;}
	.st84{fill:#064E3E;}
	.st85{fill:#762C01;}
	.st86{fill:#6D0B04;}
	.st87{fill:#772A02;}
	.st88{fill:#640804;}
	.st89{fill:#690904;}
	.st90{fill:#600804;}
	.st91{fill:#712501;}
	.st92{fill:#772C02;}
	.st93{fill:#712701;}
	.st94{fill:#762402;}
	.st95{fill:#053A2F;}
	.st96{fill:#053529;}
	.st97{fill:#043028;}
	.st98{fill:#05090A;}
	.st99{fill:#064336;}
	.st100{fill:#0B1315;}
	.st101{fill:#043026;}
	.st102{fill:#073629;}
	.st103{fill:#07412F;}
	.st104{fill:#010202;}
	.st105{fill:#051A12;}
	.st106{fill:#042623;}
	.st107{fill:#05342D;}
	.st108{fill:#042722;}
	.st109{fill:#052E28;}
	.st110{fill:#07312C;}
	.st111{fill:#04312A;}
	.st112{fill:#03201E;}
	.st113{fill:#06372F;}
	.st114{fill:#062A28;}
	.st115{fill:#031917;}
	.st116{fill:#040809;}
	.st117{fill:#090F13;}
	.st118{fill:#091013;}
	.st119{fill:#060C0E;}
	.st120{fill:#5D0703;}
	.st121{fill:#052825;}
	.st122{fill:#053F30;}
	.st123{fill:#043E2F;}
	.st124{fill:#054939;}
	.st125{fill:#043B2C;}
	.st126{fill:#054031;}
	.st127{fill:#05493A;}
	.st128{fill:#044030;}
	.st129{fill:#065242;}
	.st130{fill:#043A2C;}
	.st131{fill:#043F2F;}
	.st132{fill:#064C3A;}
	.st133{fill:#5E4801;}
	.st134{fill:#554201;}
	.st135{fill:#054435;}
	.st136{fill:#05402E;}
	.st137{fill:#064332;}
	.st138{fill:#042120;}
	.st139{fill:#04211E;}
	.st140{fill:#052422;}
	.st141{fill:#07322B;}
	.st142{fill:#031F1D;}
	.st143{fill:#052D27;}
	.st144{fill:#042621;}
	.st145{fill:#05322A;}
	.st146{fill:#05322B;}
	.st147{fill:#04362A;}
	.st148{fill:#053930;}
	.st149{fill:#053F32;}
	.st150{fill:#054537;}
	.st151{fill:#053F34;}
	.st152{fill:#042D26;}
	.st153{fill:#053E34;}
	.st154{fill:#053C30;}
	.st155{fill:#04201E;}
	.st156{fill:#031918;}
	.st157{fill:#062B26;}
	.st158{fill:#054639;}
	.st159{fill:#054336;}
	.st160{fill:#04392B;}
	.st161{fill:#020404;}
	.st162{fill:#06241A;}
	.st163{fill:#061E14;}
	.st164{fill:#05342B;}
	.st165{fill:#032921;}
	.st166{fill:#054134;}
	.st167{fill:#042B24;}
	.st168{fill:#05362D;}
	.st169{fill:#052E27;}
	.st170{fill:#052E22;}
	.st171{fill:#04362B;}
	.st172{fill:#054034;}
	.st173{fill:#053F33;}
	.st174{fill:#043328;}
	.st175{fill:#053029;}
	.st176{fill:#042822;}
	.st177{fill:#05372F;}
	.st178{fill:#042420;}
	.st179{fill:#172227;}
	.st180{fill:#030506;}
	.st181{fill:#070C0E;}
	.st182{fill:#0D191E;}
	.st183{fill:#0A1115;}
	.st184{fill:#054636;}
	.st185{fill:#044232;}
	.st186{fill:#054839;}
	.st187{fill:#044132;}
	.st188{fill:#055040;}
	.st189{fill:#4B0703;}
	.st190{fill:#05131B;}
	.st191{fill:#0D1317;}
	.st192{fill:#732902;}
	.st193{fill:#054B3B;}
	.st194{fill:#672703;}
	.st195{fill:#651E02;}
	.st196{fill:#054C3C;}
	.st197{fill:#043D2F;}
	.st198{fill:#064E3F;}
	.st199{fill:#054B3A;}
	.st200{fill:#065444;}
	.st201{fill:#054D3E;}
	.st202{fill:#043A2A;}
	.st203{fill:#690A03;}
	.st204{fill:#650804;}
	.st205{fill:#610804;}
	.st206{fill:#054434;}
	.st207{fill:#054232;}
	.st208{fill:#055343;}
	.st209{fill:#054F3E;}
	.st210{fill:#044536;}
	.st211{fill:#710C04;}
	.st212{fill:#755D02;}
	.st213{fill:#0C161B;}
	.st214{fill:#0D171C;}
	.st215{fill:#05151A;}
	.st216{fill:#070F12;}
	.st217{fill:#470503;}
	.st218{fill:#0E1A1F;}
	.st219{fill:#0C171C;}
	.st220{fill:#070C0F;}
	.st221{fill:#490802;}
	.st222{fill:#062217;}
	.st223{fill:#4C0902;}
	.st224{fill:#0B1216;}
	.st225{fill:#111E17;}
	.st226{fill:#0F1B21;}
	.st227{fill:#065140;}
	.st228{fill:#7C6303;}
	.st229{fill:#520903;}
	.st230{fill:#654C02;}
	.st231{fill:#064C3C;}
	.st232{fill:#054132;}
	.st233{fill:#043C2C;}
	.st234{fill:#806003;}
	.st235{fill:#7D5703;}
	.st236{fill:#7C5A03;}
	.st237{fill:#806103;}
	.st238{fill:#806304;}
	.st239{fill:#7D6202;}
	.st240{fill:#7A5902;}
	.st241{fill:#7E5D03;}
	.st242{fill:#054534;}
	.st243{fill:#053D2E;}
	.st244{fill:#063C29;}
	.st245{fill:#044233;}
	.st246{fill:#5B0903;}
	.st247{fill:#530A02;}
	.st248{fill:#4C0703;}
	.st249{fill:#7B0C05;}
	.st250{fill:#0B171B;}
	.st251{fill:#0A1419;}
	.st252{fill:#052D26;}
	.st253{fill:#063A32;}
	.st254{fill:#06332C;}
	.st255{fill:#043229;}
	.st256{fill:#053A31;}
	.st257{fill:#065442;}
	.st258{fill:#052522;}
	.st259{fill:#062D27;}
	.st260{fill:#670C05;}
	.st261{fill:#042F26;}
	.st262{fill:#053E35;}
	.st263{fill:#054738;}
	.st264{fill:#785602;}
	.st265{fill:#071C19;}
	.st266{fill:#772E01;}
	.st267{fill:#820D06;}
	.st268{fill:#770C05;}
	.st269{fill:#7D0C05;}
	.st270{fill:#730B04;}
	.st271{fill:#732901;}
	.st272{fill:#702701;}
	.st273{fill:#042B23;}
	.st274{fill:#064338;}
	.st275{fill:#0D161B;}
	.st276{fill:#052B25;}
	.st277{fill:#05302A;}
	.st278{fill:#052322;}
	.st279{fill:#043029;}
	.st280{fill:#042C25;}
	.st281{fill:#032821;}
	.st282{fill:#05352D;}
	.st283{fill:#080F12;}
	.st284{fill:#091316;}
	.st285{fill:#05332A;}
	.st286{fill:#0A1317;}
	.st287{fill:#060C0F;}
	.st288{fill:#070E10;}
	.st289{fill:#042E26;}
	.st290{fill:#05372E;}
	.st291{fill:#053C31;}
	.st292{fill:#042821;}
	.st293{fill:#480503;}
	.st294{fill:#0C161A;}
	.st295{fill:#041D1D;}
	.st296{fill:#041A19;}
	.st297{fill:#054234;}
	.st298{fill:#04392A;}
	.st299{fill:#054938;}
	.st300{fill:#054A3B;}
	.st301{fill:#075141;}
	.st302{fill:#065240;}
	.st303{fill:#685001;}
	.st304{fill:#054739;}
	.st305{fill:#053E2C;}
	.st306{fill:#05392A;}
	.st307{fill:#055140;}
	.st308{fill:#054C3D;}
	.st309{fill:#064F3F;}
	.st310{fill:#064C3B;}
	.st311{fill:#053A2E;}
	.st312{fill:#043129;}
	.st313{fill:#054135;}
	.st314{fill:#043127;}
	.st315{fill:#063F35;}
	.st316{fill:#050A0C;}
	.st317{fill:#040708;}
	.st318{fill:#070D0F;}
	.st319{fill:#091114;}
	.st320{fill:#070C0D;}
	.st321{fill:#061F15;}
	.st322{fill:#052B20;}
	.st323{fill:#051A11;}
	.st324{fill:#062016;}
	.st325{fill:#07281C;}
	.st326{fill:#05291F;}
	.st327{fill:#051D14;}
	.st328{fill:#062E21;}
	.st329{fill:#063325;}
	.st330{fill:#041D14;}
	.st331{fill:#063326;}
	.st332{fill:#05281E;}
	.st333{fill:#06281E;}
	.st334{fill:#042922;}
	.st335{fill:#05382F;}
	.st336{fill:#052C25;}
	.st337{fill:#05342C;}
	.st338{fill:#06362F;}
	.st339{fill:#032721;}
	.st340{fill:#063C32;}
	.st341{fill:#053428;}
	.st342{fill:#06382B;}
	.st343{fill:#06392C;}
	.st344{fill:#7C6102;}
	.st345{fill:#0D1518;}
	.st346{fill:#6D5402;}
	.st347{fill:#080D10;}
	.st348{fill:#054F40;}
	.st349{fill:#064D3B;}
	.st350{fill:#064D3C;}
	.st351{fill:#05131A;}
	.st352{fill:#732B01;}
	.st353{fill:#054737;}
	.st354{fill:#054E3E;}
	.st355{fill:#033F30;}
	.st356{fill:#065142;}
	.st357{fill:#044433;}
	.st358{fill:#054A39;}
	.st359{fill:#044131;}
	.st360{fill:#044535;}
	.st361{fill:#065644;}
	.st362{fill:#6E0B04;}
	.st363{fill:#7D5803;}
	.st364{fill:#7A5602;}
	.st365{fill:#785402;}
	.st366{fill:#765102;}
	.st367{fill:#630A03;}
	.st368{fill:#600A03;}
	.st369{fill:#053324;}
	.st370{fill:#054B3C;}
	.st371{fill:#043B2E;}
	.st372{fill:#054637;}
	.st373{fill:#043B2D;}
	.st374{fill:#121115;}
	.st375{fill:#705702;}
	.st376{fill:#776002;}
	.st377{fill:#721903;}
	.st378{fill:#0A1316;}
	.st379{fill:#0A1418;}
	.st380{fill:#752102;}
	.st381{fill:#741D03;}
	.st382{fill:#722401;}
	.st383{fill:#05291C;}
	.st384{fill:#03291E;}
	.st385{fill:#053021;}
	.st386{fill:#6B1C02;}
	.st387{fill:#320702;}
	.st388{fill:#702C01;}
	.st389{fill:#702B01;}
	.st390{fill:#722701;}
	.st391{fill:#752B01;}
	.st392{fill:#6E2901;}
	.st393{fill:#6E2A01;}
	.st394{fill:#6E2A00;}
	.st395{fill:#6F2901;}
	.st396{fill:#772F01;}
	.st397{fill:#6F2601;}
	.st398{fill:#702401;}
	.st399{fill:#752003;}
	.st400{fill:#055141;}
	.st401{fill:#065343;}
	.st402{fill:#745C02;}
	.st403{fill:#7F6203;}
	.st404{fill:#786003;}
	.st405{fill:#786102;}
	.st406{fill:#745B02;}
	.st407{fill:#785E02;}
	.st408{fill:#053831;}
	.st409{fill:#054032;}
	.st410{fill:#064B3A;}
	.st411{fill:#064A39;}
	.st412{fill:#080E11;}
	.st413{fill:#7F6003;}
	.st414{fill:#6D1E02;}
	.st415{fill:#806703;}
	.st416{fill:#7B5D03;}
	.st417{fill:#806303;}
	.st418{fill:#7B6203;}
	.st419{fill:#7C5E03;}
	.st420{fill:#063327;}
	.st421{fill:#05372B;}
	.st422{fill:#05261E;}
	.st423{fill:#7E5B02;}
	.st424{fill:#043C2B;}
	.st425{fill:#054937;}
	.st426{fill:#084D36;}
	.st427{fill:#043F31;}
	.st428{fill:#065243;}
	.st429{fill:#064C3E;}
	.st430{fill:#7E5D02;}
	.st431{fill:#7B5202;}
	.st432{fill:#0A1318;}
	.st433{fill:#040707;}
	.st434{fill:#060B0E;}
	.st435{fill:#7A4C03;}
	.st436{fill:#080F13;}
	.st437{fill:#0D191F;}
	.st438{fill:#0B1519;}
	.st439{fill:#060A0D;}
	.st440{fill:#810D06;}
	.st441{fill:#7E0C05;}
	.st442{fill:#091215;}
	.st443{fill:#0B1619;}
	.st444{fill:#054F3F;}
	.st445{fill:#763001;}
	.st446{fill:#6D2A01;}
	.st447{fill:#6E2C02;}
	.st448{fill:#742D01;}
	.st449{fill:#053E2E;}
	.st450{fill:#7B4E02;}
	.st451{fill:#7D5A03;}
	.st452{fill:#7C5202;}
	.st453{fill:#7E5F03;}
	.st454{fill:#7C5503;}
	.st455{fill:#053B32;}
	.st456{fill:#043027;}
	.st457{fill:#04382B;}
	.st458{fill:#032320;}
	.st459{fill:#043228;}
	.st460{fill:#4E0603;}
	.st461{fill:#520703;}
	.st462{fill:#4A0503;}
	.st463{fill:#5B0704;}
	.st464{fill:#070E12;}
	.st465{fill:#0A1114;}
	.st466{fill:#054536;}
	.st467{fill:#053F31;}
	.st468{fill:#04372B;}
	.st469{fill:#053D31;}
	.st470{fill:#042D25;}
	.st471{fill:#064739;}
	.st472{fill:#0C1215;}
	.st473{fill:#064D3D;}
	.st474{fill:#6E5402;}
	.st475{fill:#053129;}
	.st476{fill:#053326;}
	.st477{fill:#063328;}
	.st478{fill:#052E26;}
	.st479{fill:#052D24;}
	.st480{fill:#053629;}
	.st481{fill:#083623;}
	.st482{fill:#043626;}
	.st483{fill:#064A3D;}
	.st484{fill:#053D32;}
	.st485{fill:#04372C;}
	.st486{fill:#054236;}
	.st487{fill:#05392D;}
	.st488{fill:#064437;}
	.st489{fill:#053D2F;}
	.st490{fill:#064A3C;}
	.st491{fill:#04392D;}
	.st492{fill:#04382A;}
	.st493{fill:#0A1215;}
	.st494{fill:#0B151A;}
	.st495{fill:#0C151A;}
	.st496{fill:#0B1317;}
	.st497{fill:#0B151B;}
	.st498{fill:#0E181C;}
	.st499{fill:#0D181C;}
	.st500{fill:#040608;}
	.st501{fill:#030505;}
	.st502{fill:#0B1418;}
	.st503{fill:#05281D;}
	.st504{fill:#062218;}
	.st505{fill:#091216;}
	.st506{fill:#051710;}
	.st507{fill:#073426;}
	.st508{fill:#052920;}
	.st509{fill:#053329;}
	.st510{fill:#043329;}
	.st511{fill:#043429;}
	.st512{fill:#053D34;}
	.st513{fill:#032521;}
	.st514{fill:#05392E;}
	.st515{fill:#074036;}
	.st516{fill:#053E30;}
	.st517{fill:#043125;}
	.st518{fill:#065341;}
	.st519{fill:#043829;}
	.st520{fill:#054E3F;}
	.st521{fill:#064C3D;}
	.st522{fill:#065543;}
	.st523{fill:#044133;}
	.st524{fill:#750A04;}
	.st525{fill:#740C04;}
	.st526{fill:#053C2E;}
	.st527{fill:#7D5403;}
	.st528{fill:#7D5303;}
	.st529{fill:#765002;}
	.st530{fill:#785002;}
	.st531{fill:#775102;}
	.st532{fill:#785202;}
	.st533{fill:#053C2C;}
	.st534{fill:#043A2B;}
	.st535{fill:#090E10;}
	.st536{fill:#752802;}
	.st537{fill:#061F14;}
	.st538{fill:#053122;}
	.st539{fill:#063627;}
	.st540{fill:#054231;}
	.st541{fill:#732D01;}
	.st542{fill:#064938;}
	.st543{fill:#05271C;}
	.st544{fill:#043E30;}
	.st545{fill:#044435;}
	.st546{fill:#065041;}
	.st547{fill:#7C6103;}
	.st548{fill:#755A02;}
	.st549{fill:#0B1318;}
	.st550{fill:#742202;}
	.st551{fill:#722002;}
	.st552{fill:#6E2102;}
	.st553{fill:#781F03;}
	.st554{fill:#782103;}
	.st555{fill:#6F2202;}
	.st556{fill:#712B01;}
	.st557{fill:#742902;}
	.st558{fill:#051419;}
	.st559{fill:#6E2A02;}
	.st560{fill:#0C1315;}
	.st561{fill:#0C1619;}
	.st562{fill:#080E10;}
	.st563{fill:#722601;}
	.st564{fill:#6F2801;}
	.st565{fill:#762802;}
	.st566{fill:#722C01;}
	.st567{fill:#712C01;}
	.st568{fill:#742B01;}
	.st569{fill:#053E31;}
	.st570{fill:#7B6002;}
	.st571{fill:#084835;}
	.st572{fill:#053E2F;}
	.st573{fill:#053A2A;}
	.st574{fill:#073C28;}
	.st575{fill:#7C5F03;}
	.st576{fill:#744203;}
	.st577{fill:#093F2A;}
	.st578{fill:#064839;}
	.st579{fill:#064F3D;}
	.st580{fill:#05402D;}
	.st581{fill:#064B37;}
	.st582{fill:#05503D;}
	.st583{fill:#042C24;}
	.st584{fill:#5D0704;}
	.st585{fill:#7F6503;}
	.st586{fill:#600704;}
	.st587{fill:#630904;}
	.st588{fill:#0D1616;}
	.st589{fill:#0B161A;}
	.st590{fill:#0C171B;}
	.st591{fill:#070C10;}
	.st592{fill:#041216;}
	.st593{fill:#091014;}
	.st594{fill:#060D0F;}
	.st595{fill:#0D181E;}
	.st596{fill:#070B0B;}
	.st597{fill:#0F191E;}
	.st598{fill:#04080A;}
	.st599{fill:#722D01;}
	.st600{fill:#7D4E02;}
	.st601{fill:#794802;}
	.st602{fill:#784702;}
	.st603{fill:#752D01;}
	.st604{fill:#0E1517;}
	.st605{fill:#0C181D;}
	.st606{fill:#05141A;}
	.st607{fill:#054D3D;}
	.st608{fill:#772C01;}
	.st609{fill:#0B1316;}
	.st610{fill:#0A1012;}
	.st611{fill:#7C0F05;}
	.st612{fill:#712D01;}
	.st613{fill:#794A02;}
	.st614{fill:#700E04;}
	.st615{fill:#770E04;}
	.st616{fill:#660D03;}
	.st617{fill:#0F1B1E;}
	.st618{fill:#084836;}
	.st619{fill:#6F2D01;}
	.st620{fill:#702B00;}
	.st621{fill:#0E1313;}
	.st622{fill:#073D2D;}
	.st623{fill:#5A0D03;}
	.st624{fill:#794502;}
	.st625{fill:#7A4A01;}
	.st626{fill:#744C02;}
	.st627{fill:#795502;}
	.st628{fill:#755602;}
	.st629{fill:#064337;}
	.st630{fill:#053C2F;}
	.st631{fill:#06483B;}
	.st632{fill:#063E32;}
	.st633{fill:#750B04;}
	.st634{fill:#6A0A03;}
	.st635{fill:#742E01;}
	.st636{fill:#111519;}
	.st637{fill:#5E0704;}
	.st638{fill:#064439;}
	.st639{fill:#043C2E;}
	.st640{fill:#0A1518;}
	.st641{fill:#05483A;}
	.st642{fill:#0A1618;}
	.st643{fill:#0B1518;}
	.st644{fill:#0A0E12;}
	.st645{fill:#041217;}
	.st646{fill:#064B3D;}
	.st647{fill:#054635;}
	.st648{fill:#0F1B20;}
	.st649{fill:#080C0E;}
	.st650{fill:#04392C;}
	.st651{fill:#054A3C;}
	.st652{fill:#055342;}
	.st653{fill:#065441;}
	.st654{fill:#05241F;}
	.st655{fill:#041717;}
	.st656{fill:#072D25;}
	.st657{fill:#043629;}
	.st658{fill:#052A25;}
	.st659{fill:#053830;}
	.st660{fill:#042B25;}
	.st661{fill:#05352B;}
	.st662{fill:#06493A;}
	.st663{fill:#04372A;}
	.st664{fill:#06463A;}
	.st665{fill:#05080A;}
	.st666{fill:#062319;}
	.st667{fill:#0E191F;}
	.st668{fill:#0B1618;}
	.st669{fill:#061C15;}
	.st670{fill:#053224;}
	.st671{fill:#053023;}
	.st672{fill:#053426;}
	.st673{fill:#052D21;}
	.st674{fill:#052218;}
	.st675{fill:#052B21;}
	.st676{fill:#081012;}
	.st677{fill:#054436;}
	.st678{fill:#064234;}
	.st679{fill:#04372D;}
	.st680{fill:#043128;}
	.st681{fill:#053D33;}
	.st682{fill:#044332;}
	.st683{fill:#065344;}
	.st684{fill:#054E3D;}
	.st685{fill:#044032;}
	.st686{fill:#05231A;}
	.st687{fill:#043023;}
	.st688{fill:#053425;}
	.st689{fill:#041F15;}
	.st690{fill:#053B2B;}
	.st691{fill:#043627;}
	.st692{fill:#073123;}
	.st693{fill:#055041;}
	.st694{fill:#4D0807;}
	.st695{fill:#752402;}
	.st696{fill:#6E2002;}
	.st697{fill:#721D02;}
	.st698{fill:#6F2602;}
	.st699{fill:#702603;}
	.st700{fill:#7B4602;}
	.st701{fill:#04392E;}
	.st702{fill:#054337;}
	.st703{fill:#064639;}
	.st704{fill:#064231;}
	.st705{fill:#06483A;}
	.st706{fill:#053D30;}
	.st707{fill:#043427;}
	.st708{fill:#04352A;}
	.st709{fill:#053C2D;}
	.st710{fill:#532701;}
	.st711{fill:#740A04;}
	.st712{fill:#060B0C;}
	.st713{fill:#06181E;}
	.st714{fill:#0A1112;}
	.st715{fill:#6B4D04;}
	.st716{fill:#080C0D;}
	.st717{fill:#05141B;}
	.st718{fill:#043929;}
	.st719{fill:#051318;}
	.st720{fill:#070D11;}
	.st721{fill:#054B39;}
	.st722{fill:#742602;}
	.st723{fill:#052520;}
	.st724{fill:#6D2802;}
	.st725{fill:#08372B;}
	.st726{fill:#07251F;}
	.st727{fill:#7C5303;}
	.st728{fill:#7B4F02;}
	.st729{fill:#782B02;}
	.st730{fill:#7D0D05;}
	.st731{fill:#774702;}
	.st732{fill:#0D171A;}
	.st733{fill:#081114;}
	.st734{fill:#0C181C;}
	.st735{fill:#06161C;}
	.st736{fill:#0C181E;}
	.st737{fill:#043E2D;}
	.st738{fill:#044333;}
	.st739{fill:#054B38;}
	.st740{fill:#7F6603;}
	.st741{fill:#720E05;}
	.st742{fill:#750E06;}
	.st743{fill:#743A01;}
	.st744{fill:#0E181D;}
	.st745{fill:#0A0D0D;}
	.st746{fill:#784002;}
	.st747{fill:#500C02;}
	.st748{fill:#044334;}
	.st749{fill:#044231;}
	.st750{fill:#05503E;}
	.st751{fill:#065443;}
	.st752{fill:#600903;}
	.st753{fill:#550A03;}
	.st754{fill:#480903;}
	.st755{fill:#6A0A04;}
	.st756{fill:#0A1516;}
	.st757{fill:#705002;}
	.st758{fill:#061C1B;}
	.st759{fill:#042E24;}
	.st760{fill:#064A3B;}
	.st761{fill:#04382C;}
	.st762{fill:#064D3F;}
	.st763{fill:#064235;}
	.st764{fill:#064236;}
	.st765{fill:#7B0E04;}
	.st766{fill:#7A0B05;}
	.st767{fill:#0F171B;}
	.st768{fill:#0C1318;}
	.st769{fill:#052C26;}
	.st770{fill:#052A27;}
	.st771{fill:#031A1A;}
	.st772{fill:#031E1C;}
	.st773{fill:#05332C;}
	.st774{fill:#061E1C;}
	.st775{fill:#031213;}
	.st776{fill:#031414;}
	.st777{fill:#064538;}
	.st778{fill:#04332A;}
	.st779{fill:#042E25;}
	.st780{fill:#05372C;}
	.st781{fill:#064B39;}
	.st782{fill:#0A1116;}
	.st783{fill:#051319;}
	.st784{fill:#091015;}
	.st785{fill:#0E191E;}
	.st786{fill:#05251B;}
	.st787{fill:#062D20;}
	.st788{fill:#052018;}
	.st789{fill:#0C181B;}
	.st790{fill:#0B1319;}
	.st791{fill:#063F31;}
	.st792{fill:#042A1F;}
	.st793{fill:#073A2C;}
	.st794{fill:#05392C;}
	.st795{fill:#043024;}
	.st796{fill:#042B20;}
	.st797{fill:#054235;}
	.st798{fill:#054538;}
	.st799{fill:#043226;}
	.st800{fill:#04362C;}
	.st801{fill:#052623;}
	.st802{fill:#043123;}
	.st803{fill:#054D3C;}
	.st804{fill:#030404;}
	.st805{fill:#050707;}
	.st806{fill:#053A2B;}
	.st807{fill:#020304;}
	.st808{fill:#063A2B;}
	.st809{fill:#033A2A;}
	.st810{fill:#053D2C;}
	.st811{fill:#060A0C;}
	.st812{fill:#0E1A20;}
	.st813{fill:#762902;}
	.st814{fill:#722801;}
	.st815{fill:#795202;}
	.st816{fill:#794D02;}
	.st817{fill:#704001;}
	.st818{fill:#774802;}
	.st819{fill:#043729;}
	.st820{fill:#043A2D;}
	.st821{fill:#064B3B;}
	.st822{fill:#064331;}
	.st823{fill:#05392B;}
	.st824{fill:#06473A;}
	.st825{fill:#075342;}
	.st826{fill:#065340;}
	.st827{fill:#072315;}
	.st828{fill:#052F22;}
	.st829{fill:#593001;}
	.st830{fill:#592C01;}
	.st831{fill:#5A3401;}
	.st832{fill:#5C3A01;}
	.st833{fill:#7C0C05;}
	.st834{fill:#644501;}
	.st835{fill:#613F01;}
	.st836{fill:#06161E;}
	.st837{fill:#490903;}
	.st838{fill:#064F40;}
	.st839{fill:#054B3D;}
	.st840{fill:#044434;}
	.st841{fill:#055441;}
	.st842{fill:#055444;}
	.st843{fill:#7E5C02;}
	.st844{fill:#732202;}
	.st845{fill:#762202;}
	.st846{fill:#06332A;}
	.st847{fill:#692203;}
	.st848{fill:#042923;}
	.st849{fill:#06352E;}
	.st850{fill:#063D33;}
	.st851{fill:#053E33;}
	.st852{fill:#7C5903;}
	.st853{fill:#7B5503;}
	.st854{fill:#081014;}
	.st855{fill:#7C5803;}
	.st856{fill:#050808;}
	.st857{fill:#051219;}
	.st858{fill:#0C161C;}
	.st859{fill:#0D1A1D;}
	.st860{fill:#064F42;}
	.st861{fill:#610D05;}
	.st862{fill:#691F01;}
	.st863{fill:#550F04;}
	.st864{fill:#451005;}
	.st865{fill:#702003;}
	.st866{fill:#7F6803;}
	.st867{fill:#7E1005;}
	.st868{fill:#063C2F;}
	.st869{fill:#080D0D;}
	.st870{fill:#0F1919;}
	.st871{fill:#732502;}
	.st872{fill:#090F12;}
	.st873{fill:#0A1011;}
	.st874{fill:#06090B;}
	.st875{fill:#043B2B;}
	.st876{fill:#030405;}
	.st877{fill:#050708;}
	.st878{fill:#0C2E27;}
	.st879{fill:#075040;}
	.st880{fill:#05493B;}
	.st881{fill:#041716;}
	.st882{fill:#042A24;}
	.st883{fill:#0B1417;}
	.st884{fill:#033228;}
	.st885{fill:#054237;}
	.st886{fill:#051418;}
	.st887{fill:#05151C;}
	.st888{fill:#062F20;}
	.st889{fill:#053729;}
	.st890{fill:#06281D;}
	.st891{fill:#052C1F;}
	.st892{fill:#051F16;}
	.st893{fill:#064335;}
	.st894{fill:#063C2D;}
	.st895{fill:#04342A;}
	.st896{fill:#043F32;}
	.st897{fill:#064E3C;}
	.st898{fill:#043E31;}
	.st899{fill:#043D2C;}
	.st900{fill:#044130;}
	.st901{fill:#055241;}
	.st902{fill:#06151C;}
	.st903{fill:#6D2501;}
	.st904{fill:#722602;}
	.st905{fill:#6F2401;}
	.st906{fill:#735002;}
	.st907{fill:#704B01;}
	.st908{fill:#704801;}
	.st909{fill:#7C4F03;}
	.st910{fill:#673901;}
	.st911{fill:#663F01;}
	.st912{fill:#043728;}
	.st913{fill:#053B2F;}
	.st914{fill:#063324;}
	.st915{fill:#05291E;}
	.st916{fill:#042C21;}
	.st917{fill:#043628;}
	.st918{fill:#05382A;}
	.st919{fill:#043225;}
	.st920{fill:#064435;}
	.st921{fill:#603201;}
	.st922{fill:#5E3601;}
	.st923{fill:#810E06;}
	.st924{fill:#7D5C03;}
	.st925{fill:#5D1E01;}
	.st926{fill:#7B5103;}
	.st927{fill:#641F01;}
	.st928{fill:#6C4D02;}
	.st929{fill:#694501;}
	.st930{fill:#6A4C01;}
	.st931{fill:#064E3D;}
	.st932{fill:#053E32;}
	.st933{fill:#540A03;}
	.st934{fill:#7F6103;}
	.st935{fill:#711B03;}
	.st936{fill:#805F03;}
	.st937{fill:#072B23;}
	.st938{fill:#05362B;}
	.st939{fill:#054133;}
	.st940{fill:#080D0E;}
	.st941{fill:#795602;}
	.st942{fill:#593D02;}
	.st943{fill:#054D3B;}
	.st944{fill:#044C3D;}
	.st945{fill:#6A2201;}
	.st946{fill:#101312;}
	.st947{fill:#7C0D05;}
	.st948{fill:#770D05;}
	.st949{fill:#700B04;}
	.st950{fill:#752602;}
	.st951{fill:#041D1C;}
	.st952{fill:#4C3E03;}
	.st953{fill:#6E1A03;}
	.st954{fill:#7D5F03;}
	.st955{fill:#0E1513;}
	.st956{fill:#111917;}
	.st957{fill:#020405;}
	.st958{fill:#0A1417;}
	.st959{fill:#052A1F;}
	.st960{fill:#05463A;}
	.st961{fill:#070C0C;}
	.st962{fill:#052B1E;}
	.st963{fill:#640A04;}
	.st964{fill:#063C31;}
	.st965{fill:#080D0F;}
	.st966{fill:#030606;}
	.st967{fill:#06352A;}
	.st968{fill:#063E31;}
	.st969{fill:#090F11;}
	.st970{fill:#080D11;}
	.st971{fill:#7F0E05;}
	.st972{fill:#040808;}
	.st973{fill:#061419;}
	.st974{fill:#0A1113;}
	.st975{fill:#0A1213;}
	.st976{fill:#0D161A;}
	.st977{fill:#043B2A;}
	.st978{fill:#053B2C;}
	.st979{fill:#064A3A;}
	.st980{fill:#064237;}
	.st981{fill:#043A2E;}
	.st982{fill:#070D0E;}
	.st983{fill:#06493C;}
	.st984{fill:#062E29;}
	.st985{fill:#091012;}
	.st986{fill:#042721;}
	.st987{fill:#053B2E;}
	.st988{fill:#064638;}
	.st989{fill:#05382D;}
	.st990{fill:#0C171D;}
	.st991{fill:#053F36;}
	.st992{fill:#063B31;}
	.st993{fill:#063E33;}
	.st994{fill:#064436;}
	.st995{fill:#043025;}
	.st996{clip-path:url(#SVGID_00000069383396991054501240000016701798097714255543_);}
	.st997{fill:url(#Ellipse_97_00000088102939168677948820000008132525723316742540_);}
	.st998{fill:url(#Ellipse_98_00000057832180133594693820000017708302103513048712_);}
	.st999{fill:#1E2026;}
	.st1000{fill:#FFFFFF;}
	.st1001{fill:#FAFAFA;}
	.st1002{fill:#494E54;}
	.st1003{fill:#BBBBBB;}
	.st1004{opacity:0.32;fill:#494E54;enable-background:new    ;}
	.st1005{fill:#DFDFDF;}
	.st1006{fill:#FF4444;}
	.st1007{fill:#999999;}
	.st1008{fill:#66FF66;}
	.st1009{fill:none;}
	.st1010{fill:none;stroke:#1E2026;stroke-width:2;stroke-linecap:round;stroke-linejoin:round;}
	.st1011{fill:#1F2226;}
	.st1012{fill:#2B2B34;}
	.st1013{opacity:0.2;}
	.st1014{fill:#FFF029;}
	.st1015{fill:#FFFF00;}
	.st1016{fill:#FF5757;}
	.st1017{fill:#0ECB62;}
	.st1018{fill:#FFA946;}
	.st1019{opacity:0.3;}
	.st1020{fill:#1E2026;fill-opacity:0;}
	.st1021{opacity:0.25;fill:url(#Ellipse_97_00000021803343811146193860000001541245970090645940_);enable-background:new    ;}
	.st1022{fill:#27272F;}
	.st1023{opacity:0.17;fill:#FFFFFF;enable-background:new    ;}
	.st1024{fill:#2C3136;}
	.st1025{fill:#ADFF2F;}
	.st1026{fill:#474C52;}
	.st1027{opacity:0.3;fill:#FFFFFF;enable-background:new    ;}
	.st1028{fill:url(#);}
	.st1029{fill:#B60001;}
	.st1030{opacity:0.25;fill:url(#Ellipse_107_00000162325671604829594140000009973996930118526384_);enable-background:new    ;}
	.st1031{fill:#14151A;}
	.st1032{opacity:0;}
	.st1033{opacity:0.32;}
	.st1034{fill:#494E54;fill-opacity:0;}
	.st1035{fill:none;stroke:#DFDFDF;stroke-width:2;stroke-linecap:round;stroke-linejoin:round;}
	.st1036{fill:#4C4C52;}
	.st1037{fill:none;stroke:#BBBCBF;stroke-width:10;stroke-miterlimit:10;}
	.st1038{clip-path:url(#SVGID_00000080928244027437929530000002367719788697029272_);}
	.st1039{clip-path:url(#SVGID_00000165192287497904489610000002930339440162946459_);}
	.st1040{opacity:0.0784;clip-path:url(#SVGID_00000142136360051419840680000012601429863728708490_);fill:url(#);}
	.st1041{clip-path:url(#SVGID_00000092422295895005767230000006630698501896589976_);}
	.st1042{opacity:0.2;clip-path:url(#SVGID_00000092422295895005767230000006630698501896589976_);enable-background:new    ;}
	.st1043{clip-path:url(#SVGID_00000054257054509965832490000004301467924384215688_);fill:url(#);}
	.st1044{clip-path:url(#SVGID_00000054257054509965832490000004301467924384215688_);}
	.st1045{opacity:0.2;clip-path:url(#SVGID_00000092422295895005767230000006630698501896589976_);fill:#1E2026;}
	.st1046{clip-path:url(#SVGID_00000092422295895005767230000006630698501896589976_);fill:#FFFFFF;}
	
		.st1047{clip-path:url(#SVGID_00000092422295895005767230000006630698501896589976_);fill:none;stroke:#ADFF2F;stroke-width:0.3799;}
	.st1048{opacity:0.302;clip-path:url(#SVGID_00000092422295895005767230000006630698501896589976_);enable-background:new    ;}
	.st1049{clip-path:url(#SVGID_00000041994252823384237410000013372350058025053118_);fill:#FFFFFF;}
	.st1050{clip-path:url(#SVGID_00000041994252823384237410000013372350058025053118_);fill:#2C3136;}
	
		.st1051{opacity:0.2902;clip-path:url(#SVGID_00000092422295895005767230000006630698501896589976_);fill:none;stroke:#FFFFFF;stroke-width:1.1397;}
	
		.st1052{clip-path:url(#SVGID_00000092422295895005767230000006630698501896589976_);fill-rule:evenodd;clip-rule:evenodd;fill:#FFFFFF;}
	.st1053{opacity:0.302;clip-path:url(#SVGID_00000092422295895005767230000006630698501896589976_);fill:#FFFFFF;}
	.st1054{clip-path:url(#SVGID_00000092422295895005767230000006630698501896589976_);fill:#33363A;}
	
		.st1055{opacity:0.302;clip-path:url(#SVGID_00000092422295895005767230000006630698501896589976_);fill:none;stroke:#FFFFFF;stroke-width:1.1397;}
	.st1056{clip-path:url(#SVGID_00000092422295895005767230000006630698501896589976_);fill:#FFF029;}
	.st1057{clip-path:url(#SVGID_00000092422295895005767230000006630698501896589976_);fill:#0ECB62;}
	.st1058{clip-path:url(#SVGID_00000092422295895005767230000006630698501896589976_);fill:#FF5757;}
	
		.st1059{opacity:0.302;clip-path:url(#SVGID_00000092422295895005767230000006630698501896589976_);fill:none;stroke:#FFFFFF;stroke-width:0.3799;}
	.st1060{clip-path:url(#SVGID_00000092422295895005767230000006630698501896589976_);fill:url(#);}
	.st1061{clip-path:url(#SVGID_00000092422295895005767230000006630698501896589976_);fill:#FFA946;}
	.st1062{clip-path:url(#SVGID_00000060736281647326941620000013297590195581604518_);fill:url(#);}
	.st1063{clip-path:url(#SVGID_00000060736281647326941620000013297590195581604518_);}
	.st1064{clip-path:url(#SVGID_00000129909384845801629100000018114119337752513977_);fill:#FFFFFF;}
	.st1065{clip-path:url(#SVGID_00000129909384845801629100000018114119337752513977_);fill:#2C3136;}
	.st1066{clip-path:url(#SVGID_00000081618884947836230850000017004294601914850482_);fill:url(#);}
	.st1067{clip-path:url(#SVGID_00000081618884947836230850000017004294601914850482_);}
	.st1068{clip-path:url(#SVGID_00000138549976609404435860000010689334643215503271_);fill:#FFFFFF;}
	.st1069{clip-path:url(#SVGID_00000138549976609404435860000010689334643215503271_);fill:#2C3136;}
	.st1070{clip-path:url(#SVGID_00000092422295895005767230000006630698501896589976_);fill:#1E2026;}
	.st1071{clip-path:url(#SVGID_00000092422295895005767230000006630698501896589976_);fill:#494E54;}
	.st1072{opacity:0;clip-path:url(#SVGID_00000092422295895005767230000006630698501896589976_);fill:#494E54;}
	.st1073{clip-path:url(#SVGID_00000092422295895005767230000006630698501896589976_);fill:#DFDFDF;}
	.st1074{clip-path:url(#SVGID_00000092422295895005767230000006630698501896589976_);fill:#FF4444;}
	.st1075{clip-path:url(#SVGID_00000092422295895005767230000006630698501896589976_);fill:#999999;}
	.st1076{clip-path:url(#SVGID_00000092422295895005767230000006630698501896589976_);fill:#66FF66;}
	
		.st1077{clip-path:url(#SVGID_00000092422295895005767230000006630698501896589976_);fill:none;stroke:#DFDFDF;stroke-width:0.7598;stroke-linecap:round;stroke-linejoin:round;}
	.st1078{clip-path:url(#SVGID_00000165933990369547316090000005714293061406007228_);fill:url(#);}
	.st1079{clip-path:url(#SVGID_00000165933990369547316090000005714293061406007228_);}
	.st1080{clip-path:url(#SVGID_00000124881855795188854790000002203824853396029854_);fill:#FFFFFF;}
	.st1081{clip-path:url(#SVGID_00000124881855795188854790000002203824853396029854_);fill:#2C3136;}
	.st1082{clip-path:url(#SVGID_00000092422295895005767230000006630698501896589976_);fill:#363640;}
	.st1083{clip-path:url(#SVGID_00000092422295895005767230000006630698501896589976_);fill:#77777F;}
	.st1084{clip-path:url(#SVGID_00000092422295895005767230000006630698501896589976_);fill:#F03337;}
	.st1085{opacity:0.502;clip-path:url(#SVGID_00000092422295895005767230000006630698501896589976_);fill:#FFFFFF;}
	.st1086{clip-path:url(#SVGID_00000092422295895005767230000006630698501896589976_);fill:#126E51;}
	.st1087{clip-path:url(#SVGID_00000092422295895005767230000006630698501896589976_);fill:#FFE418;}
	.st1088{clip-path:url(#SVGID_00000092422295895005767230000006630698501896589976_);fill:#B60001;}
	
		.st1089{clip-path:url(#SVGID_00000092422295895005767230000006630698501896589976_);fill:none;stroke:#474C52;stroke-width:0.7598;}
	
		.st1090{opacity:0.302;clip-path:url(#SVGID_00000092422295895005767230000006630698501896589976_);fill:none;stroke:#FFFFFF;stroke-width:0.7598;}
	.st1091{opacity:0;clip-path:url(#SVGID_00000092422295895005767230000006630698501896589976_);fill:#FFFFFF;}
	.st1092{clip-path:url(#SVGID_00000092422295895005767230000006630698501896589976_);fill:#42434C;}
	.st1093{clip-path:url(#SVGID_00000092422295895005767230000006630698501896589976_);fill:#696A70;}
	.st1094{clip-path:url(#SVGID_00000092422295895005767230000006630698501896589976_);fill:#FBB823;}
	.st1095{clip-path:url(#SVGID_00000092422295895005767230000006630698501896589976_);fill:#B5B5B5;}
	
		.st1096{clip-path:url(#SVGID_00000092422295895005767230000006630698501896589976_);fill:none;stroke:#FFFFFF;stroke-width:0.7598;}
	.st1097{opacity:0.102;clip-path:url(#SVGID_00000092422295895005767230000006630698501896589976_);fill:#FAFAFA;}
	.st1098{clip-path:url(#SVGID_00000165226347556823099230000000003696715773729954_);}
	
		.st1099{clip-path:url(#SVGID_00000089565307379350893910000013516062547431063940_);fill:none;stroke:#46BF9F;stroke-width:0.7598;}
	.st1100{clip-path:url(#SVGID_00000049922522973851007890000016843530059395314070_);fill:url(#);}
	.st1101{clip-path:url(#SVGID_00000049922522973851007890000016843530059395314070_);}
	.st1102{opacity:0.102;clip-path:url(#SVGID_00000049922522973851007890000016843530059395314070_);fill:#FFFFFF;}
	
		.st1103{clip-path:url(#SVGID_00000049922522973851007890000016843530059395314070_);fill:none;stroke:#FFFFFF;stroke-width:0.7598;}
	.st1104{clip-path:url(#SVGID_00000049922522973851007890000016843530059395314070_);fill:#72737A;}
	.st1105{clip-path:url(#SVGID_00000049922522973851007890000016843530059395314070_);fill:#27272F;}
	.st1106{clip-path:url(#SVGID_00000049922522973851007890000016843530059395314070_);fill:#FBB823;}
	.st1107{opacity:0.1686;clip-path:url(#SVGID_00000049922522973851007890000016843530059395314070_);enable-background:new    ;}
	.st1108{clip-path:url(#SVGID_00000150065752502863376450000010178964857707790737_);fill:url(#);}
	.st1109{clip-path:url(#SVGID_00000150065752502863376450000010178964857707790737_);fill:#FFFFFF;}
	
		.st1110{clip-path:url(#SVGID_00000049922522973851007890000016843530059395314070_);fill-rule:evenodd;clip-rule:evenodd;fill:#FFFFFF;}
	.st1111{clip-path:url(#SVGID_00000049922522973851007890000016843530059395314070_);fill:#2C3136;}
	
		.st1112{clip-path:url(#SVGID_00000049922522973851007890000016843530059395314070_);fill:none;stroke:#ADFF2F;stroke-width:0.3799;}
	.st1113{clip-path:url(#SVGID_00000049922522973851007890000016843530059395314070_);fill:#FFFFFF;}
	
		.st1114{clip-path:url(#SVGID_00000049922522973851007890000016843530059395314070_);fill:none;stroke:#474C52;stroke-width:0.3799;}
	.st1115{clip-path:url(#SVGID_00000049922522973851007890000016843530059395314070_);fill:#FF4444;}
	.st1116{clip-path:url(#SVGID_00000049922522973851007890000016843530059395314070_);fill:#999999;}
	.st1117{clip-path:url(#SVGID_00000049922522973851007890000016843530059395314070_);fill:#66FF66;}
	.st1118{opacity:0.302;clip-path:url(#SVGID_00000049922522973851007890000016843530059395314070_);fill:#FFFFFF;}
	.st1119{clip-path:url(#SVGID_00000049922522973851007890000016843530059395314070_);fill:#F03337;}
	.st1120{clip-path:url(#SVGID_00000049922522973851007890000016843530059395314070_);fill:#B60001;}
	
		.st1121{opacity:0.302;clip-path:url(#SVGID_00000049922522973851007890000016843530059395314070_);fill:none;stroke:#FFFFFF;stroke-width:0.7598;}
	.st1122{clip-path:url(#SVGID_00000084493034889868533730000013188033002963592073_);fill:url(#);}
	.st1123{clip-path:url(#SVGID_00000084493034889868533730000013188033002963592073_);fill:#FFFFFF;}
	.st1124{clip-path:url(#SVGID_00000110443838040786384620000000294240327648363933_);fill:url(#);}
	.st1125{clip-path:url(#SVGID_00000110443838040786384620000000294240327648363933_);fill:#FFFFFF;}
	.st1126{clip-path:url(#SVGID_00000049922522973851007890000016843530059395314070_);fill:#FF5757;}
	.st1127{opacity:0.11;}
	.st1128{enable-background:new    ;}
	.st1129{fill:#E4E5E6;}
	.st1130{fill:url(#Path_516_00000022532932616063105110000001416450631167333775_);}
	.st1131{fill:url(#Path_517_00000122701931369171424120000004848494089932532893_);}
	.st1132{fill:url(#Path_518_00000047056025618395921740000017762119533858800570_);}
	.st1133{fill:url(#Path_519_00000019672518085708545360000006581715708193499552_);}
	.st1134{fill:url(#Path_520_00000062874894432506942860000012807877996499988665_);}
	.st1135{fill:url(#Path_521_00000128480869251907776670000017617566734513214347_);}
	.st1136{fill:url(#Path_522_00000078013734723078219230000004042164136852265645_);}
	.st1137{fill:url(#Path_523_00000034779779620257961960000016967523918149878438_);}
	.st1138{fill:#111111;}
	.st1139{fill:#C8102E;}
	.st1140{fill:#1D428A;}
	.st1141{fill-rule:evenodd;clip-rule:evenodd;fill:#003A73;}
	.st1142{fill-rule:evenodd;clip-rule:evenodd;fill:#FFFFFF;}
	.st1143{fill-rule:evenodd;clip-rule:evenodd;fill:#DA2127;}
	.st1144{fill:#BF0D3E;}
	.st1145{fill:#041E42;}
	.st1146{fill:#00004B;}
	.st1147{fill:#0E0E0E;}
	.st1148{clip-path:url(#SVGID_00000171716854795015881630000007842644258248819598_);}
	.st1149{fill:#ACA9A6;}
	.st1150{fill:#BCBAB7;}
	.st1151{fill:#CCC9C6;}
	.st1152{fill:#BBB8B5;}
	.st1153{clip-path:url(#SVGID_00000069380526876488047640000013910957111735244178_);}
	.st1154{fill:url(#path148_00000090290342764405628510000015682084699144041379_);}
	.st1155{clip-path:url(#SVGID_00000131334261998560088600000012075894203976228237_);}
	.st1156{fill:#9A9794;}
	.st1157{clip-path:url(#SVGID_00000107583895566111707730000009486226449893214369_);}
	.st1158{fill:url(#path216_00000163062898334328818400000002695521404656132023_);}
	.st1159{clip-path:url(#SVGID_00000036247694576770252120000008432455611088110213_);}
	.st1160{opacity:0.28;clip-path:url(#SVGID_00000042712139994241936460000018187283640079900304_);}
	.st1161{clip-path:url(#SVGID_00000013167714676338067530000008663354505187261062_);}
	.st1162{fill:url(#path282_00000056399193523596990390000004831646601031017901_);}
	.st1163{opacity:0.33;clip-path:url(#SVGID_00000181791418243292920010000016057606869618457509_);}
	.st1164{clip-path:url(#SVGID_00000141454251351897127800000017087536936868081845_);}
	.st1165{fill:#797775;}
	.st1166{opacity:0.55;clip-path:url(#SVGID_00000102543052112460811160000015161172058156359611_);}
	.st1167{clip-path:url(#SVGID_00000145023804482022035520000012222307498065956505_);}
	.st1168{fill:url(#path374_00000140699340423848165030000008534310931300847804_);}
	.st1169{opacity:0.44;clip-path:url(#SVGID_00000054263982753411077400000015226139236304897679_);}
	.st1170{clip-path:url(#SVGID_00000103228167062983862310000009397950331526585015_);}
	.st1171{fill:url(#path442_00000026854092803410384930000004514827070681175231_);}
	.st1172{opacity:0.44;clip-path:url(#SVGID_00000176040529809804175210000014431528332027162510_);}
	.st1173{clip-path:url(#SVGID_00000062910674554521881500000006404207982011846301_);}
	.st1174{fill:url(#path510_00000129195731924893899920000007965629194871571383_);}
	.st1175{clip-path:url(#SVGID_00000124139709931605386560000002558311947328298679_);}
	.st1176{fill:url(#path578_00000033347870593806395510000011659210222314229142_);}
	.st1177{clip-path:url(#SVGID_00000000909927117492932730000016110405499187106967_);}
	.st1178{fill:#EFECE8;}
	.st1179{fill:#DAD7D3;}
	.st1180{fill:url(#path618-8_00000168086102390979935300000003118112095108001461_);}
	.st1181{clip-path:url(#SVGID_00000119106001484595498060000013936356778116359302_);}
	.st1182{fill:#F6F2EE;}
	.st1183{fill:#EBE7E3;}
	.st1184{fill:#FFFBF7;}
	.st1185{clip-path:url(#SVGID_00000041997108187088109280000007549554659140600754_);}
	.st1186{fill:url(#path702_00000061466553120311060130000007253570234086445724_);}
	.st1187{clip-path:url(#SVGID_00000128457743637238702620000002848410183360125824_);}
	.st1188{fill:#D2CFCB;}
	.st1189{fill:#DEDBD7;}
	.st1190{fill:#F2EFEA;}
	.st1191{fill:#E7E4E0;}
	.st1192{clip-path:url(#SVGID_00000081606579329260992360000005731067085923718545_);}
	.st1193{fill:url(#path792_00000134219445051863154510000007676386190918556857_);}
	.st1194{clip-path:url(#SVGID_00000161618037378414916830000012342535323895850659_);}
	.st1195{clip-path:url(#SVGID_00000024699196161018177600000010710431851822923707_);}
	.st1196{fill:url(#path864_00000085954878455794246520000008240055972851568785_);}
	.st1197{clip-path:url(#SVGID_00000167380249939315078340000013503685467906731441_);}
	.st1198{clip-path:url(#SVGID_00000101095363753782447390000013621055048054631615_);}
	.st1199{fill:url(#path964_00000104693019631859405460000000871706576509446290_);}
	.st1200{clip-path:url(#SVGID_00000088128649755997581870000001789100615021112239_);}
	.st1201{clip-path:url(#SVGID_00000107579555015835017180000015615291816557626041_);}
	.st1202{fill:url(#path1064_00000104671508465726571970000001838756447569033122_);}
	.st1203{clip-path:url(#SVGID_00000029731977068731535740000005248891241801789332_);}
	.st1204{fill:url(#path1120_00000116226795456555372230000017577668998006729347_);}
	.st1205{clip-path:url(#SVGID_00000155125079834967094730000001886185607110218165_);}
	.st1206{fill:url(#path1182_00000134208408807542227660000012160482519275741623_);}
	.st1207{clip-path:url(#SVGID_00000047028884554489821470000012948885956236494226_);}
	.st1208{fill:url(#path1244_00000056419397392824956530000017756705724190497688_);}
	.st1209{clip-path:url(#SVGID_00000026153225331279683920000017677209174246921881_);}
	.st1210{fill:#E1DEDA;}
	.st1211{opacity:0.43;clip-path:url(#SVGID_00000160877951349605991640000002765943996973690767_);}
	.st1212{fill:url(#path1282_00000135677931951214391570000011644841209299606423_);}
	.st1213{fill:url(#path1324_00000158734322716509141140000004383725932518270644_);}
	.st1214{fill:url(#path1346_00000160154646441201479950000003090202678571013530_);}
	.st1215{fill:url(#path1368_00000105402288454556201310000013288246198007636402_);}
	.st1216{fill:url(#path1390_00000045590704316371787010000006863567708359237298_);}
	.st1217{clip-path:url(#SVGID_00000140008559723895135460000006325403337585757107_);}
	.st1218{clip-path:url(#SVGID_00000106105960153399719310000016457237850956311462_);}
	.st1219{fill:url(#path1420_00000156576006866097187330000010891994039495408277_);}
	.st1220{fill:#593987;}
	.st1221{fill:#007649;}
</style>
<g id="NBA-logo" transform="translate(12.951 0.059)">
	<path id="Rectangle_1454" class="st1000" d="M-5.66-0.06H8.08c4.03,0,7.29,3.26,7.29,7.29v49.94c0,4.03-3.26,7.29-7.29,7.29H-5.66
		c-4.03,0-7.29-3.26-7.29-7.29V7.23C-12.95,3.21-9.69-0.06-5.66-0.06z"/>
	<g id="Group_8008" transform="translate(0.589 0.589)">
		<path id="Path_512" class="st1139" d="M4.62,0.44c-0.93,0-1.61,0-1.65,0.01l-0.1,0.01l0.22,0.09c0.28,0.12,0.55,0.28,0.79,0.47
			c0.1,0.1,0.2,0.21,0.28,0.33c0.11,0.16,0.16,0.21,0.23,0.24C4.65,1.7,4.85,1.91,4.94,2.17c0.12,0.28,0.18,0.59,0.16,0.9
			c-0.01,0.6-0.16,1.2-0.44,1.73l-0.14,0.3l0.1,0.11C4.83,5.45,4.79,5.68,4.4,6.3c-0.09,0.15-0.2,0.32-0.23,0.39
			c-0.06,0.16-0.2,0.29-0.36,0.35L3.66,7.09L3.48,7.45C3.03,8.32,2.69,8.78,2.39,8.91C2.34,8.93,2.29,8.96,2.26,8.99
			c-0.06,0.12-0.1,0.25-0.09,0.38c0,0.25,0.02,0.27,0.5,0.5c0.39,0.18,0.76,0.4,1.11,0.65c0.15,0.12,0.16,0.13,0.16,0.23
			c0,0.1,0.01,0.11,0.07,0.15c0.21,0.13,0.39,0.25,0.56,0.36c0.1,0.08,0.35,0.25,0.55,0.38c0.36,0.23,0.69,0.49,0.99,0.8
			c0.99,1.18,1.53,2.67,1.52,4.21c0.01,0.21,0.03,0.71,0.03,1.12v0.73l0.09,0.36c0.09,0.38,0.19,0.88,0.34,1.75
			c0.07,0.44,0.16,0.88,0.27,1.31c0.03,0.1,0.2,0.47,0.38,0.83c0.28,0.53,0.52,1.08,0.71,1.64c0.13,0.4,0.23,0.82,0.28,1.24
			c0.03,0.62,0.16,1.23,0.38,1.81c0.11,0.05,0.22,0.09,0.34,0.11c0.16,0.04,0.32,0.09,0.47,0.16c0.16,0.07,0.17,0.09,0.26,0.26
			l0.09,0.18l0.31,0.15c0.13,0.06,0.26,0.14,0.38,0.23c0.1,0.1,0.17,0.24,0.2,0.38c0.02,0.08,0.05,0.16,0.1,0.24
			c0.19,0.28,0.35,0.58,0.48,0.89c0,0.02,0.01-5.58,0.01-12.43c0-13.7,0.02-12.73-0.15-13.39c-0.15-0.56-0.39-1.09-0.71-1.57
			C11.07,1.5,9.82,0.7,8.41,0.49C7.47,0.42,6.54,0.4,5.6,0.44h-1L4.62,0.44z M4.24,17.39c-0.58,0.27-1.13,0.6-1.64,0.99
			c-0.15,0.08-0.27,0.21-0.34,0.36c-0.13,0.27-0.65,1.55-1.18,2.96l-0.24,0.64l-0.01,0.3c-0.01,0.28,0,0.3,0.04,0.3
			C1.03,23,1.18,23.09,1.3,23.22c0.33,0.36,0.55,0.81,0.65,1.29c0.17,0.56,0.58,2.01,0.93,3.25l0.35,1.28l0.11,0.4l-0.16,0.15
			l-0.16,0.15l0.06,0.23l0.14,0.51c0.5,1.8,0.82,3.64,0.96,5.5c0.02,0.73,0.18,1.46,0.45,2.14c0.25,0.6,0.54,1.17,0.87,1.72
			c0.39,0.6,0.7,1.25,0.93,1.94c0.24,0.97,0.44,1.95,0.59,2.95c0.3,1.84,0.41,2.46,0.45,2.63c0.06,0.2,0.16,0.38,0.3,0.53
			c0.24,0.3,0.45,0.63,0.63,0.97c0.26,0.38,0.36,0.85,0.29,1.31c-0.02,0.13-0.09,0.43-0.15,0.67c-0.25,0.72-0.32,1.49-0.22,2.25
			c0.01,0.07,0.08,0.42,0.14,0.78c0.03,0.41,0.13,0.81,0.3,1.19c0.1,0.17,0.17,0.35,0.18,0.55c0,0.08-0.02,0.16-0.05,0.23
			c-0.02,0.05-0.04,0.1-0.05,0.16c0,0.02,0.12,0.4,0.27,0.85c0.15,0.44,0.3,0.91,0.33,1.05c0.3,0.81,0.3,1.71-0.02,2.51
			C9.23,60.8,8.9,61.15,8.5,61.4c-0.04,0.03-0.03,0.03,0.08,0.02c0.27-0.04,0.54-0.11,0.8-0.2c1.84-0.64,3.16-2.29,3.37-4.23
			c0.02-0.18,0.03-3.91,0.03-11.9V33.44l-0.09,0.18c-0.15,0.31-0.32,0.6-0.52,0.87c-0.44,0.57-1,1.02-1.65,1.33
			c-1.49,0.71-3.25,0.56-4.6-0.4c-0.4-0.3-0.75-0.65-1.05-1.05c-1.45-2.03-0.98-4.85,1.04-6.3c0.38-0.27,0.8-0.48,1.24-0.62
			c0.1-0.03,0.21-0.06,0.3-0.11c0.03-0.03-0.03-0.18-0.39-0.96c-0.28-0.62-0.65-1.38-1.26-2.61c-0.29-0.53-0.48-1.1-0.58-1.7
			c-0.18-0.84-0.5-2.45-0.78-4c-0.13-0.73-0.12-0.71-0.18-0.71L4.24,17.39z"/>
		<path id="Path_513" class="st1140" d="M-3.21,0.43c-2.17,0-4.39,0.01-4.57,0.03c-2.35,0.2-4.26,1.98-4.63,4.31
			c-0.04,0.24-0.05,1.88-0.05,25.82c0,17.37,0,25.72,0.02,26.07c0.04,1.27,0.57,2.47,1.49,3.36c0.86,0.87,2,1.4,3.22,1.48
			c0.36,0.03,15.38,0.03,15.38,0c-0.05-0.05-0.1-0.09-0.16-0.13c-0.34-0.23-0.59-0.57-0.71-0.97c-0.13-0.71-0.12-1.43,0.03-2.14
			c0.12-1.02,0.2-1.82,0.22-2.33l0.02-0.49l-0.14-0.16c-0.28-0.21-0.38-0.59-0.23-0.91c0.03-0.07,0.06-0.15,0.07-0.23
			c-0.06-0.3-0.15-0.6-0.28-0.89c-0.22-0.51-0.47-1-0.75-1.48c-0.51-0.91-0.62-1.15-0.62-1.46C5.08,50.16,5.14,50,5.26,49.88
			l0.08-0.09l-0.08-0.22c-0.1-0.3-0.21-0.55-0.42-1.03l-0.18-0.4l-0.24-0.14c-1.19-0.74-2.31-1.59-3.34-2.53
			c-0.35-0.31-0.96-0.91-1.47-1.42c-0.32-0.32-0.81-0.78-1.09-1.03c-0.3-0.22-0.56-0.49-0.77-0.79c-0.06-0.09-0.12-0.17-0.2-0.25
			c-1.62-2.01-3.07-4.15-4.34-6.4c-0.09-0.18-0.17-0.32-0.17-0.32c0,0-0.29-0.05-0.64-0.1c-0.22-0.03-0.44-0.06-0.66-0.11
			c-0.05-0.11-0.09-0.23-0.12-0.35c-0.32-0.97-0.75-1.9-1.26-2.79c-0.91-1.33-1.35-2.92-1.23-4.53c0.1-0.88,0.28-1.74,0.55-2.58
			c0.16-0.28,0.37-0.54,0.61-0.76l0.3-0.29v-0.65h-0.71c-0.95,0-1.22-0.04-1.42-0.21c-0.12-0.1-0.14-0.16-0.25-0.62
			c-0.04-0.16-0.09-0.32-0.15-0.48c-0.2-0.36-0.23-0.79-0.08-1.17c0.05-0.16,0.11-0.36,0.13-0.46c0.47-1.47,1.08-2.9,1.81-4.27
			c0.18-0.36,0.36-0.78,0.42-0.92c0.26-0.78,0.57-1.54,0.94-2.27c0.45-0.99,1.05-1.9,1.79-2.7C-6.7,9.73-6.42,9.54-6.11,9.4
			c0.59-0.24,1.22-0.36,1.85-0.36l0.73-0.07l0.08-0.09l0.08-0.09l0.35-0.02c1.15-0.05,1.57-0.2,1.77-0.62
			c0.15-0.41,0.23-0.84,0.24-1.28c0.05-0.42,0.1-0.78,0.1-0.81c0-0.02-0.01-0.04-0.04-0.03c-0.25,0.04-0.45-0.5-0.46-1.21
			c0-0.57,0.08-0.7,0.47-0.73l0.22-0.02v-0.2c0.01-0.46,0.05-0.92,0.12-1.37C-0.57,2-0.35,1.52,0.02,1.16
			C0.28,0.9,0.59,0.7,0.93,0.56c0.13-0.06,0.21-0.1,0.18-0.11s-2.16-0.02-4.33-0.02L-3.21,0.43z M-9.26,49.07h1.71l0.04,0.23
			l0.18,0.98c0.07,0.41,0.18,1.01,0.24,1.34c0.06,0.32,0.21,1.18,0.35,1.91c0.13,0.73,0.3,1.67,0.38,2.09
			c0.08,0.42,0.14,0.76,0.15,0.76c0.01-0.01-0.03-0.71-0.09-1.5c-0.02-0.29-0.04-0.59-0.05-0.92c0-0.17-0.02-0.38-0.03-0.47
			c-0.01-0.09-0.02-0.38-0.03-0.65s-0.02-0.55-0.03-0.63s-0.02-0.81-0.03-1.64l-0.02-1.5h1.1v9.23h-1.57l-0.13-0.7l-0.33-1.76
			c-0.11-0.58-0.28-1.49-0.36-2.02c-0.25-1.38-0.38-2.07-0.46-2.43l-0.06-0.32l0.01,0.25c0,0.14,0.03,0.61,0.04,1.04
			c0.01,0.43,0.03,0.93,0.04,1.11c0.01,0.23,0.02,4.21,0.01,4.78c0,0.04-0.04,0.05-0.54,0.05h-0.54v-9.23H-9.26z M-4.52,49.07h0.98
			c0.55,0,1.06,0.01,1.16,0.03c0.54,0.06,0.99,0.42,1.18,0.92c0.16,0.56,0.2,1.15,0.13,1.72c0.02,0.42,0,0.83-0.06,1.24
			c-0.06,0.23-0.18,0.45-0.35,0.62l-0.16,0.16l0.15,0.15c0.17,0.16,0.29,0.37,0.35,0.6c0.09,0.43,0.11,0.87,0.06,1.31
			c0,1.26,0,1.28-0.2,1.67c-0.19,0.37-0.53,0.64-0.93,0.74c-0.41,0.06-0.82,0.08-1.24,0.06l-1.08,0.01V49.07z M0.44,49.07H2.2
			l0.02,0.1c0,0.05,0.08,0.68,0.16,1.38c0.08,0.71,0.25,2.16,0.37,3.22c0.48,4.1,0.52,4.48,0.52,4.5c-0.21,0.02-0.43,0.03-0.64,0.02
			H1.99l-0.01-0.09c0-0.05-0.04-0.4-0.07-0.78c-0.03-0.38-0.06-0.76-0.07-0.85l-0.02-0.15H1.28c-0.55,0-0.55,0-0.56,0.06
			c-0.01,0.06-0.04,0.38-0.07,0.78c-0.03,0.4-0.06,0.79-0.07,0.87l-0.02,0.15h-1.22v-0.08c0-0.07,0.18-1.62,0.36-3.06
			c0.02-0.18,0.18-1.48,0.35-2.89c0.35-2.92,0.36-2.99,0.38-3.11L0.44,49.07L0.44,49.07z M1.24,50.1c0,0,0,0-0.01,0.01
			c-0.01,0.08-0.02,0.17-0.03,0.25c-0.01,0.13-0.02,0.32-0.03,0.41c-0.01,0.09-0.05,0.65-0.09,1.24c-0.05,0.59-0.12,1.57-0.18,2.17
			c-0.06,0.61-0.09,1.12-0.08,1.14c0.01,0.02,0.13,0.03,0.46,0.03c0.15,0,0.31,0,0.46-0.02c0,0-0.02-0.42-0.06-0.91
			C1.31,50.49,1.28,50.1,1.24,50.1L1.24,50.1z M-3.29,50.24v1.51c0,0.83,0,1.51,0.01,1.52c0.11,0.01,0.23,0.01,0.34,0
			c0.38-0.01,0.47-0.04,0.57-0.18l0.06-0.1v-1.22c0-1.17,0-1.22-0.05-1.31c-0.11-0.18-0.16-0.2-0.57-0.21L-3.29,50.24L-3.29,50.24z
			 M-3.29,54.27v2.84h0.31c0.38,0,0.52-0.05,0.61-0.23c0.05-0.1,0.05-0.15,0.05-1.2c0-1.05,0-1.09-0.05-1.19
			c-0.09-0.15-0.22-0.2-0.6-0.21h-0.33L-3.29,54.27z"/>
	</g>
</g>
</svg>
