<?xml version="1.0" standalone="no"?>
<!DOCTYPE svg PUBLIC "-//W3C//DTD SVG 1.1//EN" "http://www.w3.org/Graphics/SVG/1.1/DTD/svg11.dtd" >
<svg xmlns="http://www.w3.org/2000/svg">
<metadata>Generated by IcoMoon</metadata>
<defs>
<font id="tombet" horiz-adv-x="1024">
<font-face units-per-em="1024" ascent="960" descent="-64" />
<missing-glyph horiz-adv-x="1024" />
<glyph unicode="&#x20;" horiz-adv-x="512" d="" />
<glyph unicode="&#xe96b;" glyph-name="times-round-62" d="M230.144 35.84c5.274-3.635 10.65-7.117 16.026-10.547 1.485-0.922 2.918-1.843 4.403-2.765 4.557-2.816 9.165-5.581 13.824-8.243 2.867-1.638 5.734-3.226 8.602-4.813 3.379-1.843 6.758-3.686 10.138-5.427 5.376-2.765 10.803-5.478 16.23-8.038 1.024-0.461 2.048-1.024 3.072-1.485 35.891-16.589 73.318-28.621 111.462-36.198-28.314 28.621-50.842 62.054-72.55 109.261-51.149 2.202-100.352 11.776-146.637 27.648 10.138-20.173 21.606-39.936 34.714-58.982 0.256-0.102 0.461-0.256 0.717-0.41zM885.76 117.043c4.045 4.608 8.090 9.216 11.93 13.926 1.434 1.792 2.867 3.584 4.301 5.376 3.738 4.659 7.373 9.318 10.906 14.080 1.178 1.587 2.355 3.226 3.533 4.864 3.789 5.274 7.526 10.598 11.11 15.974 0.717 1.075 1.434 2.099 2.099 3.174 55.962 85.504 82.893 184.525 80.998 283.136-32.922 47.155-62.413 78.285-123.238 108.749-5.837-124.877-55.398-238.336-133.683-325.376l128.154-128.256c1.331 1.382 2.611 2.867 3.891 4.352zM964.864 657.971c-0.256 0.563-0.563 1.126-0.819 1.741-2.765 5.888-5.683 11.776-8.653 17.562-1.638 3.174-3.328 6.298-5.069 9.421-1.69 3.123-3.43 6.195-5.171 9.318-2.611 4.506-5.222 8.96-7.987 13.414-0.973 1.587-1.946 3.174-2.97 4.71-3.379 5.325-6.81 10.65-10.445 15.872-0.154 0.256-0.307 0.461-0.512 0.717-21.35 14.746-43.571 27.392-66.304 38.349 16.845-46.643 27.238-96.358 30.106-148.122 49.766-22.477 84.48-45.568 114.074-74.854-7.578 38.349-19.661 75.878-36.25 111.872zM502.426-51.098c98.458-1.894 197.376 25.088 282.829 81.050 1.126 0.717 2.202 1.485 3.328 2.202 5.325 3.584 10.598 7.27 15.821 11.059 1.638 1.178 3.277 2.355 4.864 3.584 4.762 3.533 9.421 7.168 14.080 10.906 1.792 1.434 3.584 2.816 5.325 4.25 4.71 3.891 9.37 7.885 13.978 11.981 1.485 1.28 2.97 2.56 4.403 3.84l-127.949 128.051c-86.067-79.411-198.81-130.253-323.277-137.677 29.798-58.163 60.57-87.040 106.598-119.245z" />
<glyph unicode="&#xe96c;" glyph-name="times-round-63" d="M864.973 94.72c194.97 195.123 194.97 511.488 0 706.611-23.347 23.347-48.486 43.827-74.854 61.594 52.531-79.616 83.2-174.899 83.2-277.453 0-278.477-225.587-504.218-503.808-504.218-95.693 0-185.088 26.778-261.325 73.165 15.155-20.838 31.949-40.909 50.739-59.75 194.97-195.072 511.078-195.072 706.048 0.051z" />
<glyph unicode="&#xe96d;" glyph-name="times-round-64" d="M805.786 161.894c132.557 132.659 185.139 323.891 203.93 486.861l-3.789 3.789c-31.437-122.624-86.886-246.528-182.579-342.272-182.886-183.040-468.582-219.034-651.776-221.030l132.915-133.018c165.99 17.306 364.698 68.966 501.299 205.67zM18.842-45.568c35.738-3.482 118.323-9.472 220.621-3.533l-139.11 139.162c-39.68 1.434-70.144 4.096-87.552 5.888-0.307-64.87 3.482-115.558 6.042-141.517z" />
<glyph unicode="&#xe96e;" glyph-name="times-round-65" d="M525.67-50.995c1.638 0.051 3.226 0.102 4.813 0.205 3.021 0.102 5.99 0.205 9.011 0.41 1.638 0.102 3.328 0.205 4.966 0.307 2.97 0.205 5.99 0.41 8.96 0.666 1.536 0.102 3.021 0.256 4.557 0.41 3.174 0.307 6.4 0.614 9.574 0.973 1.229 0.154 2.458 0.256 3.738 0.41 3.686 0.461 7.322 0.922 10.957 1.434 0.717 0.102 1.485 0.205 2.202 0.307 126.157 18.432 237.107 84.326 314.163 178.893-32.154 27.341-73.37 67.635-107.674 118.067l-34.048-19.302c-3.789-2.15-7.987-3.226-12.083-3.226-6.861 0-13.568 2.918-18.278 8.192-90.163-91.085-215.194-147.558-353.434-147.558-83.814 0-162.765 20.838-232.038 57.549-5.018-4.506-9.882-8.858-14.541-12.851 91.034-112.691 230.144-184.883 386.15-185.088 0.461 0 0.87 0 1.331 0 3.891 0.051 7.782 0.102 11.674 0.205zM787.866 861.798c28.57-43.11 50.534-90.88 64.666-141.978 15.923 16.384 31.437 30.72 45.312 42.547-31.437 38.349-68.506 71.936-109.978 99.43zM1010.534 463.514c-0.154 4.506-0.358 8.96-0.666 13.414-0.051 0.973-0.102 1.946-0.154 2.918-5.888 89.498-35.43 172.544-82.432 242.893-17.050-14.746-39.578-35.994-62.157-62.413 3.533-23.91 5.376-48.384 5.376-73.267 0-92.723-25.344-179.507-69.478-253.85 2.458-5.274 4.966-10.445 7.68-15.514l5.171 2.918c11.725 6.656 26.829 2.56 33.536-9.267s2.509-26.88-9.318-33.587l-3.789-2.15c31.539-45.619 68.608-81.357 93.594-102.912 42.342 63.846 70.4 137.933 79.616 217.702 0.102 0.768 0.154 1.536 0.256 2.304 1.229 11.315 2.099 22.733 2.611 34.253 0.051 1.382 0.102 2.714 0.154 4.096 0.205 5.427 0.307 10.906 0.307 16.384 0 2.765-0.102 5.581-0.154 8.346-0.051 2.509-0.102 5.12-0.154 7.731z" />
<glyph unicode="&#xe96f;" glyph-name="times-round-66" d="M921.754 162.458l-60.467 184.525-29.696 6.144c-60.877-117.811-166.298-208.845-293.939-250.829l166.758-115.61c88.013 36.915 163.328 98.406 217.344 175.77zM909.158 358.912l46.182-140.902c20.429 39.322 35.789 81.664 45.261 126.208 0.256 1.178 0.512 2.355 0.768 3.482 0.563 2.918 1.126 5.786 1.69 8.704 0.256 1.331 0.512 2.714 0.768 4.045 0.512 3.021 1.024 6.042 1.485 9.062 0.205 1.229 0.41 2.458 0.563 3.635 0.461 3.174 0.922 6.349 1.331 9.523 0.154 1.024 0.256 2.048 0.41 3.072 0.41 3.379 0.819 6.81 1.178 10.24 0.051 0.717 0.154 1.382 0.205 2.099 0.358 3.738 0.717 7.475 1.024 11.264 0 0.154 0 0.307 0.051 0.461 0.614 7.834 0.973 15.718 1.229 23.654l-102.144-74.547zM334.797-19.354l137.677 104.909c-30.566-5.734-62.054-8.755-94.31-8.755-99.174 0-191.693 28.416-269.978 77.466 56.73-77.824 135.219-138.803 226.611-173.619zM392.499-37.376c0.102-0.051 0.205-0.051 0.307-0.102 4.813-1.178 9.677-2.304 14.541-3.328 0.051 0 0.051 0 0.102 0 14.49-3.072 29.082-5.53 43.776-7.322 0.614-0.051 1.28-0.154 1.894-0.205 4.045-0.461 8.090-0.922 12.186-1.28 1.024-0.102 2.099-0.205 3.123-0.256 3.738-0.307 7.475-0.614 11.213-0.819 1.126-0.051 2.202-0.154 3.328-0.205 3.891-0.205 7.782-0.41 11.725-0.512 0.87-0.051 1.741-0.051 2.611-0.102 9.728-0.307 19.456-0.307 29.184 0 0.307 0 0.666 0.051 0.973 0.051 4.506 0.154 8.96 0.358 13.466 0.614 0.717 0.051 1.434 0.102 2.202 0.154 4.198 0.256 8.346 0.563 12.544 0.922 0.666 0.051 1.331 0.102 1.997 0.205 4.403 0.41 8.858 0.87 13.261 1.382 0.307 0.051 0.666 0.051 0.973 0.102 19.712 2.355 39.322 5.888 58.573 10.598 0.563 0.154 1.126 0.256 1.69 0.41 4.915 1.229 9.83 2.509 14.746 3.891l-130.406 90.419-124.006-94.618zM821.453 840.038c13.107-22.938 24.422-47.002 33.894-71.987l44.544-5.478c-23.245 28.57-49.562 54.579-78.438 77.466zM1009.357 493.261c-0.051 0.717-0.102 1.434-0.205 2.15-0.307 3.379-0.666 6.758-1.075 10.086-0.154 1.126-0.256 2.253-0.41 3.43-0.563 4.454-1.126 8.909-1.792 13.363 0 0 0 0.051 0 0.051-10.035 67.174-33.485 130.048-67.533 185.754l-66.56 8.192c10.701-41.165 16.486-84.378 16.486-128.922 0-66.509-12.698-129.997-35.789-188.262l21.965-4.557 134.912 98.714z" />
<glyph unicode="&#xe970;" glyph-name="times-round-67" d="M969.523 156.928c76.8 74.24 43.827 239.36-68.915 407.347-15.565-160.358-95.59-301.824-213.862-398.080 118.733-57.139 225.229-64.922 282.778-9.267zM544.205-33.434c23.757-8.346 48.23-14.694 73.062-18.944 22.118-3.84 44.595-5.222 66.97-4.096 19.866 1.024 39.475 5.018 58.214 11.776 8.755 3.226 17.203 7.27 25.293 11.981 7.936 4.659 15.411 10.086 22.374 16.179l159.846 154.522c-52.48-50.125-139.674-58.112-245.453-22.579-18.586 6.963-36.813 14.694-54.784 22.938-73.677-50.944-159.59-85.402-252.467-98.15 22.528-14.694 45.773-28.262 69.734-40.55 24.986-12.749 50.79-23.808 77.21-33.075z" />
<glyph unicode="&#xe971;" glyph-name="times-round-68" horiz-adv-x="897" d="M831.795 657.203c-12.493 13.926-27.546 25.498-44.237 34.048-0.051 0-0.051 0.051-0.102 0.051-13.466 6.963-21.76 10.189-33.28 14.080-4.198 1.434-6.4 2.048-9.523 2.97-6.246 1.792-12.698 3.482-19.302 4.966-6.656 1.485-13.466 2.765-20.48 3.891-26.573 4.045-53.402 6.042-80.282 5.837h-243.251c-19.098 0-35.379-13.926-38.349-32.819l-51.763-327.834v-0.154l-1.485-9.421c0 0.051 0 0.051 0.051 0.102l-45.926-291.174-0.717-4.454-13.056-83.814c-2.048-12.749 6.656-24.627 19.354-26.675 1.178-0.154 2.406-0.256 3.584-0.256h161.536c19.098 0 35.379 13.875 38.349 32.768l1.587 8.192 30.413 192.922 1.997 10.598c2.918 18.944 19.2 32.87 38.349 32.819h24.166c156.467 0 278.938 63.539 314.778 247.347 14.899 76.8 7.168 140.902-32.41 186.010z" />
<glyph unicode="&#xe972;" glyph-name="times-round-69" d="M259.686 306.842c-23.398 80.691-57.19 134.861-92.109 171.418-41.83-124.262-33.638-262.246 27.136-382.925 46.285-15.872 95.488-25.446 146.637-27.648-25.651 55.603-50.125 130.355-81.664 239.155zM127.642 512.87c-46.336 32.614-88.269 39.168-103.219 40.448-30.925-144.589 2.458-300.339 100.454-420.659-44.851 123.648-43.162 258.714 2.765 380.211zM400.998 812.646c-29.594 45.517-39.168 87.347-42.291 110.387-65.69-21.094-127.846-56.013-181.76-104.96l93.901-93.952c39.731 36.352 83.61 65.843 130.15 88.525zM236.032 689.254l-93.901 94.003c-48.896-53.965-83.814-116.173-104.858-181.914 23.040-3.123 64.87-12.698 110.336-42.342 22.63 46.592 52.122 90.573 88.422 130.253zM827.085 835.379c-91.392 74.547-203.264 111.821-315.085 111.821-35.328 0-70.605-3.84-105.267-11.264 1.28-14.95 7.782-56.934 40.397-103.27 121.395 45.875 256.358 47.616 379.955 2.714zM639.283 653.158c-101.018 29.338-165.734 74.138-207.36 119.757-45.21-20.89-87.808-48.845-126.157-83.712l447.949-448.307c78.285 87.091 127.795 200.499 133.683 325.376-52.224 26.163-127.539 51.866-248.115 86.886zM481.69 792.678c36.506-34.97 90.675-68.762 171.264-92.16 105.574-30.618 179.046-54.63 234.086-79.462-2.918 51.763-13.312 101.478-30.106 148.122-118.784 57.395-253.594 64.461-375.245 23.501zM270.95 654.387c-34.816-38.4-62.771-81.050-83.661-126.259 45.619-41.677 90.368-106.445 119.654-207.514 35.891-123.853 62.003-199.987 88.883-252.416 124.467 7.424 237.158 58.266 323.277 137.677l-448.154 448.512z" />
<glyph unicode="&#xe973;" glyph-name="times-round-70" d="M178.534 464.128c1.485-2.509 2.56-5.376 3.021-8.397 9.523-58.778 36.659-111.923 78.438-153.754 109.67-109.722 288.154-109.773 397.824 0s109.67 288.41 0 398.182c-41.779 41.83-94.925 68.966-153.651 78.49-3.072 0.512-5.99 1.587-8.602 3.123-82.534 35.021-113.306 98.202-121.037 146.637-78.95-22.528-153.446-64.819-215.654-127.078-62.259-62.259-104.499-137.011-127.027-216.166 11.674-1.792 24.32-4.813 36.966-9.574 34.202-12.902 80.742-42.701 109.722-111.462zM873.267 585.523c0 102.554-30.669 197.837-83.2 277.453-109.722 73.83-242.176 99.379-367.718 76.595 3.891-30.874 21.606-83.456 93.696-113.408 67.277-11.776 128.154-43.315 176.282-91.494 128.717-128.819 128.717-338.381 0-467.149-64.358-64.358-148.89-96.563-233.37-96.563-84.531 0-169.062 32.205-233.37 96.563-48.128 48.128-79.667 109.107-91.443 176.486-29.901 72.090-82.432 89.754-113.306 93.696-23.859-131.482 5.376-270.592 87.296-383.232 76.186-46.387 165.581-73.165 261.325-73.165 278.272 0 503.808 225.741 503.808 504.218z" />
<glyph unicode="&#xe974;" glyph-name="times-round-71" d="M712.602 946.176c-162.816-18.893-353.894-71.475-486.451-204.134-136.653-136.755-188.314-335.514-205.619-501.658l151.091-151.194c183.091 1.997 468.838 37.99 651.725 221.082 95.693 95.693 151.091 219.699 182.579 342.272l-293.325 293.632zM658.586 485.325c-4.915-4.813-11.213-7.27-17.562-7.27-6.4 0-12.749 2.458-17.562 7.27l-26.88 26.88-52.838-52.838 26.88-26.88c9.728-9.728 9.728-25.446 0-35.277-4.915-4.813-11.213-7.27-17.562-7.27-6.4 0-12.749 2.458-17.562 7.27l-26.88 26.931-52.838-52.941 26.88-26.88c9.728-9.728 9.728-25.446 0-35.174-4.915-4.915-11.264-7.373-17.562-7.373-6.4 0-12.749 2.458-17.562 7.373l-26.88 26.88-21.299-21.094c-4.915-4.915-11.213-7.373-17.562-7.373-6.4 0-12.749 2.458-17.562 7.373-9.728 9.728-9.728 25.446 0 35.174l21.197 21.197-26.88 26.931c-9.779 9.728-9.779 25.446 0 35.174 9.728 9.728 25.446 9.728 35.174 0l26.88-26.88 52.838 52.838-26.88 26.88c-9.728 9.779-9.728 25.549 0 35.277s25.446 9.728 35.174 0l26.88-26.88 52.838 52.838-26.88 26.88c-9.728 9.728-9.728 25.446 0 35.277 9.728 9.728 25.446 9.728 35.174 0l26.88-26.931 21.197 21.248c9.728 9.728 25.446 9.728 35.174 0s9.728-25.549 0-35.277l-21.197-21.197 26.88-26.88c9.626-9.728 9.626-25.549-0.102-35.277zM1004.902 941.312c-35.84 3.533-118.784 9.779-221.030 3.891l224.922-225.075c5.837 102.4-0.358 185.344-3.891 221.184zM15.258 175.258c-1.638-28.109-2.355-54.682-2.458-79.258 17.408-1.843 47.872-4.506 87.552-5.888l-85.094 85.146z" />
<glyph unicode="&#xe975;" glyph-name="times-round-72" d="M726.477 236.749c-1.178 1.28-2.253 2.714-3.174 4.301-6.707 11.827-2.509 26.88 9.318 33.536l32.819 18.586c-20.736 39.117-35.84 82.842-39.834 130.202h-21.658c-13.619 0-24.627 11.008-24.627 24.627s11.008 24.627 24.627 24.627h21.658c3.994 47.36 19.098 91.085 39.834 130.202l-32.819 18.586c-11.827 6.707-16.026 21.709-9.318 33.587 6.707 11.827 21.76 15.923 33.536 9.267l34.048-19.302c19.302 28.365 40.755 53.402 61.594 74.854-14.131 51.046-36.096 98.867-64.666 141.978 41.421-27.494 78.49-61.082 109.978-99.379 0.256 0.205 0.512 0.461 0.768 0.666-77.107 94.618-188.109 160.461-314.317 178.893-0.614 0.102-1.229 0.154-1.792 0.256-3.789 0.512-7.578 1.024-11.366 1.485-1.126 0.154-2.253 0.256-3.379 0.41-3.328 0.358-6.656 0.717-9.984 1.024-1.382 0.102-2.765 0.256-4.198 0.358-3.123 0.256-6.298 0.461-9.421 0.666-1.485 0.102-3.021 0.205-4.506 0.307-3.226 0.154-6.451 0.307-9.677 0.41-1.382 0.051-2.765 0.102-4.198 0.154-4.454 0.102-8.909 0.205-13.414 0.205-0.102 0-0.256 0-0.358 0-0.154 0-0.256 0-0.41 0-4.454 0-8.96-0.051-13.363-0.205-1.434-0.051-2.816-0.102-4.198-0.154-3.226-0.102-6.451-0.256-9.626-0.41-1.536-0.102-3.021-0.205-4.557-0.307-3.123-0.205-6.246-0.41-9.37-0.666-1.434-0.102-2.816-0.256-4.198-0.358-3.328-0.307-6.605-0.614-9.933-1.024-1.126-0.102-2.304-0.256-3.43-0.41-3.789-0.461-7.526-0.922-11.264-1.485-0.666-0.102-1.28-0.205-1.946-0.256-126.157-18.432-237.158-84.326-314.266-178.893 32.154-27.341 73.37-67.635 107.674-118.067l34.048 19.302c11.725 6.656 26.829 2.56 33.536-9.267s2.509-26.88-9.318-33.587l-32.819-18.586c20.736-39.117 35.84-82.842 39.834-130.202h21.658c13.568 0 24.627-11.008 24.627-24.627s-11.008-24.627-24.627-24.627h-21.658c-3.994-47.36-19.149-91.085-39.834-130.202l32.819-18.586c11.827-6.707 16.026-21.709 9.318-33.536-4.557-7.987-12.851-12.493-21.453-12.493-4.096 0-8.243 1.024-12.083 3.226l-34.048 19.302c-28.979-42.598-62.822-77.875-92.058-104.294 69.274-36.659 148.224-57.549 232.038-57.549 138.24-0.102 263.322 56.371 353.434 147.456zM838.093 618.291c11.827-6.707 16.026-21.709 9.318-33.536-4.557-7.987-12.851-12.493-21.453-12.493-4.096 0-8.243 1.024-12.083 3.226l-5.171 2.918c-16.947-32.205-29.696-67.789-33.638-105.728h22.221c13.568 0 24.627-11.008 24.627-24.627s-11.008-24.627-24.627-24.627h-22.221c3.328-31.949 12.902-62.208 25.958-90.214 44.134 74.342 69.478 161.126 69.478 253.85 0 24.883-1.843 49.357-5.376 73.267-10.445-12.237-20.89-25.6-30.822-39.936l3.789-2.099zM189.696 275.558l-3.789 2.15c-11.827 6.707-16.026 21.709-9.318 33.587 6.707 11.827 21.76 15.974 33.536 9.267l5.171-2.918c16.947 32.205 29.696 67.789 33.638 105.728h-22.221c-13.619 0-24.627 11.008-24.627 24.627s11.008 24.627 24.627 24.627h22.221c-3.942 37.939-16.691 73.523-33.638 105.728l-5.171-2.918c-3.789-2.15-7.987-3.226-12.083-3.226-8.55 0-16.896 4.506-21.453 12.493-6.707 11.827-2.509 26.88 9.318 33.536l3.789 2.15c-31.539 45.619-68.608 81.357-93.594 102.912-42.291-63.795-70.298-137.83-79.565-217.498-0.102-0.87-0.205-1.792-0.307-2.662-0.614-5.734-1.178-11.469-1.638-17.306 0-0.154 0-0.358-0.051-0.512-0.41-5.325-0.666-10.752-0.922-16.128-0.051-1.485-0.102-2.97-0.154-4.454-0.205-5.376-0.307-10.803-0.307-16.23 0-0.205 0-0.358 0-0.563s0-0.358 0-0.563c0-5.427 0.102-10.854 0.307-16.23 0.051-1.485 0.102-2.97 0.154-4.454 0.205-5.376 0.512-10.752 0.922-16.077 0-0.154 0-0.358 0.051-0.512 0.461-5.786 0.973-11.52 1.638-17.254 0.102-0.87 0.205-1.792 0.307-2.662 9.216-79.667 37.274-153.702 79.565-217.498 24.986 21.555 62.054 57.293 93.594 102.861z" />
<glyph unicode="&#xe976;" glyph-name="times-round-73" d="M336.333 411.443l175.667-127.744 175.718 127.744-67.123 206.694h-217.19zM831.539 353.126l-109.158 22.528-185.702-135.066v-137.626l0.973-0.666c127.59 41.984 232.96 133.018 293.888 250.829zM299.571 900.352c-0.768-0.358-1.536-0.717-2.253-1.075-6.349-3.021-12.646-6.246-18.842-9.523-1.075-0.563-2.202-1.126-3.277-1.741-7.27-3.942-14.438-8.038-21.504-12.339-0.051 0-0.051-0.051-0.102-0.051-14.797-9.011-29.184-18.79-43.008-29.338-0.154-0.102-0.307-0.256-0.461-0.358-6.605-5.018-13.056-10.24-19.456-15.565-0.512-0.41-0.973-0.819-1.485-1.229-5.888-5.018-11.674-10.138-17.306-15.411-0.87-0.819-1.792-1.638-2.662-2.458-5.12-4.813-10.086-9.779-14.95-14.797-1.485-1.536-3.021-3.072-4.506-4.659-4.096-4.301-8.090-8.704-12.032-13.158-1.178-1.382-2.406-2.714-3.584-4.096l139.213 12.186 26.214 113.613zM472.474 85.555l14.899 11.366v143.667l-185.702 135.066-138.906-28.672-60.467-184.525c1.946-2.765 3.942-5.427 5.888-8.141 78.285-49.050 170.803-77.466 269.978-77.466 32.205 0 63.744 3.021 94.31 8.704zM762.47 880.333c-0.87 0.512-1.741 1.024-2.611 1.536-2.048 1.178-4.096 2.304-6.144 3.43l20.787-107.315 80.794-9.984c-9.472 24.986-20.787 49.050-33.894 71.987-18.586 14.797-38.298 28.314-58.931 40.346zM628.429 667.443l98.611 96.563-28.621 147.712c-21.453 8.653-43.622 15.872-66.406 21.504-0.41 0.102-0.819 0.205-1.178 0.307-7.014 1.741-14.131 3.277-21.248 4.71-1.024 0.205-2.048 0.41-3.072 0.614-6.605 1.28-13.312 2.406-20.019 3.43-1.587 0.256-3.174 0.461-4.71 0.666-6.298 0.87-12.646 1.69-18.995 2.304-1.946 0.205-3.942 0.358-5.888 0.512-5.53 0.512-11.059 0.922-16.64 1.229-2.765 0.154-5.53 0.256-8.294 0.358-5.069 0.205-10.086 0.307-15.206 0.358-1.587 0-3.123 0.051-4.71 0.051-2.406 0-4.813-0.051-7.219-0.102-2.714-0.051-5.427-0.102-8.090-0.154-3.021-0.102-6.093-0.205-9.114-0.358-4.25-0.205-8.55-0.461-12.8-0.768-2.867-0.205-5.734-0.461-8.602-0.717-3.482-0.256-6.963-0.614-10.445-1.024-2.15-0.256-4.301-0.461-6.451-0.717-5.274-0.666-10.496-1.434-15.718-2.253-1.536-0.256-3.072-0.512-4.608-0.768-12.032-2.048-23.91-4.454-35.635-7.322-0.256-0.051-0.512-0.154-0.819-0.205-12.595-3.123-25.037-6.707-37.222-10.752l-35.328-153.293 77.722-101.939h230.707zM12.8 433.562c0.205-7.885 0.614-15.77 1.229-23.603 0-0.205 0.051-0.41 0.051-0.614 0.307-3.738 0.614-7.475 0.973-11.162 0.051-0.717 0.154-1.434 0.205-2.15 0.358-3.379 0.768-6.81 1.178-10.189 0.154-1.075 0.256-2.099 0.41-3.174 0.41-3.174 0.87-6.349 1.331-9.472 0.205-1.229 0.358-2.509 0.563-3.738 0.461-3.021 0.973-5.99 1.485-9.011 0.256-1.382 0.512-2.765 0.768-4.147 0.512-2.867 1.075-5.734 1.638-8.602 0.307-1.485 0.614-2.918 0.922-4.403 0-0.051 0-0.102 0.051-0.154 3.174-14.746 6.912-29.235 11.366-43.469 0.051-0.102 0.051-0.205 0.102-0.307 8.806-28.314 20.122-55.501 33.587-81.408l46.182 140.902-102.042 74.701zM871.834 716.288l-109.312 13.466-95.898-93.901 69.018-212.634 116.787-24.115c23.091 58.266 35.789 121.754 35.789 188.262 0.102 44.595-5.683 87.757-16.384 128.922zM288.358 423.27l69.734 214.886-76.186 99.891-187.699-16.435c-35.533-54.17-60.826-115.661-73.165-181.658 0-0.102-0.051-0.256-0.051-0.358-1.843-9.882-3.379-19.866-4.608-29.952-0.102-0.973-0.205-1.997-0.358-2.97-0.461-3.738-0.819-7.475-1.178-11.213-0.051-0.768-0.154-1.485-0.205-2.253l134.861-98.662 138.854 28.723z" />
<glyph unicode="&#xe977;" glyph-name="times-round-74" d="M900.608 564.224c-32.819 48.896-72.346 97.997-117.914 145.152-202.342 209.357-446.771 301.363-545.894 205.517s-15.514-343.194 186.829-552.499c84.89-87.859 177.203-154.931 263.066-196.25 118.272 96.307 198.349 237.722 213.914 398.080zM387.994 327.936c-87.552 87.501-154.88 193.126-197.171 309.504-33.843 102.758-29.030 189.44 13.466 244.122l-126.515-122.368c-13.107-9.523-24.525-21.197-33.792-34.458-5.376-7.731-10.086-15.974-13.978-24.525-8.090-18.33-13.312-37.837-15.462-57.754-2.458-22.323-2.304-44.851 0.461-67.174 2.97-25.19 8.141-50.074 15.462-74.342 8.243-27.136 18.381-53.658 30.362-79.36 13.056-28.16 27.802-55.501 44.134-81.869 17.613-28.416 36.813-55.859 57.446-82.176 43.469-55.501 92.621-106.291 146.586-151.654 25.242-21.248 51.61-41.062 78.95-59.443 3.123-2.099 6.298-4.096 9.421-6.144 92.826 12.749 178.739 47.206 252.467 98.15-98.765 45.261-187.75 109.568-261.837 189.491z" />
<glyph unicode="&#xe978;" glyph-name="times-round-75" horiz-adv-x="897" d="M746.138 874.24c-46.182 52.634-129.741 75.213-236.595 75.213h-310.374c-21.811 0-40.448-15.872-43.827-37.478l-129.28-819.354c-2.304-14.541 7.629-28.211 22.221-30.515 1.331-0.256 2.714-0.358 4.096-0.358h191.488l45.926 291.174c-0.051-0.051-0.051-0.051-0.051-0.102l1.485 9.421h0.461c5.171 18.995 22.477 32.563 42.598 32.563h91.085c178.79 0 318.822 72.448 359.731 282.675 0.922 4.608 1.741 9.267 2.458 13.773 0.256 1.536 0.461 3.072 0.717 4.557 0 0-0.051 0-0.051 0.051 15.923 62.771 0.205 129.331-42.086 178.381z" />
<glyph unicode="&#xe979;" glyph-name="app-2" horiz-adv-x="939" d="M531.456 927.283v-108.237l-124.058-15.36v123.597c0 11.008 8.909 19.917 19.866 19.917h84.275c11.008 0 19.917-8.909 19.917-19.917zM407.398 189.85l124.058 0.051v-221.235c0-11.008-8.909-19.866-19.917-19.866h-84.275c-11.008 0-19.866 8.909-19.866 19.866v221.184zM28.467 617.779l64.87 88.474c9.062 12.339 22.63 20.531 37.734 22.784l682.189 104.755c23.501 3.584 45.414-12.493 49.050-35.994v0l21.76-141.568c3.584-23.501-12.493-45.414-35.994-49.050l-682.342-104.806c-15.104-2.406-30.515 1.331-42.854 10.394l-88.474 64.87c-12.749 9.472-15.36 27.443-5.939 40.141zM103.834 449.536h303.565v54.118l122.317 18.79v-72.96h264.55c15.258 0.051 29.952-5.99 40.755-16.742l77.363-77.619c11.264-11.162 11.366-29.338 0.205-40.55-0.051-0.051-0.154-0.154-0.205-0.205l-77.619-77.619c-10.803-10.803-25.498-16.845-40.755-16.742h-690.176c-23.757 0-43.008 19.251-43.008 43.008v143.514c0 23.706 19.251 42.957 43.008 43.008v0z" />
<glyph unicode="&#xe97a;" glyph-name="app-3" d="M403.098 506.982h-250.778c-27.597 0-49.92 22.374-49.92 49.92v250.778c0 27.597 22.374 49.92 49.92 49.92h250.778c27.597 0 49.92-22.374 49.92-49.92v-250.778c0-27.597-22.323-49.92-49.92-49.92zM871.68 506.982h-250.778c-27.597 0-49.92 22.374-49.92 49.92v250.778c0 27.597 22.374 49.92 49.92 49.92h250.778c27.597 0 49.92-22.374 49.92-49.92v-250.778c0-27.597-22.374-49.92-49.92-49.92zM403.098 38.4h-250.778c-27.597 0-49.92 22.374-49.92 49.92v250.778c0 27.597 22.374 49.92 49.92 49.92h250.778c27.597 0 49.92-22.374 49.92-49.92v-250.778c0-27.546-22.323-49.92-49.92-49.92zM871.68 38.4h-250.778c-27.597 0-49.92 22.374-49.92 49.92v250.778c0 27.597 22.374 49.92 49.92 49.92h250.778c27.597 0 49.92-22.374 49.92-49.92v-250.778c0-27.546-22.374-49.92-49.92-49.92z" />
<glyph unicode="&#xe97b;" glyph-name="baseball-2" d="M898.611 132.966c-77.056-94.566-188.006-160.461-314.163-178.893-0.717-0.102-1.485-0.205-2.202-0.307-3.635-0.512-7.27-0.973-10.957-1.434-1.229-0.154-2.458-0.307-3.738-0.41-3.174-0.358-6.349-0.666-9.574-0.973-1.485-0.154-3.021-0.307-4.557-0.41-2.97-0.256-5.939-0.461-8.909-0.666-1.69-0.102-3.328-0.205-5.018-0.307-2.97-0.154-5.99-0.256-8.96-0.358-1.638-0.102-3.226-0.154-4.864-0.205-3.891-0.102-7.782-0.154-11.725-0.154-0.41 0-0.87-0.051-1.28-0.051-156.058 0.256-295.168 72.397-386.202 185.088 4.659 3.994 9.574 8.346 14.541 12.851 29.235 26.419 63.078 61.696 92.058 104.294l34.048-19.302c3.84-2.15 7.987-3.174 12.134-3.174 8.55 0 16.896 4.506 21.402 12.493 6.707 11.827 2.56 26.88-9.318 33.536l-32.819 18.586c20.736 39.117 35.891 82.842 39.885 130.202h21.658c13.568 0 24.576 11.059 24.576 24.627 0 13.619-11.008 24.627-24.576 24.627h-21.658c-3.994 47.411-19.149 91.085-39.834 130.202l32.768 18.586c11.827 6.707 16.026 21.709 9.318 33.587-6.707 11.827-21.76 15.923-33.536 9.267l-34.048-19.302c-34.304 50.483-75.52 90.778-107.674 118.118 77.107 94.566 188.109 160.461 314.266 178.893 0.666 0.102 1.28 0.154 1.894 0.256 3.738 0.512 7.526 1.024 11.315 1.485 1.126 0.102 2.253 0.256 3.43 0.358 3.277 0.41 6.605 0.717 9.933 1.024 1.382 0.154 2.765 0.256 4.198 0.358 3.123 0.256 6.246 0.512 9.37 0.717 1.536 0.051 3.072 0.205 4.557 0.256 3.226 0.205 6.4 0.307 9.626 0.41 1.434 0.051 2.816 0.154 4.25 0.154 4.454 0.154 8.909 0.205 13.363 0.205h0.768c4.506 0 8.96-0.051 13.466-0.205 1.382 0 2.765-0.102 4.147-0.154 3.226-0.102 6.451-0.205 9.677-0.41 1.536-0.051 3.021-0.205 4.506-0.256 3.174-0.205 6.298-0.461 9.472-0.717 1.382-0.102 2.765-0.205 4.147-0.358 3.328-0.307 6.656-0.614 9.984-1.024 1.126-0.102 2.253-0.256 3.379-0.358 3.789-0.461 7.578-0.973 11.366-1.485 0.614-0.102 1.229-0.154 1.792-0.256 126.208-18.432 237.21-84.326 314.317-178.893-0.256-0.205-0.512-0.461-0.768-0.666-13.875-11.827-29.389-26.163-45.312-42.598-20.838-21.453-42.291-46.438-61.594-74.854l-34.048 19.302c-11.776 6.656-26.829 2.56-33.536-9.267-6.707-11.878-2.509-26.88 9.318-33.587l32.819-18.586c-20.736-39.117-35.891-82.79-39.834-130.202h-21.658c-13.619 0-24.627-11.008-24.627-24.627 0-13.568 11.008-24.627 24.627-24.627h21.658c3.942-47.36 19.098-91.085 39.834-130.202l-32.819-18.586c-11.827-6.656-16.026-21.709-9.318-33.536 0.922-1.587 1.997-2.97 3.123-4.301 4.762-5.274 11.469-8.192 18.33-8.192 4.096 0 8.243 1.024 12.083 3.174l34.048 19.302c34.304-50.432 75.52-90.726 107.674-118.067zM1010.79 447.386c0-5.478-0.102-10.906-0.307-16.384-0.051-1.331-0.102-2.714-0.154-4.045-0.461-11.52-1.331-22.938-2.611-34.253-0.051-0.768-0.154-1.536-0.256-2.304-9.216-79.77-37.274-153.856-79.565-217.702-24.986 21.555-62.054 57.293-93.594 102.912l3.738 2.099c11.878 6.707 16.026 21.76 9.318 33.587-6.707 11.878-21.76 15.974-33.485 9.318l-5.171-2.97c-2.714 5.12-5.222 10.291-7.68 15.565-13.056 28.006-22.682 58.266-25.958 90.163h22.221c13.568 0 24.576 11.059 24.576 24.627 0 13.619-11.008 24.627-24.576 24.627h-22.221c3.942 37.939 16.64 73.523 33.638 105.728l5.171-2.918c3.789-2.15 7.936-3.226 12.083-3.226 8.55 0 16.896 4.506 21.453 12.544 6.656 11.827 2.509 26.829-9.318 33.536l-3.789 2.15c9.882 14.336 20.378 27.648 30.822 39.936 22.528 26.419 45.056 47.667 62.106 62.413 47.002-70.4 76.595-153.395 82.483-242.893 0.051-0.973 0.102-1.997 0.154-2.97 0.256-4.454 0.512-8.909 0.666-13.414 0.051-2.56 0.102-5.171 0.102-7.782 0.051-2.765 0.154-5.581 0.154-8.346zM189.696 275.558l-3.789 2.15c-11.827 6.707-16.026 21.709-9.318 33.587 6.707 11.827 21.76 15.974 33.536 9.267l5.171-2.918c16.947 32.205 29.696 67.789 33.638 105.728h-22.221c-13.619 0-24.627 11.008-24.627 24.627s11.008 24.627 24.627 24.627h22.221c-3.942 37.939-16.691 73.523-33.638 105.728l-5.171-2.918c-3.789-2.15-7.987-3.226-12.083-3.226-8.55 0-16.896 4.506-21.453 12.493-6.707 11.827-2.509 26.88 9.318 33.536l3.789 2.15c-31.539 45.619-68.608 81.357-93.594 102.912-42.291-63.795-70.298-137.83-79.565-217.498-0.102-0.87-0.205-1.792-0.307-2.662-0.614-5.734-1.178-11.469-1.638-17.306 0-0.154 0-0.358-0.051-0.512-0.41-5.325-0.666-10.752-0.922-16.128-0.051-1.485-0.102-2.97-0.154-4.454-0.205-5.376-0.307-10.803-0.307-16.23 0-0.205 0-0.358 0-0.563s0-0.358 0-0.563c0-5.427 0.102-10.854 0.307-16.23 0.051-1.485 0.102-2.97 0.154-4.454 0.205-5.376 0.512-10.752 0.922-16.077 0-0.154 0-0.358 0.051-0.512 0.461-5.786 0.973-11.52 1.638-17.254 0.102-0.87 0.205-1.792 0.307-2.662 9.216-79.667 37.274-153.702 79.565-217.498 24.986 21.555 62.054 57.293 93.594 102.861z" />
<glyph unicode="&#xe97c;" glyph-name="basketball-2" d="M413.901-41.574c-38.144 7.578-75.622 19.61-111.462 36.198-1.024 0.461-2.048 0.973-3.072 1.485-5.478 2.56-10.854 5.222-16.23 7.987-3.43 1.792-6.81 3.584-10.138 5.478-2.918 1.536-5.786 3.123-8.653 4.762-4.608 2.662-9.216 5.427-13.773 8.243-1.485 0.922-2.97 1.843-4.403 2.765-5.376 3.379-10.752 6.861-16.026 10.496-0.256 0.154-0.461 0.358-0.717 0.512-13.107 19.046-24.576 38.81-34.714 58.982-60.774 120.678-68.966 258.714-27.136 382.925 34.918-36.557 68.71-90.726 92.109-171.418 31.539-108.8 56.013-183.552 81.664-239.155 21.709-47.206 44.237-80.64 72.55-109.261zM127.642 512.87c-46.336 32.614-88.269 39.168-103.219 40.448-30.925-144.589 2.458-300.339 100.454-420.659-44.851 123.648-43.162 258.714 2.765 380.211zM400.998 812.646c-29.594 45.517-39.168 87.347-42.291 110.387-65.69-21.094-127.846-56.013-181.76-104.96l93.901-93.952c39.731 36.352 83.61 65.843 130.15 88.525zM236.032 689.254l-93.901 94.003c-48.896-53.965-83.814-116.173-104.858-181.914 23.040-3.123 64.87-12.698 110.336-42.342 22.63 46.592 52.122 90.573 88.422 130.253zM827.085 835.379c-91.392 74.547-203.264 111.821-315.085 111.821-35.328 0-70.605-3.84-105.267-11.264 1.28-14.95 7.782-56.934 40.397-103.27 121.395 45.875 256.358 47.616 379.955 2.714zM929.638 174.438c-0.666-1.075-1.382-2.15-2.099-3.174-3.584-5.376-7.322-10.701-11.11-15.974-1.178-1.638-2.355-3.226-3.533-4.864-3.533-4.762-7.168-9.421-10.906-14.080-1.434-1.792-2.816-3.584-4.25-5.376-3.891-4.71-7.885-9.318-11.981-13.926-1.28-1.434-2.56-2.97-3.891-4.403l-576.102 576.563c38.349 34.867 80.947 62.822 126.157 83.712 41.626-45.619 106.342-90.419 207.36-119.757 120.576-34.97 195.891-60.672 248.115-86.886 60.826-30.464 90.317-61.594 123.238-108.749 1.894-98.56-25.037-197.581-80.998-283.085zM1001.165 546.15c-29.594 29.286-64.307 52.378-114.074 74.854-55.040 24.832-128.563 48.845-234.086 79.462-80.64 23.398-134.758 57.242-171.315 92.211 121.651 41.011 256.461 33.894 375.296-23.552 22.733-11.008 44.954-23.654 66.304-38.349 0.154-0.256 0.307-0.512 0.512-0.717 3.584-5.274 7.014-10.547 10.394-15.872 1.024-1.587 1.997-3.174 2.97-4.762 2.714-4.454 5.376-8.909 7.987-13.414 1.741-3.072 3.482-6.195 5.171-9.318s3.379-6.246 5.018-9.421c3.021-5.786 5.939-11.622 8.704-17.562 0.256-0.563 0.563-1.126 0.819-1.69 16.589-35.994 28.672-73.574 36.301-111.872zM847.053 77.773c-1.434-1.331-2.918-2.56-4.403-3.84-4.608-4.096-9.216-8.141-13.926-11.981-1.792-1.485-3.584-2.867-5.325-4.301-4.659-3.686-9.37-7.373-14.080-10.906-1.638-1.178-3.277-2.355-4.915-3.533-5.222-3.789-10.496-7.526-15.821-11.059-1.126-0.768-2.202-1.485-3.328-2.202-85.453-55.962-184.32-82.944-282.829-81.050-46.029 32.205-76.8 61.133-106.598 119.296-26.88 52.378-52.992 128.563-88.883 252.365-29.286 101.12-74.086 165.888-119.654 207.565 20.89 45.21 48.845 87.859 83.661 126.259l576.102-576.614z" />
<glyph unicode="&#xe97d;" glyph-name="football-2" d="M1005.926 652.544v0.051l-293.325 293.581c-162.867-18.893-353.946-71.475-486.451-204.134-136.653-136.755-188.314-335.514-205.619-501.658l284.006-284.211c165.939 17.357 364.646 69.018 501.248 205.722 132.557 132.71 185.088 323.891 203.93 486.912l-3.789 3.738zM658.586 485.376c-4.864-4.813-11.162-7.27-17.562-7.27s-12.8 2.458-17.613 7.27l-26.829 26.829-52.838-52.838 26.829-26.829c9.728-9.728 9.728-25.498 0-35.277-4.864-4.813-11.213-7.27-17.562-7.27-6.4 0-12.8 2.458-17.613 7.27l-26.829 26.931-52.838-52.941 26.829-26.829c9.728-9.728 9.728-25.446 0-35.174-4.915-4.915-11.264-7.373-17.562-7.373-6.4 0-12.8 2.458-17.613 7.373l-26.829 26.829-21.197-21.146c-4.915-4.915-11.213-7.373-17.562-7.373-6.4 0-12.8 2.458-17.613 7.373-9.728 9.728-9.728 25.446 0 35.174l21.197 21.146-26.88 26.982c-9.779 9.677-9.779 25.446 0 35.174 9.728 9.677 25.446 9.677 35.174 0l26.88-26.88 52.838 52.838-26.88 26.88c-9.728 9.779-9.728 25.549 0 35.226 9.728 9.728 25.446 9.728 35.174 0l26.88-26.829 52.838 52.838-26.88 26.88c-9.728 9.677-9.728 25.446 0 35.226 9.728 9.728 25.446 9.728 35.174 0l26.88-26.931 21.146 21.248c9.728 9.728 25.446 9.728 35.174 0s9.728-25.549 0-35.277l-21.146-21.146 26.829-26.88c9.728-9.677 9.728-25.549 0-35.226zM1004.902 941.312c-35.84 3.533-118.784 9.779-221.030 3.891l224.922-225.075c5.837 102.4-0.358 185.344-3.891 221.184zM239.411-49.101c-102.298-5.888-184.832 0.102-220.57 3.584-2.56 25.907-6.349 76.595-6.042 141.517 0.154 24.576 0.87 51.149 2.458 79.258l224.154-224.358z" />
<glyph unicode="&#xe97e;" glyph-name="hockey-2" d="M969.523 156.928c-57.549-55.603-164.045-47.872-282.778 9.267-85.914 41.267-178.176 108.339-263.117 196.198-202.291 209.306-285.952 456.704-186.829 552.55 99.123 95.795 343.552 3.789 545.843-205.517 45.619-47.155 85.146-96.307 117.965-145.152 112.742-167.987 145.664-333.107 68.915-407.347zM949.965 138.035l-159.846-154.522c-6.912-6.093-14.438-11.469-22.374-16.179-8.038-4.71-16.486-8.704-25.242-11.981-18.739-6.758-38.349-10.752-58.266-11.776-22.374-1.126-44.851 0.205-66.97 4.045-24.832 4.25-49.306 10.598-73.062 18.944-26.419 9.267-52.224 20.378-77.158 33.178-23.962 12.288-47.206 25.856-69.734 40.55-3.174 2.048-6.349 4.045-9.421 6.144-27.392 18.381-53.76 38.195-79.002 59.443-53.965 45.312-103.066 96.154-146.586 151.654-20.582 26.317-39.782 53.709-57.395 82.125-16.333 26.419-31.078 53.76-44.134 81.869-11.981 25.754-22.118 52.275-30.362 79.411-7.322 24.269-12.493 49.152-15.411 74.342-2.765 22.272-2.918 44.851-0.461 67.174 2.15 19.917 7.373 39.424 15.462 57.754 3.942 8.602 8.602 16.794 13.978 24.525 9.267 13.312 20.685 24.986 33.792 34.509l126.566 122.317c-42.547-54.682-47.36-141.363-13.517-244.122 42.291-116.326 109.619-222.003 197.171-309.504 74.086-79.872 163.072-144.179 261.734-189.542 17.971-8.243 36.198-15.923 54.784-22.886 105.779-35.584 192.973-27.597 245.453 22.528z" />
<glyph unicode="&#xe97f;" glyph-name="tennis-2" d="M178.534 464.128c1.485-2.509 2.56-5.376 3.021-8.397 9.523-58.778 36.659-111.923 78.438-153.754 109.67-109.722 288.154-109.773 397.824 0s109.67 288.41 0 398.182c-41.779 41.83-94.925 68.966-153.651 78.49-3.072 0.512-5.99 1.587-8.602 3.123-82.534 35.021-113.306 98.202-121.037 146.637-78.95-22.528-153.446-64.819-215.654-127.078-62.259-62.259-104.499-137.011-127.027-216.166 11.674-1.792 24.32-4.813 36.966-9.574 34.202-12.902 80.742-42.701 109.722-111.462zM864.973 94.771c-194.97-195.174-511.078-195.174-706.048 0-18.842 18.79-35.584 38.861-50.79 59.699-81.92 112.691-111.155 251.75-87.296 383.232 30.874-3.891 83.405-21.606 113.306-93.696 11.725-67.43 43.315-128.358 91.443-176.486 64.358-64.41 148.838-96.614 233.37-96.563 84.48 0 169.062 32.154 233.37 96.563 128.717 128.768 128.717 338.33 0 467.149-48.128 48.179-109.005 79.77-176.282 91.494-72.090 29.952-89.754 82.534-93.696 113.408 125.542 22.784 257.997-2.765 367.77-76.595 26.368-17.766 51.507-38.246 74.854-61.594 194.97-195.123 194.97-511.488 0-706.611z" />
<glyph unicode="&#xe980;" glyph-name="soccer-2" d="M336.333 411.443l175.667-127.744 175.718 127.744-67.123 206.694h-217.19zM921.754 162.509c-54.016-77.414-129.331-138.854-217.395-175.77l-167.731 116.224v137.677l185.754 135.014 138.854-28.672 60.518-184.474zM299.571 900.352c-0.768-0.358-1.536-0.717-2.253-1.075-6.349-3.021-12.646-6.246-18.842-9.523-1.075-0.563-2.202-1.126-3.277-1.741-7.27-3.942-14.438-8.038-21.504-12.339-0.051 0-0.051-0.051-0.102-0.051-14.797-9.011-29.184-18.79-43.008-29.338-0.154-0.102-0.307-0.256-0.461-0.358-6.605-5.018-13.056-10.24-19.456-15.565-0.512-0.41-0.973-0.819-1.485-1.229-5.888-5.018-11.674-10.138-17.306-15.411-0.87-0.819-1.792-1.638-2.662-2.458-5.12-4.813-10.086-9.779-14.95-14.797-1.485-1.536-3.021-3.072-4.506-4.659-4.096-4.301-8.090-8.704-12.032-13.158-1.178-1.382-2.406-2.714-3.584-4.096l139.213 12.186 26.214 113.613zM487.373 240.64v-143.667l-152.576-116.326c-91.392 34.816-169.882 95.795-226.611 173.67-1.946 2.714-3.994 5.427-5.888 8.141l60.467 184.525 138.906 28.672 185.702-135.014zM899.891 762.573l-125.389 15.411-20.787 107.315c2.048-1.126 4.096-2.253 6.144-3.43 0.87-0.461 1.741-1.024 2.611-1.536 20.634-12.032 40.346-25.549 58.982-40.294 28.877-22.886 55.194-48.845 78.438-77.466zM628.429 667.443l98.611 96.563-28.621 147.712c-21.453 8.653-43.622 15.872-66.406 21.504-0.41 0.102-0.819 0.205-1.178 0.307-7.014 1.741-14.131 3.277-21.248 4.71-1.024 0.205-2.048 0.41-3.072 0.614-6.605 1.28-13.312 2.406-20.019 3.43-1.587 0.256-3.174 0.461-4.71 0.666-6.298 0.87-12.646 1.69-18.995 2.304-1.946 0.205-3.942 0.358-5.888 0.512-5.53 0.512-11.059 0.922-16.64 1.229-2.765 0.154-5.53 0.256-8.294 0.358-5.069 0.205-10.086 0.307-15.206 0.358-1.587 0-3.123 0.051-4.71 0.051-2.406 0-4.813-0.051-7.219-0.102-2.714-0.051-5.427-0.102-8.090-0.154-3.021-0.102-6.093-0.205-9.114-0.358-4.25-0.205-8.55-0.461-12.8-0.768-2.867-0.205-5.734-0.461-8.602-0.717-3.482-0.256-6.963-0.614-10.445-1.024-2.15-0.256-4.301-0.461-6.451-0.717-5.274-0.666-10.496-1.434-15.718-2.253-1.536-0.256-3.072-0.512-4.608-0.768-12.032-2.048-23.91-4.454-35.635-7.322-0.256-0.051-0.512-0.154-0.819-0.205-12.595-3.123-25.037-6.707-37.222-10.752l-35.328-153.293 77.722-101.939h230.707zM12.8 433.562c0.205-7.885 0.614-15.77 1.229-23.603 0-0.205 0.051-0.41 0.051-0.614 0.307-3.738 0.614-7.475 0.973-11.162 0.051-0.717 0.154-1.434 0.205-2.15 0.358-3.379 0.768-6.81 1.178-10.189 0.154-1.075 0.256-2.099 0.41-3.174 0.41-3.174 0.87-6.349 1.331-9.472 0.205-1.229 0.358-2.509 0.563-3.738 0.461-3.021 0.973-5.99 1.485-9.011 0.256-1.382 0.512-2.765 0.768-4.147 0.512-2.867 1.075-5.734 1.638-8.602 0.307-1.485 0.614-2.918 0.922-4.403 0-0.051 0-0.102 0.051-0.154 3.174-14.746 6.912-29.235 11.366-43.469 0.051-0.102 0.051-0.205 0.102-0.307 8.806-28.314 20.122-55.501 33.587-81.408l46.182 140.902-102.042 74.701zM1009.357 493.312l-134.861-98.714-138.803 28.672-69.069 212.634 95.846 93.901 175.923-21.709c34.048-55.706 57.446-118.528 67.533-185.702 0-0.051 0-0.051 0-0.051 0.666-4.454 1.229-8.909 1.792-13.363 0.154-1.126 0.256-2.304 0.41-3.43 0.358-3.328 0.717-6.707 1.024-10.086 0.102-0.717 0.154-1.434 0.205-2.15zM909.158 358.912l46.182-140.902c20.429 39.322 35.789 81.664 45.261 126.208 0.256 1.178 0.512 2.355 0.768 3.482 0.563 2.918 1.126 5.786 1.69 8.704 0.256 1.331 0.512 2.714 0.768 4.045 0.512 3.021 1.024 6.042 1.485 9.062 0.205 1.229 0.41 2.458 0.563 3.635 0.461 3.174 0.922 6.349 1.331 9.523 0.154 1.024 0.256 2.048 0.41 3.072 0.41 3.379 0.819 6.81 1.178 10.24 0.051 0.717 0.154 1.382 0.205 2.099 0.358 3.738 0.717 7.475 1.024 11.264 0 0.154 0 0.307 0.051 0.461 0.614 7.834 0.973 15.718 1.229 23.654l-102.144-74.547zM392.499-37.376c0.102-0.051 0.205-0.051 0.307-0.102 4.813-1.178 9.677-2.304 14.541-3.328 0.051 0 0.051 0 0.102 0 14.49-3.072 29.082-5.53 43.776-7.322 0.614-0.051 1.28-0.154 1.894-0.205 4.045-0.461 8.090-0.922 12.186-1.28 1.024-0.102 2.099-0.205 3.123-0.256 3.738-0.307 7.475-0.614 11.213-0.819 1.126-0.051 2.202-0.154 3.328-0.205 3.891-0.205 7.782-0.41 11.725-0.512 0.87-0.051 1.741-0.051 2.611-0.102 9.728-0.307 19.456-0.307 29.184 0 0.307 0 0.666 0.051 0.973 0.051 4.506 0.154 8.96 0.358 13.466 0.614 0.717 0.051 1.434 0.102 2.202 0.154 4.198 0.256 8.346 0.563 12.544 0.922 0.666 0.051 1.331 0.102 1.997 0.205 4.403 0.41 8.858 0.87 13.261 1.382 0.307 0.051 0.666 0.051 0.973 0.102 19.712 2.355 39.322 5.888 58.573 10.598 0.563 0.154 1.126 0.256 1.69 0.41 4.915 1.229 9.83 2.509 14.746 3.891l-130.406 90.419-124.006-94.618zM288.358 423.27l69.734 214.886-76.186 99.891-187.699-16.435c-35.533-54.17-60.826-115.661-73.165-181.658 0-0.102-0.051-0.256-0.051-0.358-1.843-9.882-3.379-19.866-4.608-29.952-0.102-0.973-0.205-1.997-0.358-2.97-0.461-3.738-0.819-7.475-1.178-11.213-0.051-0.768-0.154-1.485-0.205-2.253l134.861-98.662 138.854 28.723z" />
<glyph unicode="&#xe981;" glyph-name="arrange-1" d="M739.584 189.901v734.31c0 12.698 10.291 22.989 22.989 22.989h84.070c12.698 0 22.989-10.291 22.989-22.989v-734.31c0-12.698 10.291-22.989 22.989-22.989h84.070c20.48 0 30.771-24.781 16.282-39.27l-172.083-172.083c-8.96-8.96-23.552-8.96-32.512 0l-172.032 172.083c-14.49 14.49-4.198 39.27 16.282 39.27h84.019c12.646-0.051 22.938 10.24 22.938 22.989zM586.547 361.933h-539.29c-12.698 0-22.989-10.291-22.989-22.989v-84.070c0-12.698 10.291-22.989 22.989-22.989h539.29c12.698 0 22.989 10.291 22.989 22.989v84.070c0 12.698-10.291 22.989-22.989 22.989zM586.547 557.005h-409.139c-12.698 0-22.989-10.291-22.989-22.989v-84.070c0-12.698 10.291-22.989 22.989-22.989h409.139c12.698 0 22.989 10.291 22.989 22.989v84.070c0 12.698-10.291 22.989-22.989 22.989zM586.547 752.077h-279.142c-12.698 0-22.989-10.291-22.989-22.989v-84.070c0-12.698 10.291-22.989 22.989-22.989h279.091c12.698 0 22.989 10.291 22.989 22.989v84.070c0.051 12.698-10.24 22.989-22.938 22.989zM586.547 947.149h-149.094c-12.698 0-22.989-10.291-22.989-22.989v-83.968c0-12.698 10.291-22.989 22.989-22.989h149.043c12.698 0 22.989 10.291 22.989 22.989v83.917c0.051 12.698-10.24 23.040-22.938 23.040z" />
<glyph unicode="&#xe982;" glyph-name="arrange-2" d="M739.584 706.099v-734.31c0-12.698 10.291-22.989 22.989-22.989h84.070c12.698 0 22.989 10.291 22.989 22.989v734.31c0 12.698 10.291 22.989 22.989 22.989h84.070c20.48 0 30.771 24.781 16.282 39.27l-172.134 172.083c-8.96 8.96-23.552 8.96-32.512 0l-172.032-172.083c-14.49-14.49-4.198-39.27 16.282-39.27h84.019c12.698 0.051 22.989-10.24 22.989-22.989zM586.547 84.685h-539.29c-12.698 0-22.989-10.291-22.989-22.989v-84.070c0-12.698 10.291-22.989 22.989-22.989h539.29c12.698 0 22.989 10.291 22.989 22.989v84.070c0 12.698-10.291 22.989-22.989 22.989zM586.547 279.757h-409.139c-12.698 0-22.989-10.291-22.989-22.989v-84.070c0-12.698 10.291-22.989 22.989-22.989h409.139c12.698 0 22.989 10.291 22.989 22.989v84.070c0 12.698-10.291 22.989-22.989 22.989zM586.547 474.829h-279.142c-12.698 0-22.989-10.291-22.989-22.989v-84.070c0-12.698 10.291-22.989 22.989-22.989h279.091c12.698 0 22.989 10.291 22.989 22.989v84.070c0.051 12.698-10.24 22.989-22.938 22.989zM586.547 669.901h-149.094c-12.698 0-22.989-10.291-22.989-22.989v-83.968c0-12.698 10.291-22.989 22.989-22.989h149.043c12.698 0 22.989 10.291 22.989 22.989v83.968c0.051 12.698-10.24 22.989-22.938 22.989z" />
<glyph unicode="&#xe983;" glyph-name="times" d="M996.813 187.802c17.408-16.896 18.79-45.722 3.123-64.461-0.973-1.178-1.997-2.304-3.123-3.328l-157.952-157.030c-19.251-18.739-48.589-18.739-67.84 0l-259.277 261.683-259.635-261.683c-19.251-18.739-48.589-18.739-67.84 0l-157.44 157.542c-17.408 16.896-18.79 45.722-3.123 64.461 0.973 1.178 1.997 2.304 3.123 3.328l261.683 259.277-261.683 259.994c-17.408 16.896-18.79 45.722-3.123 64.461 0.973 1.178 1.997 2.304 3.123 3.328l157.952 157.645c19.251 18.739 48.589 18.739 67.84 0l259.277-262.042 259.635 261.683c19.251 18.739 48.589 18.739 67.84 0l157.85-158.157c17.408-16.896 18.79-45.722 3.123-64.461-0.973-1.178-1.997-2.304-3.123-3.328l-262.4-259.072 261.99-259.84z" />
<glyph unicode="&#xe984;" glyph-name="times-round" d="M512 947.2c-275.763 0-499.2-223.386-499.2-499.2s223.437-499.2 499.2-499.2 499.2 223.437 499.2 499.2-223.437 499.2-499.2 499.2zM756.787 316.928c8.806-8.499 9.472-23.091 1.587-32.512-0.512-0.614-1.024-1.126-1.587-1.69l-79.718-79.258c-9.728-9.472-24.525-9.472-34.202 0l-130.867 132.045-131.072-132.045c-9.728-9.472-24.525-9.472-34.202 0l-79.514 79.514c-8.806 8.499-9.472 23.091-1.587 32.512 0.512 0.614 1.024 1.126 1.587 1.69l132.096 130.816-132.096 131.277c-8.806 8.499-9.472 23.091-1.587 32.512 0.512 0.614 1.024 1.126 1.587 1.69l79.718 79.565c9.728 9.472 24.525 9.472 34.202 0l130.867-132.301 131.021 132.045c9.728 9.472 24.525 9.472 34.202 0l79.667-79.821c8.806-8.499 9.472-23.091 1.587-32.512-0.512-0.614-1.024-1.126-1.587-1.69l-132.352-130.765 132.25-131.072z" />
<glyph unicode="&#xe985;" glyph-name="check" d="M351.898 90.47l-324.454 324.403c-19.507 19.507-19.507 51.098 0 70.554 0 0 0 0 0 0l70.605 70.605c19.507 19.507 51.098 19.507 70.605 0l218.573-218.522 468.173 468.019c19.507 19.507 51.098 19.507 70.605 0l70.605-70.554c19.507-19.507 19.507-51.098 0-70.554 0 0 0 0 0 0l-574.106-573.952c-19.507-19.507-51.098-19.507-70.605 0z" />
<glyph unicode="&#xe986;" glyph-name="check-round" d="M511.949 947.2c-275.712 0-499.149-223.386-499.149-499.149 0-275.814 223.437-499.251 499.149-499.251 275.763 0 499.251 223.437 499.251 499.251 0 275.763-223.437 499.149-499.251 499.149zM809.472 581.069l-352.307-352.256c-11.981-11.93-31.386-11.93-43.366 0l-199.117 199.066c-11.981 11.981-11.981 31.386 0 43.315l43.315 43.315c11.981 11.981 31.386 11.981 43.315 0l134.195-134.093 287.334 287.232c11.93 11.981 31.334 11.981 43.315 0l43.315-43.315c11.981-11.93 11.981-31.334 0-43.264z" />
<glyph unicode="&#xe987;" glyph-name="check-round-round" d="M512.102 111.923c-183.808 0-332.8 148.992-332.8 332.8s148.992 332.8 332.8 332.8 332.8-148.992 332.8-332.8c-0.154-183.706-149.043-332.595-332.8-332.8zM342.784 481.075c-5.939 0.051-11.674-2.304-15.872-6.554l-31.386-31.539c-4.147-4.096-6.554-9.677-6.554-15.514-0.051-6.042 2.304-11.827 6.554-16.077l144.794-144.794c4.198-4.198 9.933-6.554 15.872-6.502 5.888-0.051 11.571 2.304 15.718 6.502l256.461 256.41c8.704 8.55 8.755 22.579 0.205 31.232-0.051 0.051-0.154 0.154-0.205 0.205l-31.386 31.539c-4.198 4.198-9.933 6.554-15.872 6.502-5.888 0.051-11.571-2.304-15.718-6.502l-209.254-209.152-97.587 97.638c-4.147 4.25-9.83 6.656-15.77 6.605zM512-53.606c-275.251 0-499.2 223.949-499.2 499.2s223.949 499.2 499.2 499.2 499.2-223.949 499.2-499.2-223.949-499.2-499.2-499.2zM512 903.219c-252.314 0-457.626-205.261-457.626-457.626s205.261-457.626 457.626-457.626 457.626 205.261 457.626 457.626-205.312 457.626-457.626 457.626z" />
<glyph unicode="&#xe988;" glyph-name="plus" d="M646.4 2.202c0.307-20.531-16.128-38.605-36.71-40.397-1.28-0.102-2.56-0.154-3.84-0.154l-188.467 0.563c-22.733 0.307-40.294 17.869-40.602 40.602l1.434 311.706-311.962-1.229c-22.733 0.307-40.294 17.869-40.602 40.602v188.518c-0.307 20.531 16.128 38.605 36.71 40.397 1.28 0.102 2.56 0.154 3.84 0.154l311.757-1.434-0.973 312.218c-0.307 20.531 16.128 38.605 36.71 40.397 1.28 0.102 2.56 0.154 3.84 0.154l188.826-0.205c22.733-0.307 40.294-17.869 40.602-40.602l-1.638-311.962 311.962 1.229c22.733-0.307 40.294-17.869 40.602-40.602l-0.205-189.133c0.307-20.531-16.128-38.605-36.71-40.397-1.28-0.102-2.56-0.154-3.84-0.154l-312.064 1.997 1.331-312.269z" />
<glyph unicode="&#xe989;" glyph-name="plus-round" d="M864.973 801.024c-194.97 194.97-510.925 195.021-705.946 0s-195.021-510.976-0.051-705.997 511.027-195.021 705.997 0 195.021 510.976 0 705.997zM592.384 182.221c0.205-12.237-9.626-23.040-21.914-24.115-0.768-0.051-1.536-0.102-2.304-0.102l-112.384 0.307c-13.568 0.205-24.013 10.65-24.218 24.218l0.87 185.907-186.010-0.717c-13.568 0.205-24.013 10.65-24.218 24.218v112.435c-0.205 12.237 9.626 23.040 21.914 24.115 0.768 0.051 1.536 0.102 2.304 0.102l185.907-0.87-0.563 186.163c-0.205 12.237 9.626 23.040 21.914 24.115 0.768 0.051 1.536 0.102 2.304 0.102l112.589-0.102c13.568-0.205 24.013-10.65 24.218-24.218l-0.973-186.061 186.010 0.717c13.568-0.205 24.013-10.65 24.218-24.218l-0.102-112.794c0.205-12.237-9.626-23.040-21.914-24.115-0.768-0.051-1.536-0.102-2.304-0.102l-186.112 1.178 0.768-186.163z" />
<glyph unicode="&#xe98a;" glyph-name="exclam" horiz-adv-x="405" d="M202.803-47.667c-68.557 0-124.058 55.501-124.058 123.955 0 68.557 55.501 124.058 124.058 124.058 68.557-0.102 123.955-55.603 123.955-124.058s-55.552-123.955-123.955-123.955zM282.726 943.667h-160c-23.142 0-41.933-18.79-41.933-41.933l14.438-554.138c0-23.142 18.79-41.933 41.933-41.933h131.123c23.142 0 41.933 18.79 41.933 41.933l14.438 554.138c0 23.142-18.739 41.933-41.933 41.933z" />
<glyph unicode="&#xe98b;" glyph-name="exclam-round" d="M511.949 947.2c-275.712 0-499.149-223.386-499.149-499.149 0-275.814 223.437-499.251 499.149-499.251 275.763 0 499.251 223.437 499.251 499.251 0 275.763-223.437 499.149-499.251 499.149zM455.27 799.59h113.51c16.435 0 29.747-13.312 29.747-29.747l-10.24-393.062c0-16.435-13.312-29.747-29.747-29.747h-93.030c-16.435 0-29.747 13.312-29.747 29.747l-10.24 393.062c0 16.384 13.312 29.747 29.747 29.747zM512.051 96.41c-48.64 0-88.013 39.373-88.013 87.91 0 48.64 39.373 88.013 88.013 88.013 48.64-0.051 87.91-39.424 87.91-88.013s-39.373-87.91-87.91-87.91z" />
<glyph unicode="&#xe98c;" glyph-name="question" horiz-adv-x="743" d="M353.536-51.2c-74.65 0-135.066 60.467-135.066 134.963 0 74.65 60.467 135.066 135.066 135.066 74.65-0.102 134.963-60.57 134.963-135.066 0.051-74.496-60.416-134.963-134.963-134.963zM470.528 334.387v-11.674c0-25.856-20.89-46.797-46.797-46.797h-141.005c-25.856 0-46.797 20.89-46.797 46.797v19.251c0 120.474 91.187 168.96 160.256 207.36 59.187 33.229 95.437 55.808 95.437 99.789 0 58.266-74.138 96.768-134.144 96.768-66.97-1.229-128.358-37.786-161.28-96.154-15.821-19.763-44.595-23.398-64.819-8.090l-84.122 63.642c-19.968 15.206-24.422 43.571-10.035 64.205 71.834 115.098 199.987 182.784 335.565 177.408 165.427 0 341.811-129.178 341.914-299.469 0-226.048-244.173-229.683-244.173-313.037z" />
<glyph unicode="&#xe98d;" glyph-name="question-round" d="M511.949 947.2c-275.712 0-499.149-223.386-499.149-499.149 0-275.814 223.437-499.251 499.149-499.251 275.763 0 499.251 223.437 499.251 499.251 0 275.763-223.437 499.149-499.251 499.149zM500.173 122.829c-48.64 0-88.013 39.373-88.013 87.91 0 48.64 39.373 88.013 88.013 88.013 48.64-0.051 87.91-39.424 87.91-88.013 0-48.538-39.373-87.91-87.91-87.91zM576.358 374.016v-7.629c0-16.845-13.619-30.464-30.464-30.464h-91.853c-16.845 0-30.464 13.619-30.464 30.464v12.544c0 78.49 59.392 110.029 104.397 135.066 38.554 21.658 62.157 36.352 62.157 65.024 0 37.939-48.282 63.027-87.398 63.027-43.622-0.819-83.61-24.627-105.062-62.669-10.342-12.902-29.082-15.258-42.189-5.274l-54.835 41.472c-13.005 9.933-15.923 28.365-6.554 41.83 46.797 75.008 130.304 119.091 218.624 115.558 107.776 0 222.669-84.173 222.72-195.072 0-147.251-159.078-149.606-159.078-203.878z" />
<glyph unicode="&#xe98e;" glyph-name="clock-round" d="M512 947.2c275.712 0 499.2-223.488 499.2-499.2s-223.488-499.2-499.2-499.2-499.2 223.488-499.2 499.2v0c0 275.712 223.488 499.2 499.2 499.2zM397.312 242.534l177.254 129.024c6.195 4.557 9.882 11.827 9.933 19.507v338.79c-0.051 13.312-10.803 24.115-24.166 24.166h-96.717c-13.312-0.051-24.115-10.803-24.166-24.166v-277.197l-127.795-92.979c-10.803-7.834-13.158-22.938-5.325-33.741 0-0.051 0.051-0.051 0.051-0.102l56.781-78.131c7.936-10.854 23.142-13.21 33.997-5.274 0.102 0.051 0.154 0.051 0.154 0.102z" />
<glyph unicode="&#xe98f;" glyph-name="right" horiz-adv-x="740" d="M678.605 519.731c39.629-32.205 45.619-90.419 13.414-130.048-3.994-4.915-8.499-9.421-13.414-13.414l-500.48-406.733c-39.629-32.205-97.843-26.214-130.048 13.363-13.414 16.486-20.736 37.12-20.736 58.368v813.466c0 51.046 41.37 92.467 92.416 92.467 21.248 0 41.882-7.322 58.368-20.736l500.48-406.733z" />
<glyph unicode="&#xe990;" glyph-name="left" horiz-adv-x="740" d="M61.491 376.269c-39.629 32.205-45.619 90.419-13.414 130.048 3.994 4.915 8.499 9.421 13.414 13.414l500.48 406.733c39.629 32.205 97.843 26.214 130.048-13.363 13.414-16.486 20.736-37.12 20.736-58.368v-813.466c0-51.046-41.37-92.467-92.416-92.467-21.248 0-41.882 7.322-58.368 20.736l-500.48 406.733z" />
<glyph unicode="&#xe991;" glyph-name="down" d="M583.731 139.469c-32.205-39.629-90.419-45.619-130.048-13.414-4.915 3.994-9.421 8.499-13.414 13.414l-406.733 500.429c-32.205 39.629-26.214 97.843 13.363 130.048 16.486 13.414 37.12 20.736 58.368 20.736h813.466c51.046 0 92.467-41.37 92.467-92.416 0-21.248-7.322-41.882-20.736-58.368l-406.733-500.429z" />
<glyph unicode="&#xe992;" glyph-name="up" d="M440.269 756.531c32.205 39.629 90.419 45.619 130.048 13.414 4.915-3.994 9.421-8.499 13.414-13.414l406.733-500.48c32.205-39.629 26.214-97.843-13.363-130.048-16.486-13.414-37.12-20.736-58.368-20.736h-813.466c-51.046 0-92.467 41.37-92.467 92.416 0 21.248 7.322 41.882 20.736 58.368l406.733 500.48z" />
<glyph unicode="&#xe993;" glyph-name="right-round" d="M12.8 448c0-137.882 55.859-262.656 146.227-352.973 90.317-90.368 215.142-146.227 352.973-146.227 275.712 0 499.2 223.488 499.2 499.2s-223.488 499.2-499.2 499.2c-275.712 0-499.2-223.488-499.2-499.2zM474.317 669.594l231.782-188.365c18.33-14.899 21.146-41.882 6.195-60.211-1.843-2.304-3.942-4.352-6.195-6.246l-231.782-188.314c-18.33-14.95-45.312-12.186-60.211 6.195-6.195 7.629-9.574 17.152-9.574 26.982v376.73c0 23.654 19.149 42.803 42.803 42.803 9.83 0 19.354-3.379 26.982-9.574z" />
<glyph unicode="&#xe994;" glyph-name="left-round" d="M1011.2 448c0 137.882-55.859 262.656-146.227 352.973-90.317 90.368-215.142 146.227-352.973 146.227-275.712 0-499.2-223.488-499.2-499.2s223.488-499.2 499.2-499.2c275.712 0 499.2 223.488 499.2 499.2zM549.683 226.406l-231.782 188.365c-18.33 14.899-21.146 41.882-6.195 60.211 1.843 2.304 3.942 4.352 6.195 6.246l231.782 188.314c18.33 14.95 45.312 12.186 60.211-6.195 6.195-7.629 9.574-17.152 9.574-26.982v-376.73c0-23.654-19.149-42.803-42.803-42.803-9.83 0-19.354 3.379-26.982 9.574z" />
<glyph unicode="&#xe995;" glyph-name="down-round" d="M512 947.2c-137.882 0-262.656-55.859-352.973-146.227-90.368-90.317-146.227-215.142-146.227-352.973 0-275.712 223.488-499.2 499.2-499.2s499.2 223.488 499.2 499.2c0 275.712-223.488 499.2-499.2 499.2zM733.594 485.683l-188.365-231.782c-14.899-18.33-41.882-21.146-60.211-6.195-2.304 1.843-4.352 3.942-6.246 6.195l-188.314 231.782c-14.95 18.33-12.186 45.312 6.195 60.211 7.629 6.195 17.152 9.574 26.982 9.574h376.73c23.654 0 42.803-19.149 42.803-42.803 0-9.83-3.379-19.354-9.574-26.982z" />
<glyph unicode="&#xe996;" glyph-name="up-round" d="M512-51.2c137.882 0 262.656 55.859 352.973 146.227 90.368 90.317 146.227 215.142 146.227 352.973 0 275.712-223.488 499.2-499.2 499.2s-499.2-223.488-499.2-499.2c0-275.712 223.488-499.2 499.2-499.2zM290.406 410.317l188.365 231.782c14.899 18.33 41.882 21.146 60.211 6.195 2.304-1.843 4.352-3.942 6.246-6.195l188.314-231.782c14.95-18.33 12.186-45.312-6.195-60.211-7.629-6.195-17.152-9.574-26.982-9.574h-376.73c-23.654 0-42.803 19.149-42.803 42.803 0 9.83 3.379 19.354 9.574 26.982z" />
<glyph unicode="&#xe997;" glyph-name="cog" d="M512.051-51.2c-36.966 0-73.882 3.994-109.824 11.981-25.549 5.632-43.418 27.904-43.418 54.118v69.939c-30.208 12.698-58.522 29.082-84.582 48.947l-60.518-34.918c-22.784-12.954-50.842-8.602-68.454 10.496-49.971 54.17-88.013 119.962-110.029 190.362-7.68 25.088 2.714 51.558 25.242 64.614l60.621 35.072c-4.045 32.461-4.045 65.075 0 97.536l-60.621 34.97c-22.374 12.698-33.075 39.987-25.242 64.717 21.862 70.298 59.955 136.192 110.080 190.362 17.152 18.995 46.131 23.501 68.557 10.342l60.314-34.97c26.061 19.712 54.374 35.994 84.48 48.742v69.99c0 26.214 17.869 48.486 43.469 54.118 71.782 15.974 147.712 15.974 219.546 0 25.549-5.734 43.366-28.006 43.366-54.118v-69.734c30.208-12.646 58.522-29.030 84.531-48.794l60.416 34.918c22.784 12.954 50.842 8.653 68.454-10.445 50.022-54.17 88.064-120.064 110.080-190.362 7.68-25.037-2.714-51.507-25.242-64.614l-60.672-35.072c4.045-32.461 4.045-65.075 0-97.536l69.12-41.165c16.435-14.131 23.501-36.762 17.254-58.214-22.067-71.014-60.16-136.909-110.285-191.027-17.152-18.995-46.131-23.501-68.557-10.342l-60.518 34.918c-26.061-19.661-54.323-35.994-84.429-48.742v-70.042c0-26.214-17.869-48.486-43.469-54.118-35.84-7.936-72.755-11.878-109.67-11.93zM424.602 23.296c57.395-11.571 117.504-11.571 174.848 0v107.315l21.862 7.782c38.195 13.619 73.216 33.843 104.038 60.109l17.664 15.053 92.928-53.658c39.117 43.981 69.171 96 87.603 151.552l-93.44 53.965 4.25 22.835c7.373 39.834 7.373 80.179 0 120.013l-4.25 22.835 93.082 53.76c-18.483 55.501-48.64 107.571-87.552 151.45l-92.928-53.76-17.715 15.258c-30.618 26.317-65.485 46.541-103.731 59.904l-22.016 7.731v107.264c-57.293 11.674-117.402 11.622-174.797 0v-107.366l-21.862-7.782c-38.246-13.568-73.267-33.792-104.090-60.058l-17.715-15.053-92.672 53.709c-39.066-43.981-69.12-95.949-87.552-151.45l93.082-53.76-4.198-22.835c-7.373-39.782-7.373-80.128 0-119.962l4.25-22.886-93.082-53.76c18.483-55.501 48.64-107.571 87.552-151.45l93.030 53.658 17.715-15.258c30.669-26.419 65.536-46.643 103.731-60.058l22.016-7.731v-107.366zM830.362 153.702c-0.051-0.051-0.102-0.154-0.154-0.154 0.051 0 0.102 0.102 0.154 0.154zM843.162 155.699l0.102-0.051c-0.051 0-0.102 0.051-0.102 0.051zM98.048 576.973c0-0.051 0-0.051 0-0.051s0 0 0 0.051zM93.184 588.954l0.154-0.051c-0.051 0-0.102 0.051-0.154 0.051zM180.787 740.403c0.051 0 0.051-0.051 0.051-0.051l-0.051 0.051zM193.843 742.451c-0.051-0.051-0.102-0.102-0.154-0.154 0.102 0.102 0.154 0.154 0.154 0.154zM511.898 264.96h-0.154c-101.069 0-183.296 82.227-183.296 183.296s82.227 183.296 183.296 183.296c101.069 0 183.296-82.227 183.296-183.296-0.154-100.864-82.278-183.091-183.142-183.296zM511.744 565.76c-64.819 0-117.504-52.736-117.504-117.504s52.685-117.504 117.504-117.504h0.102c64.614 0.154 117.299 52.89 117.402 117.555 0 64.717-52.685 117.453-117.504 117.453z" />
<glyph unicode="&#xe998;" glyph-name="app" horiz-adv-x="939" d="M143.667 197.018l716.749 88.883c33.075 4.096 56.627 34.253 52.48 67.379l-50.33 406.118c-4.096 33.075-34.253 56.627-67.379 52.48l-716.749-88.832c-33.075-4.096-56.627-34.253-52.48-67.379l50.33-406.118c4.096-33.126 34.253-56.627 67.379-52.531zM531.456 927.283v-108.237l-124.058-15.36v123.597c0 11.008 8.909 19.917 19.866 19.917h84.275c11.008 0 19.917-8.909 19.917-19.917zM407.398 189.85l124.058 15.411v-236.595c0-11.008-8.909-19.866-19.917-19.866h-84.275c-11.008 0-19.866 8.909-19.866 19.866v221.184z" />
<glyph unicode="&#xe999;" glyph-name="pricing" horiz-adv-x="613" d="M431.923 489.165l-207.77 60.774c-30.054 8.755-47.36 40.243-38.605 70.349 7.066 24.218 29.286 40.909 54.528 40.858h127.539c23.45 0 46.387-7.014 65.792-20.173 11.827-7.731 27.494-6.144 37.53 3.84l66.918 65.382c12.186 12.134 12.237 31.898 0.051 44.083-1.075 1.126-2.253 2.099-3.533 3.021-47.514 37.171-106.086 57.446-166.4 57.702h-128c-116.378-0.205-210.586-94.72-210.381-211.149 0-6.298 0.307-12.646 0.87-18.893 10.906-88.934 74.65-162.458 161.178-185.805l196.966-57.702c30.054-8.755 47.36-40.243 38.605-70.349-7.066-24.218-29.286-40.909-54.528-40.858h-127.334c-23.45 0-46.387 7.014-65.792 20.173-11.827 7.731-27.494 6.144-37.53-3.84l-66.918-65.382c-12.186-12.134-12.237-31.898-0.102-44.083 1.075-1.126 2.253-2.099 3.533-3.021 47.514-37.171 106.086-57.446 166.4-57.702l123.085 0.41c90.266-0.154 171.162 55.552 203.315 139.827 38.656 110.029-19.2 230.605-129.229 269.261-3.379 1.178-6.758 2.253-10.189 3.277zM244.224-36.71v89.805h124.518v-89.805c0-7.987-8.909-14.49-19.968-14.49h-84.582c-11.008 0-19.968 6.502-19.968 14.49zM368.742 932.71v-89.805h-124.518v89.805c0 7.987 8.909 14.49 19.968 14.49h84.582c11.008 0 19.968-6.502 19.968-14.49z" />
<glyph unicode="&#xe99a;" glyph-name="tag" d="M818.893 383.642l154.726 155.392c11.366 11.366 18.125 25.293 20.326 39.373l0.768 13.261 16.077 295.68c1.894 35.123-24.986 61.85-60.109 59.75l-320.154-18.842c-10.701-3.379-21.043-9.472-29.798-18.278l-566.477-568.832c-26.112-26.266-28.314-66.458-4.915-89.805l288-286.464c23.398-23.347 63.693-20.992 89.805 5.325l411.75 413.44zM947.661 883.763c14.592-14.592 14.592-38.246 0-52.89-14.643-14.643-38.298-14.643-52.941-0.051-14.643 14.643-14.643 38.298 0 52.941 14.592 14.643 38.298 14.643 52.941 0zM306.79 257.075c-29.030 29.030-29.030 76.032-0.051 105.011 29.030 29.030 76.032 29.030 105.011 0s28.928-76.032-0.051-105.011c-28.928-28.979-75.93-28.979-104.909 0zM502.17 361.523l-4.557-4.557c-10.086-10.086-26.317-10.086-36.403 0l-54.835 54.835c-10.086 10.086-10.086 26.317 0 36.403l7.475 7.475c46.848 46.848 101.12 30.208 142.899 18.33 35.942-10.086 58.778-15.411 75.878 1.69 22.682 22.682 8.806 66.458-14.541 89.805-26.522 25.549-64.614 35.226-100.096 25.293-13.824-1.536-26.419 8.243-28.314 22.067l-7.987 57.446c-1.843 13.67 7.424 26.419 21.043 28.877 72.704 16.845 148.838-6.656 199.424-61.491 64.307-64.307 82.637-183.091 16.486-249.344-87.706-87.962-184.064 5.53-216.474-26.829z" />
<glyph unicode="&#xe99b;" glyph-name="mail" d="M1003.034 708.89l-258.253-263.066c-1.843-1.792-1.946-4.71-0.154-6.554 0.051-0.051 0.102-0.102 0.154-0.154l180.736-192.461c12.134-12.237 12.134-31.949 0-44.186-12.237-12.134-31.949-12.134-44.186 0l-179.968 191.744c-1.894 1.894-5.018 1.946-6.963 0 0 0 0 0 0 0l-43.93-44.646c-36.301-37.018-85.914-57.958-137.728-58.061-52.992 0.205-103.68 21.76-140.595 59.75l-42.24 42.957c-1.894 1.894-5.018 1.946-6.963 0 0 0 0 0 0 0l-180.070-191.693c-12.237-12.134-31.949-12.134-44.186 0-12.134 12.237-12.134 31.949 0 44.186l180.787 192.563c1.638 1.946 1.638 4.813 0 6.758l-258.509 262.861c-1.741 1.894-4.762 1.997-6.656 0.256-1.024-0.922-1.536-2.253-1.485-3.584v-526.336c0.154-42.342 34.458-76.646 76.8-76.8h844.8c42.342 0.154 76.646 34.458 76.8 76.8v526.285c-0.051 2.662-2.253 4.762-4.915 4.71-1.229 0-2.406-0.512-3.277-1.331zM512.026 354.176c35.379-0.154 69.376 14.029 94.106 39.373l376.371 383.283c-13.466 10.854-30.208 16.794-47.514 16.794h-845.619c-17.306 0.051-34.099-5.888-47.514-16.794l376.371-383.283c24.678-25.242 58.522-39.424 93.798-39.373z" />
<glyph unicode="&#xe99c;" glyph-name="user" d="M512 385.587c155.085 0 280.781 125.696 280.781 280.781s-125.696 280.832-280.781 280.832-280.781-125.696-280.781-280.781c0-155.085 125.696-280.781 280.781-280.832zM761.6 323.174h-107.418c-90.266-41.677-194.253-41.677-284.518 0h-107.213c-137.83 0-249.6-111.77-249.6-249.6v-31.181c0-51.712 41.882-93.594 93.594-93.594v0h811.213c51.712 0 93.594 41.882 93.594 93.594v0 31.181c-0.051 137.882-111.821 249.6-249.651 249.6z" />
<glyph unicode="&#xe99d;" glyph-name="user-round" d="M512-51.2c-275.251 0-499.2 223.949-499.2 499.2s223.949 499.2 499.2 499.2 499.2-223.949 499.2-499.2-223.949-499.2-499.2-499.2zM512 891.75c-244.685 0-443.75-199.066-443.75-443.75s199.066-443.75 443.75-443.75 443.75 199.066 443.75 443.75-199.066 443.75-443.75 443.75zM512 441.088c86.17 0 156.006 69.837 156.006 156.006s-69.837 155.955-156.006 155.955-156.006-69.837-156.006-156.006c0-86.118 69.837-155.955 156.006-155.955zM650.65 406.426h-59.699c-50.176-23.142-107.93-23.142-158.106 0h-59.546c-76.595 0-138.65-62.106-138.65-138.65v-17.357c0-28.723 23.296-52.019 52.019-52.019v0h450.662c28.723 0 52.019 23.296 52.019 52.019v0 17.357c0 76.544-62.106 138.65-138.701 138.65z" />
<glyph unicode="&#xe99e;" glyph-name="dashboard" d="M135.731-19.098c-70.349 2.202-124.979 60.365-122.88 129.536v676.198c-2.048 68.147 52.582 126.259 121.754 128.461l754.79-0.051c69.171-2.202 123.802-60.314 121.702-129.536v-676.198c2.048-68.147-52.531-126.259-121.754-128.41h-753.613zM135.731 842.957c-28.365-0.922-51.661-25.702-50.79-55.245v-678.4c-0.922-30.618 22.426-55.398 51.917-56.371l751.309 0.051c28.365 0.922 51.661 25.702 50.79 55.245v678.4c0.922 30.413-22.118 55.142-51.405 56.32h-751.821zM895.488 535.091h-766.874v197.888c-0.819 30.976 24.474 57.958 56.371 59.085l652.646 0.051c33.229-1.178 58.522-28.16 57.702-60.058l0.154-196.966zM200.755 607.232h622.541l-0.102 112.794-622.49-0.051 0.051-112.742zM823.194 732.928c0-0.154 0-0.41 0-0.614v0.614zM200.704 733.901v-0.666c0.051 0.205 0.051 0.461 0 0.666z" />
<glyph unicode="&#xe99f;" glyph-name="dashboard-full" d="M917.606 947.2h-811.213c-53.299-1.843-95.13-49.715-93.542-107.008v-784.384c-1.587-57.293 40.243-105.165 93.594-107.008h811.162c53.299 1.843 95.181 49.715 93.594 107.008v784.384c1.536 57.293-40.294 105.165-93.594 107.008zM891.443 633.242h-748.595v174.387c-0.41 13.363 10.035 24.525 23.398 24.986h701.389c13.363-0.461 23.808-11.622 23.398-24.986l0.41-174.387z" />
<glyph unicode="&#xe9a0;" glyph-name="key" d="M1011.2 603.802c-0.102-189.645-153.907-343.296-343.501-343.194-21.402 0-42.701 1.997-63.693 5.99l-46.797-52.89c-8.858-9.984-21.606-15.718-34.97-15.718h-72.806v-77.414c0-25.856-20.941-46.797-46.797-46.797v0h-77.824v-78.029c0-25.856-20.941-46.797-46.797-46.797v0h-218.419c-25.754 0-46.643 20.787-46.797 46.541v152.064c0 12.39 4.915 24.269 13.67 33.075l315.546 315.699c-59.341 180.019 38.451 374.067 218.522 433.408s374.067-38.502 433.408-218.522c11.418-34.662 17.254-70.912 17.254-107.418zM690.074 697.446c0-39.475 32-71.526 71.526-71.526s71.526 32 71.526 71.526-32 71.526-71.526 71.526c-39.475 0-71.526-32.051-71.526-71.526v0z" />
<glyph unicode="&#xe9a1;" glyph-name="copy" d="M740.557 72.346v-22.784c0-55.654-45.107-100.762-100.762-100.762h-452.147c-55.706 0-100.813 45.107-100.813 100.762v673.382c0 55.654 45.107 100.762 100.813 100.762h95.795v-618.445c0-73.267 59.597-132.915 132.915-132.915h324.198zM937.165 878.541v-673.331c0-37.939-30.822-68.71-68.71-68.71h-452.147c-37.837 0-68.71 30.822-68.71 68.71v673.331c0 37.837 30.874 68.659 68.71 68.659h452.147c37.939 0 68.71-30.822 68.71-68.659z" />
<glyph unicode="&#xe9a2;" glyph-name="send" d="M22.272 390.042c-8.909-4.966-12.083-16.179-7.168-25.088 1.894-3.43 4.864-6.195 8.499-7.834l210.893 3.379c8.806-3.328 15.974-9.984 19.866-18.534l56.781-240.947c2.253-10.598 21.862-13.466 22.118-2.662l42.394 199.117c1.075 14.746 6.707 28.826 16.128 40.192l457.83 448.563c2.611 2.56 6.349 3.635 9.933 2.867 5.632-1.331 9.114-6.963 7.782-12.595-0.358-1.536-1.075-2.97-2.048-4.198l-430.899-458.445c-8.346-11.776-13.619-25.446-15.462-39.731l-47.821-196.198c1.997-15.053 13.722-20.787 23.194-7.322l145.357 99.789c5.632 8.038 16.742 9.984 24.781 4.352 0.051-0.051 0.102-0.102 0.154-0.102l98.56-219.955c7.834-5.786 18.893-4.198 24.678 3.635 1.587 2.099 2.662 4.557 3.174 7.168l319.334 939.776c6.093 27.034-22.63 48.589-46.899 35.072l-941.158-550.298z" />
<glyph unicode="&#xe9a3;" glyph-name="dot-round" d="M512 947.2c275.712 0 499.2-223.488 499.2-499.2s-223.488-499.2-499.2-499.2-499.2 223.488-499.2 499.2v0c0 275.712 223.488 499.2 499.2 499.2z" />
<glyph unicode="&#xe9a4;" glyph-name="github" d="M511.944 947.2c-275.661 0-499.149-229.12-499.149-511.795 0-220.314 137.472-415.898 341.299-485.581 24.934-4.506 34.304 10.854 34.304 24.32 0 12.134-0.614 52.48-0.614 95.334-125.389-23.706-157.85 31.334-167.834 60.058-11.059 28.006-28.621 52.787-51.149 72.294-17.459 9.574-42.445 33.28-0.614 33.894 32.358-3.584 61.030-23.142 76.749-52.378 28.672-52.787 93.645-71.782 145.152-42.342 0.102 0.051 0.154 0.102 0.205 0.154 2.15 26.010 13.466 50.381 31.846 68.454-111.053 12.8-227.123 56.934-227.123 252.723-0.717 50.893 17.613 100.096 51.149 137.574-15.309 44.186-13.568 92.723 4.864 135.629 0 0 41.933 13.517 137.37-52.48 81.664 23.040 167.885 23.040 249.549 0 95.437 66.56 137.267 52.48 137.267 52.48 18.483-42.906 20.275-91.443 5.018-135.629 33.638-37.427 51.968-86.682 51.149-137.574 0-196.403-116.685-239.923-227.84-252.723 24.115-25.037 36.403-59.597 33.69-94.669 0-68.454-0.614-123.494-0.614-140.749 0-13.466 9.37-29.44 34.304-24.32 261.376 90.163 402.022 380.57 314.112 648.602-68.352 208.23-258.714 348.621-473.088 348.723z" />
<glyph unicode="&#xe9a5;" glyph-name="discord" d="M512.005-51.2c-132.454-0.358-259.584 52.326-353.024 146.227-93.901 93.389-146.534 220.518-146.176 352.973-0.358 132.454 52.275 259.584 146.227 352.973 93.389 93.901 220.518 146.586 352.973 146.227 132.454 0.358 259.584-52.275 353.024-146.227 93.901-93.44 146.534-220.518 146.176-352.973 0.358-132.454-52.275-259.584-146.176-352.973-93.44-93.952-220.57-146.586-353.024-146.227zM427.167 714.24c-49.357-8.090-97.331-23.040-142.592-44.39-80.179-115.098-116.582-255.078-102.605-394.65 52.787-39.424 112.077-69.274 175.155-88.269 14.285 19.149 26.829 39.475 37.53 60.774-20.48 7.475-40.192 16.896-58.778 28.16 2.406 1.792 4.659 3.584 6.861 5.376l0.41 0.358 0.512 0.41c2.099 1.69 4.301 3.328 6.656 5.12 54.784-25.856 114.586-39.322 175.155-39.424 60.57 0.102 120.422 13.517 175.155 39.424 2.253-1.69 4.608-3.482 7.066-5.53l1.024-0.819c1.997-1.587 4.096-3.328 6.298-4.915-18.842-11.264-38.758-20.685-59.392-28.16 10.701-21.299 23.245-41.626 37.53-60.774 63.027 19.149 122.317 48.998 175.155 88.269 14.387 139.878-22.221 280.269-103.168 395.315-45.414 20.736-93.338 35.482-142.592 43.776-6.707-12.186-12.8-24.678-18.227-37.53-26.163 4.045-52.582 6.093-79.053 6.093-26.522 0-52.992-2.048-79.155-6.093-5.53 12.851-11.827 25.395-18.944 37.478zM639.852 355.226c-36.147 2.253-63.744 33.229-61.85 69.427-1.894 36.25 25.6 67.379 61.85 69.888 15.872-0.051 31.027-6.554 42.035-17.92 13.312-14.029 20.531-32.768 19.968-52.122 1.792-36.147-25.856-67.072-61.952-69.325v0.051zM409.708 355.226c-36.198 2.202-63.846 33.178-61.952 69.427-1.894 36.301 25.651 67.43 61.952 69.888 36.352-1.792 64.358-32.717 62.566-69.069 0-0.307 0-0.563-0.051-0.87 1.792-36.403-26.112-67.43-62.515-69.478v0.102z" />
<glyph unicode="&#xe9a6;" glyph-name="focus" d="M822.016 448c0-17.050-13.619-31.027-30.976-31.027h-32.87c-13.978-111.923-102.963-201.165-215.194-215.142v-32.87c0-17.050-13.619-30.976-30.976-30.976-17.050 0-31.027 13.926-31.027 30.976v32.87c-111.923 14.285-200.909 103.219-215.142 215.142h-32.87c-17.050 0-30.976 13.978-30.976 31.027s13.926 30.976 30.976 30.976h32.87c14.234 111.974 103.219 200.909 215.142 215.194v32.87c0 17.050 13.978 30.976 31.027 30.976 17.357 0 30.976-13.926 30.976-30.976v-32.87c112.23-13.978 201.216-103.219 215.194-215.194h32.87c17.357 0 30.976-13.926 30.976-30.976zM111.514 244.582h-98.714v-197.12c0.154-54.374 44.186-98.406 98.56-98.56h197.12v98.406h-197.12l0.154 197.274zM111.514 848.794h197.12v98.458h-197.274c-54.374-0.205-98.406-44.237-98.56-98.56v-197.12h98.56l0.154 197.222zM912.691 947.251h-197.171v-98.56h197.12v-197.12h98.56v197.12c-0.154 54.323-44.186 98.355-98.509 98.56zM912.691 47.309h-197.171v-98.56h197.12c54.374 0.154 98.406 44.186 98.56 98.56v197.171h-98.509v-197.171z" />
<glyph unicode="&#xe9a7;" glyph-name="star" d="M458.701 892.365l-121.907-247.142-273.254-39.424c-32.614-4.966-55.040-35.43-50.074-68.045 1.946-12.851 8.038-24.73 17.408-33.792l197.274-192.205-46.899-271.565c-5.581-32.461 16.282-63.334 48.742-68.915 12.954-2.202 26.214-0.102 37.837 5.99l244.378 128.205 243.917-128.205c29.235-15.309 65.331-3.994 80.64 25.242 6.042 11.571 8.141 24.781 5.99 37.632l-46.899 271.565 197.222 192.205c23.654 22.989 24.166 60.826 1.178 84.48-9.165 9.421-21.197 15.565-34.202 17.459l-272.64 39.782-121.6 246.733c-14.694 29.594-50.586 41.677-80.128 26.982-11.725-5.786-21.197-15.258-26.982-26.982z" />
<glyph unicode="&#xe9a8;" glyph-name="bell-round" d="M512 947.2c-275.712 0-499.2-223.488-499.2-499.2s223.488-499.2 499.2-499.2c275.712 0 499.2 223.488 499.2 499.2s-223.488 499.2-499.2 499.2zM512 100.915c-58.368 0.051-105.728 43.981-105.728 98.202h211.405c0.051-54.221-47.309-98.15-105.677-98.202zM809.421 285.184c-0.051-23.501-19.149-42.496-42.598-42.445h-509.645c0 0-0.051 0-0.051 0-23.501 0-42.547 18.995-42.598 42.496 0 10.701 4.096 20.941 11.469 28.672 25.651 27.546 73.677 69.018 73.677 204.902-0.154 100.557 71.168 187.085 169.882 206.131v27.699c0 23.45 18.995 42.445 42.445 42.445s42.496-18.995 42.496-42.445v-27.546c98.714-19.098 170.035-105.574 169.882-206.131 0-135.834 48.026-177.306 73.677-204.902h-0.102c7.424-7.782 11.52-18.125 11.469-28.877 0 0 0 0 0 0z" />
<glyph unicode="&#xe9a9;" glyph-name="calendar" d="M31.693 51.763c0-56.832 46.080-102.963 102.963-102.963h754.739c56.832 0 102.963 46.080 102.963 102.963v583.219h-960.666v-583.219zM152.064 484.25c0.051 13.261 10.803 23.962 24.013 24.013h144.282c13.261-0.051 23.962-10.803 24.013-24.013v-144.282c-0.051-13.261-10.803-23.962-24.013-24.013h-144.282c-13.261 0.051-23.962 10.803-24.013 24.013v144.282zM889.395 859.699h-102.861v53.197c-0.051 18.944-15.411 34.253-34.355 34.304h-68.608c-18.893-0.051-34.202-15.36-34.304-34.304v-53.197h-274.483v53.197c-0.051 18.944-15.411 34.253-34.355 34.304h-68.557c-18.893-0.051-34.202-15.36-34.304-34.304v-53.197h-102.963c-56.832 0-102.963-46.080-102.963-102.963v0-70.605h960.666v70.605c0 56.883-46.080 102.963-102.912 102.963v0z" />
<glyph unicode="&#xe9aa;" glyph-name="home" d="M537.242 936.704c-13.926 13.926-36.506 13.978-50.432 0.051 0 0-0.051-0.051-0.051-0.051l-427.878-427.827c-6.707-6.707-10.445-15.77-10.394-25.242v-499.149c0-19.712 15.974-35.635 35.635-35.635h320.87c19.712 0 35.635 15.974 35.635 35.635v285.235h142.643v-285.235c0-19.712 15.974-35.635 35.635-35.635h320.87c19.712 0 35.635 15.974 35.635 35.635v499.149c0 9.472-3.738 18.534-10.394 25.242l-96.563 96.461v234.854c0 19.712-15.974 35.635-35.635 35.635h-71.322c-19.712 0-35.635-15.974-35.635-35.635v-92.211l-188.621 188.723z" />
<glyph unicode="&#xe9ab;" glyph-name="ml" d="M387.174 822.374c13.158 0 24.883-8.243 29.338-20.582l220.262-605.645 95.488 262.554c4.506 12.288 16.23 20.48 29.338 20.48h218.419c17.254 0 31.181-13.978 31.181-31.181 0-17.254-13.978-31.181-31.181-31.181h-196.557l-117.299-322.611c-5.888-16.179-23.757-24.576-39.987-18.688-8.704 3.174-15.514 9.984-18.688 18.688l-220.314 605.645-95.488-262.502c-4.506-12.339-16.23-20.531-29.338-20.531h-218.368c-17.254 0-31.181 13.978-31.181 31.181 0 17.254 13.978 31.181 31.181 31.181h196.557l117.35 322.611c4.454 12.339 16.179 20.582 29.286 20.582z" />
<glyph unicode="&#xe9ac;" glyph-name="hdp" d="M730.368 11.213c17.254 0 31.181 13.978 31.181 31.181v735.846l196.301-196.352c12.186-12.186 32-12.186 44.186 0s12.186 32 0 44.186l-249.6 249.6c-12.186 12.186-31.898 12.237-44.134 0.051 0 0-0.051-0.051-0.051-0.051l-249.549-249.6c-12.186-12.186-12.186-32 0-44.186s32-12.186 44.186 0l196.301 196.352v-735.846c0-17.203 13.978-31.181 31.181-31.181zM293.632 884.787c17.254 0 31.181-13.978 31.181-31.181v-735.846l196.301 196.352c12.186 12.186 32 12.186 44.186 0s12.186-32 0-44.186l-249.6-249.6c-12.186-12.186-31.898-12.237-44.134-0.051 0 0-0.051 0.051-0.051 0.051l-249.549 249.6c-12.186 12.186-12.186 32 0 44.186s32 12.186 44.186 0v0l196.301-196.352v735.795c-0.051 17.254 13.926 31.232 31.181 31.232z" />
<glyph unicode="&#xe9ad;" glyph-name="ou" d="M75.264 448c0 17.254 13.978 31.181 31.181 31.181h811.11c17.254 0 31.181-13.978 31.181-31.181 0-17.254-13.978-31.181-31.181-31.181h-811.11c-17.254 0-31.181 13.926-31.181 31.181zM489.933 938.035c12.186 12.186 31.898 12.237 44.134 0.051 0 0 0.051-0.051 0.051-0.051l124.774-124.774c12.186-12.186 12.186-32 0-44.186s-32-12.186-44.186 0v0l-71.526 71.578v-236.646c0-17.254-13.978-31.181-31.181-31.181-17.254 0-31.181 13.978-31.181 31.181v236.646l-71.526-71.578c-12.186-12.186-32-12.186-44.186 0s-12.186 32 0 44.186v0l124.826 124.774zM512 323.226c17.254 0 31.181-13.978 31.181-31.181v-236.646l71.526 71.578c12.186 12.186 32 12.186 44.186 0s12.186-32 0-44.186l-124.774-124.774c-12.186-12.186-31.898-12.237-44.134-0.051 0 0-0.051 0.051-0.051 0.051l-124.774 124.774c-12.186 12.186-12.186 32 0 44.186s32 12.186 44.186 0l71.526-71.578v236.646c-0.051 17.203 13.875 31.181 31.13 31.181z" />
<glyph unicode="&#xe9ae;" glyph-name="password" d="M917.555 688.64h-811.162c-53.299-1.843-95.181-49.715-93.542-107.008v-267.264c-1.638-57.293 40.243-105.165 93.542-107.008h811.162c53.299 1.843 95.181 49.715 93.594 107.008v267.264c1.587 57.293-40.294 105.165-93.594 107.008zM278.221 420.506c2.406-1.024 3.482-3.021 3.328-5.99-0.154-3.021-2.253-7.834-6.195-14.49-3.942-6.861-7.168-11.059-9.626-12.595-2.509-1.536-4.762-1.536-6.861 0l-54.835 39.782 7.219-67.277c0.461-2.56-0.614-4.506-3.379-5.888-2.714-1.382-8.090-2.048-15.974-2.048s-13.21 0.666-15.974 2.048c-2.765 1.382-3.84 3.328-3.328 5.888l7.219 67.277-54.63-39.782c-2.048-1.536-4.403-1.536-6.963 0s-5.837 5.734-9.779 12.595c-3.942 6.656-5.99 11.469-6.042 14.49-0.102 2.97 1.075 4.966 3.482 5.99l62.054 27.494-62.054 27.187c-2.406 1.229-3.584 3.328-3.482 6.298 0.051 2.97 2.099 7.834 6.042 14.49 3.942 6.707 7.219 10.803 9.779 12.339s4.915 1.536 6.963 0l54.63-39.526-7.219 66.97c-0.512 2.765 0.614 4.813 3.328 6.195 2.765 1.331 8.090 2.048 15.974 2.048s13.21-0.717 15.974-2.048c2.765-1.382 3.84-3.43 3.379-6.195l-7.27-66.97 54.886 39.526c2.048 1.536 4.352 1.536 6.81 0 2.509-1.536 5.734-5.734 9.677-12.595 3.942-6.502 6.042-11.264 6.195-14.234 0.154-3.021-0.922-5.12-3.328-6.298l-62.106-27.187 62.106-27.494zM598.221 420.506c2.406-1.024 3.533-3.021 3.328-5.99-0.154-3.021-2.202-7.834-6.195-14.49-3.942-6.861-7.168-11.059-9.626-12.595-2.509-1.536-4.762-1.536-6.861 0l-54.835 39.782 7.219-67.277c0.512-2.56-0.614-4.506-3.379-5.888-2.714-1.382-8.090-2.048-15.974-2.048s-13.21 0.666-15.974 2.048c-2.714 1.382-3.84 3.328-3.328 5.888l7.219 67.277-54.63-39.782c-2.048-1.536-4.403-1.536-6.963 0s-5.837 5.734-9.779 12.595c-3.942 6.656-5.99 11.469-6.042 14.49-0.102 2.97 1.075 4.966 3.482 5.99l62.054 27.494-62.054 27.187c-2.406 1.229-3.584 3.328-3.482 6.298 0.051 2.97 2.099 7.834 6.042 14.49 3.942 6.707 7.219 10.803 9.779 12.339s4.915 1.536 6.963 0l54.63-39.526-7.219 66.97c-0.512 2.765 0.614 4.813 3.328 6.195 2.765 1.331 8.090 2.048 15.974 2.048s13.261-0.717 15.974-2.048c2.765-1.382 3.891-3.43 3.379-6.195l-7.219-66.97 54.835 39.526c2.099 1.536 4.352 1.536 6.861 0 2.458-1.536 5.683-5.734 9.626-12.595 3.942-6.502 6.042-11.264 6.195-14.234 0.154-3.021-0.922-5.12-3.328-6.298l-62.106-27.187 62.106-27.494zM918.221 420.506c2.406-1.024 3.533-3.021 3.328-5.99-0.154-3.021-2.202-7.834-6.144-14.49-3.994-6.861-7.219-11.059-9.677-12.595-2.509-1.536-4.762-1.536-6.81 0l-54.886 39.782 7.219-67.277c0.512-2.56-0.614-4.506-3.379-5.888-2.714-1.382-8.038-2.048-15.974-2.048-7.885 0-13.21 0.666-15.974 2.048-2.714 1.382-3.84 3.328-3.328 5.888l7.219 67.277-54.63-39.782c-2.048-1.536-4.403-1.536-6.963 0s-5.837 5.734-9.779 12.595c-3.942 6.656-5.99 11.469-6.042 14.49-0.102 2.97 1.075 4.966 3.482 5.99l62.106 27.494-62.106 27.187c-2.406 1.229-3.584 3.328-3.482 6.298s2.099 7.834 6.042 14.49c3.942 6.707 7.219 10.803 9.779 12.339s4.915 1.536 6.963 0l54.63-39.526-7.219 66.97c-0.512 2.765 0.614 4.813 3.328 6.195 2.765 1.331 8.090 2.048 15.974 2.048s13.261-0.717 15.974-2.048c2.765-1.382 3.891-3.43 3.379-6.195l-7.219-66.97 54.835 39.526c2.099 1.536 4.352 1.536 6.861 0 2.458-1.536 5.683-5.734 9.626-12.595 3.994-6.502 6.042-11.264 6.195-14.234 0.154-3.021-0.922-5.12-3.328-6.298l-62.106-27.187 62.106-27.494z" />
<glyph unicode="&#xe9af;" glyph-name="bitcoin" horiz-adv-x="779" d="M617.062 485.274c58.368 27.699 90.829 91.187 79.053 154.726-10.496 109.056-104.704 145.613-223.693 156.006v151.194h-92.16v-147.302c-24.218 0-48.947-0.461-73.574-0.973v148.275h-92.109v-151.194c-19.968-0.41-39.526-0.819-58.573-0.819v0.461h-127.283v-98.304c0 0 68.096 1.28 66.918 0 25.702 3.226 49.254-14.694 53.043-40.294v-414.31c-1.075-17.971-16.538-31.59-34.458-30.515-0.051 0-0.102 0-0.154 0 1.178-1.075-67.072 0-67.072 0l-18.33-109.824h119.91c22.323 0 44.288-0.358 65.894-0.563v-152.934h92.058v151.245c25.344-0.512 49.766-0.717 73.626-0.717v-150.63h92.16v152.678c154.931 8.909 263.373 47.872 276.89 193.229 10.957 117.043-44.186 169.267-132.147 190.566zM308.838 690.944c51.968 0 215.45 16.538 215.45-91.955 0-103.987-163.43-91.853-215.45-91.853v183.808zM308.838 211.661v202.445c62.413 0 258.355 17.92 258.355-101.274 0.051-114.33-195.891-101.325-258.355-101.376v0.205z" />
<glyph unicode="&#xe9b0;" glyph-name="pen" d="M983.962 802.714l-117.248 117.094c-36.659 36.403-95.795 36.403-132.403 0l-110.234-110.387 249.6-249.6 110.234 110.234c36.403 36.659 36.403 95.795 0 132.403l0.051 0.256zM579.994 765.542l-42.035-42.035 249.549-249.549 42.035 42.035-249.549 249.549zM38.144 223.59l-25.088-222.669c-0.41-3.533-0.41-7.117 0-10.65 3.021-25.651 26.214-44.032 51.917-41.062l222.566 24.576 470.477 470.63-249.6 249.6-470.272-470.426z" />
<glyph unicode="&#xe9b1;" glyph-name="shrink" d="M512 884.736c17.254 0 31.181-13.978 31.181-31.181v-811.11c0-17.254-13.978-31.181-31.181-31.181-17.254 0-31.181 13.978-31.181 31.181v811.11c0 17.254 13.926 31.181 31.181 31.181zM378.061 470.067c12.186-12.186 12.237-31.898 0.051-44.134 0 0-0.051-0.051-0.051-0.051l-124.774-124.774c-12.186-12.186-32-12.186-44.186 0s-12.186 32 0 44.186v0l71.578 71.526h-236.698c-17.254 0-31.181 13.978-31.181 31.181 0 17.254 13.978 31.181 31.181 31.181h236.646l-71.526 71.526c-12.186 12.186-12.186 32 0 44.186s32 12.186 44.186 0v0l124.774-124.826zM1011.2 448c0-17.254-13.978-31.181-31.181-31.181h-236.646l71.578-71.526c12.186-12.186 12.186-32 0-44.186s-32-12.186-44.186 0l-124.774 124.774c-12.186 12.186-12.237 31.898-0.051 44.134 0 0 0.051 0.051 0.051 0.051l124.774 124.774c12.186 12.186 32 12.186 44.186 0s12.186-32 0-44.186l-71.578-71.526h236.646c17.203 0.051 31.181-13.875 31.181-31.13z" />
<glyph unicode="&#xe9b2;" glyph-name="expand" d="M512 884.736c17.254 0 31.181-13.978 31.181-31.181v-811.11c0-17.254-13.978-31.181-31.181-31.181-17.254 0-31.181 13.978-31.181 31.181v811.11c0 17.254 13.926 31.181 31.181 31.181zM1002.035 470.067c12.186-12.186 12.237-31.898 0.051-44.134 0 0-0.051-0.051-0.051-0.051l-124.774-124.774c-12.186-12.186-32-12.186-44.186 0s-12.186 32 0 44.186v0l71.578 71.526h-236.646c-17.254 0-31.181 13.978-31.181 31.181 0 17.254 13.978 31.181 31.181 31.181h236.646l-71.578 71.526c-12.186 12.186-12.186 32 0 44.186s32 12.186 44.186 0v0l124.774-124.826zM387.226 448c0-17.254-13.978-31.181-31.181-31.181h-236.698l71.578-71.526c12.186-12.186 12.186-32 0-44.186s-32-12.186-44.186 0l-124.774 124.826c-12.186 12.186-12.237 31.898-0.051 44.134 0 0 0.051 0.051 0.051 0.051l124.774 124.774c12.186 12.186 32 12.186 44.186 0s12.186-32 0-44.186l-71.578-71.526h236.646c17.254 0 31.232-13.926 31.232-31.181z" />
<glyph unicode="&#xe9b3;" glyph-name="fire" horiz-adv-x="795" d="M418.048-50.483c-39.014-1.485-77.978 4.403-114.842 17.306-31.846 11.469-59.494 32.358-79.258 59.853l-5.018 7.27-2.918 4.198c-26.419 32.768-44.186 71.629-51.661 113.050-12.902-48.179-8.090-99.379 13.619-144.282-104.653 63.078-167.526 177.459-164.71 299.622v9.062c7.219 94.413 56.474 180.685 134.093 235.059 32.102 25.6 60.006 56.064 82.637 90.317 21.504 33.946 29.338 74.803 21.811 114.278 27.238-24.013 42.957-58.573 43.162-94.874 0.563-23.040-1.075-46.029-4.864-68.762 2.253 4.659 5.069 9.728 7.987 14.95l0.922 1.638c11.469 18.176 19.814 38.195 24.678 59.136 14.746 80.179-19.917 161.229-119.091 279.859l41.216-5.274c105.062-13.158 205.414-51.405 292.557-111.514 83.661-63.078 140.186-155.546 158.259-258.714 11.981-67.021 3.43-136.141-24.525-198.195 31.334 36.864 49.971 82.79 53.197 131.072l0.461 24.934c38.298-60.774 57.344-131.635 54.733-203.418 7.936-91.75-19.661-183.040-77.005-255.078-70.451-83.507-176.384-128.614-285.44-121.498zM354.56 838.554v0c26.214-88.986 40.704-203.725 14.234-259.328-28.723-53.965-65.587-103.168-109.312-145.869-37.837-40.55-67.686-72.55-67.686-100.198-14.797-54.938-3.379-113.562 30.822-158.976 46.234-56.934 116.326-89.139 189.645-87.091 102.605 3.738 185.754 84.634 192.256 187.136 35.789 99.738 6.656 281.446-65.69 413.747-46.592 66.15-110.285 118.323-184.32 150.989l0.051-0.41zM387.43 206.848c-5.325 0-10.65 0.512-15.872 1.536-36.659 6.042-68.352 28.826-85.76 61.645-12.595 25.856-12.595 56.064 0 81.92 2.714 13.824 20.634 26.624 43.213 43.213l0.461 0.358c25.702 16.896 48.64 37.683 68.045 61.594 18.688 40.755 24.934 86.067 18.022 130.304 33.638-23.45 60.262-55.654 77.005-93.082 23.654-69.12 20.992-144.538-7.373-211.866-11.827-44.237-51.866-75.059-97.69-75.213v-0.41z" />
</font>
</defs>
</svg>
