<?xml version="1.0" encoding="utf-8"?>
<!-- Generator: Adobe Illustrator 26.0.1, SVG Export Plug-In . SVG Version: 6.00 Build 0)  -->
<svg version="1.1" id="Layer_1" xmlns="http://www.w3.org/2000/svg" xmlns:xlink="http://www.w3.org/1999/xlink" x="0px" y="0px"
	 viewBox="0 0 183.36 200" style="enable-background:new 0 0 183.36 200;" xml:space="preserve">
<style type="text/css">
	.st0{fill-rule:evenodd;clip-rule:evenodd;}
	.st1{enable-background:new    ;}
	.st2{opacity:0.65;}
	.st3{opacity:0.64;}
	.st4{opacity:0.5;}
	.st5{opacity:0.8;}
	.st6{fill-rule:evenodd;clip-rule:evenodd;enable-background:new    ;}
</style>
<g>
	<path id="Icon_awesome-map-signs" d="M28.06,149.02l139.99-17.36c6.46-0.8,11.06-6.69,10.25-13.16l-9.83-79.32
		c-0.8-6.46-6.69-11.06-13.16-10.25L15.32,46.28c-6.46,0.8-11.06,6.69-10.25,13.16l9.83,79.32
		C15.7,145.23,21.59,149.82,28.06,149.02z"/>
	<path d="M103.8,6.39v21.14l-24.23,3V6.39c0-2.15,1.74-3.89,3.88-3.89h16.46C102.06,2.5,103.8,4.24,103.8,6.39z"/>
	<path d="M79.57,150.42l24.23-3.01v46.21c0,2.15-1.74,3.88-3.89,3.88H83.45c-2.15,0-3.88-1.74-3.88-3.88V150.42z"/>
</g>
</svg>
