<?xml version="1.0" encoding="utf-8"?>
<!-- Generator: Adobe Illustrator 26.0.1, SVG Export Plug-In . SVG Version: 6.00 Build 0)  -->
<svg version="1.1" id="Layer_1" xmlns="http://www.w3.org/2000/svg" xmlns:xlink="http://www.w3.org/1999/xlink" x="0px" y="0px"
	 viewBox="0 0 200 200" style="enable-background:new 0 0 200 200;" xml:space="preserve">
<style type="text/css">
	.st0{fill-rule:evenodd;clip-rule:evenodd;}
	.st1{enable-background:new    ;}
	.st2{opacity:0.65;}
	.st3{opacity:0.64;}
	.st4{opacity:0.5;}
	.st5{opacity:0.8;}
	.st6{fill-rule:evenodd;clip-rule:evenodd;enable-background:new    ;}
</style>
<path id="Icon_metro-sort-asc_00000028325590482976203000000011365513060567959694_" class="st1" d="M144.45,49.59v143.42
	c0,2.48,2.01,4.49,4.49,4.49h16.42c2.48,0,4.49-2.01,4.49-4.49V49.59c0-2.48,2.01-4.49,4.49-4.49h16.42c4,0,6.01-4.84,3.18-7.67
	L160.32,3.82c-1.75-1.75-4.6-1.75-6.35,0l-33.6,33.61c-2.83,2.83-0.82,7.67,3.18,7.67h16.41C142.44,45.09,144.45,47.1,144.45,49.59z
	 M114.56,170.96H9.23c-2.48,0-4.49,2.01-4.49,4.49v16.42c0,2.48,2.01,4.49,4.49,4.49h105.33c2.48,0,4.49-2.01,4.49-4.49v-16.42
	C119.05,172.97,117.04,170.96,114.56,170.96z M114.56,132.86H34.65c-2.48,0-4.49,2.01-4.49,4.49v16.42c0,2.48,2.01,4.49,4.49,4.49
	h79.91c2.48,0,4.49-2.01,4.49-4.49v-16.42C119.05,134.87,117.04,132.86,114.56,132.86z M114.56,94.76H60.04
	c-2.48,0-4.49,2.01-4.49,4.49v16.42c0,2.48,2.01,4.49,4.49,4.49h54.51c2.48,0,4.49-2.01,4.49-4.49V99.25
	C119.05,96.77,117.04,94.76,114.56,94.76z M114.56,56.66H85.44c-2.48,0-4.49,2.01-4.49,4.49v16.4c0,2.48,2.01,4.49,4.49,4.49h29.11
	c2.48,0,4.49-2.01,4.49-4.49v-16.4C119.05,58.67,117.04,56.66,114.56,56.66z"/>
</svg>
