<?xml version="1.0" encoding="utf-8"?>
<!-- Generator: Adobe Illustrator 26.0.1, SVG Export Plug-In . SVG Version: 6.00 Build 0)  -->
<svg version="1.1" id="Layer_1" xmlns="http://www.w3.org/2000/svg" xmlns:xlink="http://www.w3.org/1999/xlink" x="0px" y="0px"
	 viewBox="0 0 200 200" style="enable-background:new 0 0 200 200;" xml:space="preserve">
<style type="text/css">
	.st0{fill-rule:evenodd;clip-rule:evenodd;}
	.st1{enable-background:new    ;}
	.st2{opacity:0.65;}
	.st3{opacity:0.64;}
	.st4{opacity:0.5;}
	.st5{opacity:0.8;}
	.st6{fill-rule:evenodd;clip-rule:evenodd;enable-background:new    ;}
</style>
<g>
	<path d="M175.51,161.53c-15.05,18.47-36.72,31.34-61.36,34.94c-0.14,0.02-0.29,0.04-0.43,0.06c-0.71,0.1-1.42,0.19-2.14,0.28
		c-0.24,0.03-0.48,0.06-0.73,0.08c-0.62,0.07-1.24,0.13-1.87,0.19c-0.29,0.03-0.59,0.06-0.89,0.08c-0.58,0.05-1.16,0.09-1.74,0.13
		c-0.33,0.02-0.65,0.04-0.98,0.06c-0.58,0.03-1.17,0.05-1.75,0.07c-0.32,0.02-0.63,0.03-0.95,0.04c-0.76,0.02-1.52,0.03-2.29,0.03
		c-0.08,0-0.17,0.01-0.25,0.01c-30.48-0.05-57.65-14.14-75.43-36.15c0.91-0.78,1.87-1.63,2.84-2.51
		c5.71-5.16,12.32-12.05,17.98-20.37l6.65,3.77c0.75,0.42,1.56,0.62,2.37,0.62c1.67,0,3.3-0.88,4.18-2.44
		c1.31-2.31,0.5-5.25-1.82-6.55l-6.41-3.63c4.05-7.64,7.01-16.18,7.79-25.43h4.23c2.65,0,4.8-2.16,4.8-4.81
		c0-2.66-2.15-4.81-4.8-4.81h-4.23c-0.78-9.26-3.74-17.79-7.78-25.43l6.4-3.63c2.31-1.31,3.13-4.24,1.82-6.56
		c-1.31-2.31-4.25-3.11-6.55-1.81l-6.65,3.77c-6.7-9.86-14.75-17.73-21.03-23.07C39.55,19.99,61.23,7.12,85.87,3.52
		C86,3.5,86.12,3.49,86.24,3.47c0.73-0.1,1.47-0.2,2.21-0.29c0.22-0.02,0.44-0.05,0.67-0.07c0.64-0.08,1.29-0.14,1.94-0.2
		c0.27-0.03,0.54-0.05,0.82-0.07c0.61-0.05,1.22-0.1,1.83-0.14c0.3-0.01,0.6-0.04,0.89-0.05c0.63-0.04,1.25-0.06,1.88-0.08
		c0.28-0.01,0.55-0.03,0.83-0.03c0.87-0.03,1.74-0.04,2.61-0.04h0.15c0.88,0,1.75,0.01,2.63,0.04c0.27,0,0.54,0.02,0.81,0.03
		c0.63,0.02,1.26,0.04,1.89,0.08c0.3,0.01,0.59,0.04,0.88,0.05c0.62,0.04,1.23,0.09,1.85,0.14c0.27,0.02,0.54,0.04,0.81,0.07
		c0.65,0.06,1.3,0.12,1.95,0.2c0.22,0.02,0.44,0.05,0.66,0.07c0.74,0.09,1.48,0.19,2.22,0.29c0.12,0.02,0.24,0.03,0.35,0.05
		c24.65,3.6,46.33,16.47,61.39,34.94c-0.05,0.04-0.1,0.09-0.15,0.13c-2.71,2.31-5.74,5.11-8.85,8.32
		c-4.07,4.19-8.26,9.07-12.03,14.62l-6.65-3.77c-2.3-1.3-5.24-0.5-6.55,1.81c-1.31,2.32-0.49,5.25,1.82,6.56l6.41,3.63
		c-4.05,7.64-7.01,16.17-7.78,25.43h-4.23c-2.66,0-4.81,2.15-4.81,4.81c0,2.65,2.15,4.81,4.81,4.81h4.23
		c0.77,9.25,3.73,17.79,7.78,25.43l-6.41,3.63c-2.31,1.3-3.13,4.24-1.82,6.55c0.18,0.31,0.39,0.58,0.61,0.84
		c0.93,1.03,2.24,1.6,3.58,1.6c0.8,0,1.61-0.2,2.36-0.62l6.65-3.77C161.18,148.32,169.23,156.19,175.51,161.53z"/>
	<path d="M197.42,100.12c0,1.07-0.02,2.13-0.06,3.2c-0.01,0.26-0.02,0.53-0.03,0.79c-0.09,2.25-0.26,4.48-0.51,6.69
		c-0.01,0.15-0.03,0.3-0.05,0.45c-1.8,15.58-7.28,30.05-15.54,42.52c-4.88-4.21-12.12-11.19-18.28-20.1l0.73-0.41
		c2.32-1.31,3.13-4.25,1.82-6.56c-1.31-2.32-4.25-3.12-6.54-1.82l-1.01,0.58c-0.53-1-1.02-2.01-1.5-3.04
		c-2.55-5.47-4.43-11.38-5.07-17.61h4.34c2.65,0,4.8-2.16,4.8-4.81c0-2.66-2.15-4.81-4.8-4.81h-4.34
		c0.77-7.41,3.25-14.36,6.57-20.65l1.01,0.57c0.74,0.42,1.55,0.63,2.36,0.63c1.67,0,3.3-0.88,4.19-2.45
		c1.3-2.31,0.49-5.24-1.82-6.55l-0.74-0.42c1.93-2.8,3.98-5.4,6.02-7.8c4.4-5.16,8.8-9.31,12.13-12.19
		c9.18,13.75,14.96,29.96,16.11,47.44c0.01,0.19,0.02,0.39,0.03,0.58c0.05,0.87,0.1,1.74,0.13,2.62c0.01,0.5,0.02,1.01,0.02,1.52
		C197.4,99.03,197.42,99.58,197.42,100.12z"/>
	<path d="M37.05,133.68l-0.74-0.42c-2.31-1.31-3.13-4.24-1.82-6.56c1.31-2.31,4.25-3.12,6.55-1.81l1.01,0.57
		c3.31-6.29,5.8-13.24,6.57-20.65h-4.34c-2.66,0-4.81-2.15-4.81-4.81c0-2.66,2.15-4.81,4.81-4.81h4.34
		c-0.77-7.41-3.26-14.36-6.57-20.65l-1.01,0.57c-0.74,0.42-1.56,0.63-2.36,0.63c-1.67,0-3.3-0.88-4.19-2.44
		c-1.31-2.31-0.49-5.25,1.82-6.55l0.74-0.42c-6.16-8.91-13.4-15.89-18.28-20.1C10.51,58.69,5.04,73.15,3.23,88.71
		c-0.02,0.17-0.04,0.35-0.06,0.52c-0.12,1.12-0.23,2.24-0.32,3.38c0,0.03,0,0.07-0.01,0.1c-0.08,1.04-0.13,2.1-0.18,3.15
		c-0.01,0.29-0.02,0.58-0.03,0.87c-0.04,1.05-0.06,2.11-0.06,3.17c0,0.04,0,0.07,0,0.11c0,0.04,0,0.07,0,0.11
		c0,1.06,0.02,2.12,0.06,3.17c0.01,0.29,0.02,0.58,0.03,0.87c0.04,1.05,0.1,2.1,0.18,3.14c0,0.03,0,0.07,0.01,0.1
		c0.09,1.13,0.19,2.25,0.32,3.37c0.02,0.17,0.04,0.35,0.06,0.52c1.8,15.56,7.28,30.02,15.54,42.48
		C23.65,149.56,30.89,142.58,37.05,133.68z"/>
</g>
</svg>
