<?xml version="1.0" encoding="utf-8"?>
<!-- Generator: Adobe Illustrator 26.0.1, SVG Export Plug-In . SVG Version: 6.00 Build 0)  -->
<svg version="1.1" id="Layer_1" xmlns="http://www.w3.org/2000/svg" xmlns:xlink="http://www.w3.org/1999/xlink" x="0px" y="0px"
	 viewBox="0 0 200 200" style="enable-background:new 0 0 200 200;" xml:space="preserve">
<style type="text/css">
	.st0{fill-rule:evenodd;clip-rule:evenodd;}
	.st1{enable-background:new    ;}
	.st2{opacity:0.65;}
	.st3{opacity:0.64;}
	.st4{opacity:0.5;}
	.st5{opacity:0.8;}
	.st6{fill-rule:evenodd;clip-rule:evenodd;enable-background:new    ;}
</style>
<g>
	<path d="M141.89,141.26c-0.23-0.25-0.44-0.53-0.62-0.84c-1.31-2.31-0.49-5.25,1.82-6.55l6.41-3.63c-4.05-7.64-7-16.18-7.78-25.43
		h-4.23c-2.66,0-4.81-2.15-4.81-4.81c0-2.66,2.15-4.81,4.81-4.81h4.23c0.78-9.25,3.73-17.79,7.78-25.43l-6.41-3.63
		c-2.31-1.31-3.13-4.24-1.82-6.56c1.31-2.31,4.25-3.11,6.55-1.81l6.65,3.77c3.77-5.54,7.96-10.43,12.03-14.62
		c-2.76-9.97-7.05-19.31-12.63-27.73c8.09,5.37,15.33,11.93,21.48,19.41c0.05-0.04,0.1-0.09,0.15-0.13
		c-15.06-18.48-36.74-31.34-61.39-34.94c-0.12-0.02-0.24-0.03-0.35-0.05c-0.74-0.1-1.48-0.2-2.22-0.29
		c-0.22-0.03-0.44-0.05-0.66-0.08c-0.65-0.07-1.3-0.14-1.95-0.2c-0.27-0.02-0.54-0.05-0.82-0.07c-0.61-0.05-1.23-0.09-1.84-0.13
		c-0.29-0.02-0.59-0.04-0.88-0.06c-0.63-0.03-1.26-0.06-1.89-0.08c-0.27-0.01-0.54-0.02-0.82-0.03c-0.87-0.02-1.74-0.04-2.62-0.04
		c-0.02,0-0.05,0-0.07,0c-0.03,0-0.05,0-0.08,0c-0.87,0-1.75,0.01-2.61,0.04c-0.28,0.01-0.55,0.02-0.82,0.03
		c-0.63,0.02-1.26,0.05-1.88,0.08c-0.3,0.02-0.59,0.04-0.89,0.06c-0.61,0.04-1.22,0.08-1.83,0.13c-0.28,0.02-0.55,0.05-0.82,0.07
		c-0.65,0.06-1.29,0.12-1.94,0.2c-0.22,0.02-0.45,0.05-0.67,0.08c-0.74,0.09-1.47,0.18-2.2,0.29C86.12,3.49,86,3.51,85.87,3.52
		c-24.64,3.6-46.32,16.47-61.38,34.94c6.28,5.34,14.33,13.21,21.03,23.06l6.65-3.77c2.29-1.3,5.24-0.5,6.55,1.81
		c1.31,2.31,0.49,5.25-1.82,6.56l-6.41,3.63c4.05,7.64,7,16.18,7.78,25.43h4.23c2.65,0,4.81,2.15,4.81,4.81
		c0,2.66-2.15,4.81-4.81,4.81h-4.23c-0.78,9.25-3.74,17.79-7.78,25.43l6.41,3.63c2.31,1.31,3.13,4.24,1.82,6.55
		c-0.89,1.56-2.51,2.44-4.19,2.44c-0.8,0-1.61-0.2-2.36-0.63l-6.65-3.77c-5.66,8.32-12.27,15.21-17.98,20.37
		c13.53,7.16,28.95,11.24,45.32,11.24C99.86,170.08,124.29,159.05,141.89,141.26z"/>
	<path class="st3" d="M102.67,197.46c0.32-0.01,0.63-0.02,0.94-0.04c0.59-0.02,1.17-0.04,1.76-0.08c0.32-0.02,0.65-0.04,0.97-0.06
		c0.58-0.04,1.17-0.08,1.75-0.13c0.3-0.02,0.59-0.05,0.89-0.08c0.62-0.06,1.25-0.12,1.87-0.19c0.24-0.03,0.48-0.05,0.73-0.08
		c0.72-0.09,1.43-0.18,2.14-0.28c0.14-0.02,0.29-0.04,0.43-0.06c24.64-3.6,46.31-16.47,61.36-34.94
		c-6.28-5.34-14.33-13.21-21.03-23.06l-6.65,3.77c-0.74,0.42-1.56,0.63-2.36,0.63c-1.34,0-2.65-0.57-3.57-1.6
		c-17.61,17.79-42.03,28.82-69.03,28.82c-16.37,0-31.79-4.07-45.32-11.24c-0.98,0.88-1.93,1.73-2.84,2.51
		c17.78,22.01,44.95,36.11,75.42,36.15c0.09,0,0.17,0,0.26,0C101.15,197.49,101.91,197.48,102.67,197.46z"/>
	<path class="st3" d="M153.88,19.18c5.58,8.42,9.87,17.75,12.63,27.73c3.11-3.2,6.14-6,8.85-8.31
		C169.22,31.11,161.98,24.55,153.88,19.18z"/>
	<path d="M163.69,66.74c2.31,1.31,3.13,4.24,1.82,6.55c-0.89,1.56-2.51,2.44-4.19,2.44c-0.8,0-1.61-0.2-2.36-0.63l-1.01-0.57
		c-3.31,6.29-5.8,13.24-6.57,20.65h4.34c2.65,0,4.81,2.15,4.81,4.81c0,2.66-2.15,4.81-4.81,4.81h-4.34
		c0.65,6.24,2.52,12.15,5.07,17.62c8.62-14.52,13.57-31.47,13.57-49.58c0-4.86-0.36-9.64-1.05-14.31c-2.04,2.39-4.08,5-6.02,7.8
		L163.69,66.74z"/>
	<path class="st3" d="M197.37,96.97c-0.03-0.88-0.07-1.75-0.13-2.62c-0.01-0.19-0.02-0.38-0.03-0.57
		c-1.15-17.48-6.92-33.7-16.1-47.44c-3.33,2.88-7.73,7.03-12.14,12.19c0.69,4.67,1.05,9.45,1.05,14.31
		c0,18.11-4.95,35.06-13.57,49.58c0.48,1.03,0.97,2.04,1.5,3.03l1.01-0.57c2.29-1.3,5.24-0.5,6.55,1.81
		c1.31,2.31,0.49,5.25-1.82,6.56l-0.74,0.42c6.16,8.91,13.4,15.89,18.28,20.1c8.27-12.47,13.75-26.94,15.55-42.52
		c0.02-0.15,0.03-0.3,0.05-0.45c0.24-2.21,0.41-4.44,0.51-6.69c0.01-0.27,0.02-0.53,0.03-0.8c0.04-1.06,0.06-2.13,0.06-3.2
		c0-0.54-0.02-1.09-0.03-1.63C197.39,97.99,197.38,97.48,197.37,96.97z"/>
	<path d="M37.05,133.68l-0.74-0.42c-2.31-1.31-3.13-4.24-1.82-6.56c1.31-2.31,4.25-3.12,6.55-1.81l1.01,0.57
		c3.31-6.29,5.8-13.24,6.57-20.65h-4.34c-2.66,0-4.81-2.15-4.81-4.81c0-2.66,2.15-4.81,4.81-4.81h4.34
		c-0.77-7.41-3.26-14.36-6.57-20.65l-1.01,0.57c-0.74,0.42-1.56,0.63-2.36,0.63c-1.67,0-3.3-0.88-4.19-2.44
		c-1.31-2.31-0.49-5.25,1.82-6.55l0.74-0.42c-6.16-8.91-13.4-15.89-18.28-20.1C10.51,58.69,5.04,73.15,3.23,88.71
		c-0.02,0.17-0.04,0.35-0.06,0.52c-0.12,1.12-0.23,2.24-0.32,3.38c0,0.03,0,0.07-0.01,0.1c-0.08,1.04-0.13,2.1-0.18,3.15
		c-0.01,0.29-0.02,0.58-0.03,0.87c-0.04,1.05-0.06,2.11-0.06,3.17c0,0.04,0,0.07,0,0.11c0,0.04,0,0.07,0,0.11
		c0,1.06,0.02,2.12,0.06,3.17c0.01,0.29,0.02,0.58,0.03,0.87c0.04,1.05,0.1,2.1,0.18,3.14c0,0.03,0,0.07,0.01,0.1
		c0.09,1.13,0.19,2.25,0.32,3.37c0.02,0.17,0.04,0.35,0.06,0.52c1.8,15.56,7.28,30.02,15.54,42.48
		C23.65,149.56,30.89,142.58,37.05,133.68z"/>
</g>
</svg>
