<?xml version="1.0" encoding="utf-8"?>
<!-- Generator: Adobe Illustrator 26.0.1, SVG Export Plug-In . SVG Version: 6.00 Build 0)  -->
<svg version="1.1" id="Layer_1" xmlns="http://www.w3.org/2000/svg" xmlns:xlink="http://www.w3.org/1999/xlink" x="0px" y="0px"
	 viewBox="0 0 200 200" style="enable-background:new 0 0 200 200;" xml:space="preserve">
<style type="text/css">
	.st0{fill-rule:evenodd;clip-rule:evenodd;}
	.st1{enable-background:new    ;}
	.st2{opacity:0.65;}
	.st3{opacity:0.64;}
	.st4{opacity:0.5;}
	.st5{opacity:0.8;}
	.st6{fill-rule:evenodd;clip-rule:evenodd;enable-background:new    ;}
</style>
<g>
	<path d="M80.84,195.62c-7.45-1.48-14.77-3.83-21.77-7.07c-0.2-0.09-0.4-0.19-0.6-0.29c-1.07-0.5-2.12-1.02-3.17-1.56
		c-0.67-0.35-1.33-0.7-1.98-1.07c-0.57-0.3-1.13-0.61-1.69-0.93c-0.9-0.52-1.8-1.06-2.69-1.61c-0.29-0.18-0.58-0.36-0.86-0.54
		c-1.05-0.66-2.1-1.34-3.13-2.05c-0.05-0.03-0.09-0.07-0.14-0.1c-2.56-3.72-4.8-7.58-6.78-11.52c-11.87-23.57-13.47-50.53-5.3-74.79
		c6.82,7.14,13.42,17.72,17.99,33.48c6.16,21.25,10.94,35.85,15.95,46.71C70.91,183.5,75.31,190.03,80.84,195.62z"/>
	<path d="M24.93,87.33c-9.05-6.37-17.24-7.65-20.16-7.9c-6.04,28.24,0.48,58.66,19.62,82.16C15.63,137.44,15.96,111.06,24.93,87.33z
		"/>
	<path d="M78.32,28.78c-5.78-8.89-7.65-17.06-8.26-21.56c-12.83,4.12-24.97,10.94-35.5,20.5L52.9,46.07
		C60.66,38.97,69.23,33.21,78.32,28.78z"/>
	<path d="M46.1,52.88L27.76,34.52C18.21,45.06,11.39,57.21,7.28,70.05c4.5,0.61,12.67,2.48,21.55,8.27
		C33.25,69.22,39.01,60.63,46.1,52.88z"/>
	<path d="M161.54,24.34C143.69,9.78,121.84,2.5,100,2.5c-6.9,0-13.79,0.75-20.56,2.2c0.25,2.92,1.52,11.12,7.89,20.17
		C111.04,15.91,137.4,15.57,161.54,24.34z"/>
	<path d="M181.57,153.43c-0.13,0.21-0.27,0.42-0.41,0.62c-0.7,1.05-1.43,2.09-2.17,3.12c-0.23,0.32-0.46,0.63-0.69,0.95
		c-0.69,0.93-1.4,1.84-2.13,2.75c-0.28,0.35-0.55,0.7-0.83,1.05c-0.76,0.92-1.54,1.82-2.34,2.72c-0.25,0.28-0.5,0.58-0.76,0.86
		l-25.03-25.05L59.72,52.89c7.49-6.81,15.81-12.27,24.64-16.35c8.13,8.91,20.77,17.66,40.5,23.39
		c23.55,6.83,38.26,11.85,48.46,16.97c11.88,5.95,17.64,12.03,24.07,21.24C197.76,117.39,192.5,136.73,181.57,153.43z"/>
	<path d="M195.54,80.83c-5.78-5.72-12.56-10.23-22.28-14.62c-10.75-4.85-25.11-9.54-45.72-15.52
		c-15.75-4.57-26.32-11.18-33.46-18.01c23.76-8.01,50.09-6.62,73.3,4.6c4.44,2.15,8.78,4.62,12.95,7.49c0.03,0.05,0.06,0.1,0.1,0.14
		c0.7,1.03,1.37,2.06,2.03,3.1c0.2,0.31,0.39,0.62,0.58,0.93c0.53,0.87,1.05,1.74,1.56,2.62c0.34,0.6,0.68,1.21,1.01,1.82
		c0.33,0.61,0.66,1.22,0.98,1.84c0.59,1.13,1.16,2.27,1.7,3.43c0.05,0.11,0.11,0.22,0.16,0.33
		C191.69,66.01,194.05,73.35,195.54,80.83z"/>
	<path d="M165.44,172.31c-0.28,0.26-0.57,0.5-0.86,0.75c-0.9,0.8-1.8,1.59-2.72,2.34c-0.35,0.29-0.7,0.56-1.04,0.84
		c-0.91,0.72-1.83,1.44-2.75,2.13c-0.32,0.23-0.64,0.46-0.96,0.69c-1.02,0.74-2.05,1.47-3.09,2.16c-0.22,0.15-0.43,0.29-0.65,0.43
		c-16.69,10.93-36,16.2-55.24,15.83c-8.99-6.29-15-11.94-20.82-23.3c-5.25-10.23-10.35-25.11-17.36-49.29
		c-5.72-19.75-14.47-32.4-23.37-40.54c4.08-8.83,9.54-17.16,16.34-24.66l87.53,87.61L165.44,172.31z"/>
</g>
</svg>
