<?xml version="1.0" encoding="utf-8"?>
<!-- Generator: Adobe Illustrator 26.0.1, SVG Export Plug-In . SVG Version: 6.00 Build 0)  -->
<svg version="1.1" id="Layer_1" xmlns="http://www.w3.org/2000/svg" xmlns:xlink="http://www.w3.org/1999/xlink" x="0px" y="0px"
	 viewBox="0 0 200 200" style="enable-background:new 0 0 200 200;" xml:space="preserve">
<style type="text/css">
	.st0{fill-rule:evenodd;clip-rule:evenodd;}
	.st1{enable-background:new    ;}
	.st2{opacity:0.65;}
	.st3{opacity:0.64;}
	.st4{opacity:0.5;}
	.st5{opacity:0.8;}
	.st6{fill-rule:evenodd;clip-rule:evenodd;enable-background:new    ;}
</style>
<g>
	<path d="M50.72,127.57c-4.57-15.76-11.17-26.34-17.99-33.48c-8.17,24.27-6.57,51.22,5.3,74.79c9.04,3.1,18.65,4.97,28.64,5.4
		C61.66,163.42,56.88,148.82,50.72,127.57z"/>
	<path class="st2" d="M44.95,180.5c1.03,0.71,2.08,1.39,3.13,2.06c0.29,0.18,0.57,0.36,0.86,0.54c0.89,0.55,1.79,1.09,2.7,1.61
		c0.56,0.32,1.12,0.63,1.68,0.94c0.66,0.36,1.32,0.72,1.98,1.06c1.05,0.54,2.11,1.07,3.17,1.57c0.2,0.09,0.4,0.2,0.6,0.29
		c7.01,3.24,14.32,5.59,21.77,7.07c-5.53-5.59-9.93-12.12-14.17-21.34c-9.99-0.43-19.6-2.3-28.64-5.4c1.98,3.94,4.22,7.8,6.78,11.52
		C44.86,180.44,44.9,180.47,44.95,180.5z"/>
	<path d="M24.93,87.33c-9.05-6.37-17.24-7.65-20.16-7.9c-6.04,28.24,0.48,58.66,19.62,82.16C15.63,137.44,15.96,111.06,24.93,87.33z
		"/>
	<path d="M78.32,28.78c-5.78-8.89-7.65-17.06-8.26-21.56c-12.83,4.12-24.97,10.94-35.5,20.5L52.9,46.07
		C60.66,38.97,69.23,33.21,78.32,28.78z"/>
	<path d="M46.1,52.88L27.76,34.52C18.21,45.06,11.39,57.21,7.28,70.05c4.5,0.61,12.67,2.48,21.55,8.27
		C33.25,69.22,39.01,60.63,46.1,52.88z"/>
	<path d="M161.54,24.34C143.69,9.78,121.84,2.5,100,2.5c-6.9,0-13.79,0.75-20.56,2.2c0.25,2.92,1.52,11.12,7.89,20.17
		C111.04,15.91,137.4,15.57,161.54,24.34z"/>
	<path d="M124.86,59.93c-19.73-5.73-32.37-14.48-40.5-23.39c-8.83,4.08-17.15,9.54-24.64,16.35l87.49,87.56
		c15.29-17.01,24.96-39.16,26.11-63.55C163.12,71.79,148.41,66.77,124.86,59.93z"/>
	<path class="st2" d="M173,164.64c0.79-0.9,1.58-1.8,2.33-2.72c0.28-0.35,0.56-0.7,0.84-1.05c0.73-0.91,1.44-1.82,2.13-2.75
		c0.23-0.31,0.46-0.63,0.69-0.95c0.74-1.03,1.47-2.07,2.17-3.12c0.14-0.21,0.28-0.41,0.41-0.62c10.93-16.7,16.19-36.04,15.82-55.3
		c-6.43-9.21-12.19-15.29-24.07-21.24c-1.14,24.39-10.82,46.55-26.11,63.55l25.03,25.05C172.5,165.22,172.75,164.93,173,164.64z"/>
	<path d="M94.08,32.68c7.13,6.83,17.71,13.43,33.45,18c20.62,5.98,34.97,10.67,45.72,15.52c-0.57-10.11-2.6-19.82-5.88-28.93
		C144.17,26.06,117.84,24.68,94.08,32.68z"/>
	<path class="st2" d="M188.45,58.99c-0.05-0.11-0.11-0.22-0.16-0.34c-0.54-1.15-1.11-2.3-1.69-3.43c-0.32-0.62-0.65-1.23-0.99-1.84
		c-0.33-0.61-0.67-1.21-1.01-1.82c-0.51-0.88-1.02-1.75-1.56-2.62c-0.19-0.31-0.38-0.62-0.58-0.92c-0.66-1.04-1.33-2.08-2.04-3.1
		c-0.03-0.05-0.06-0.09-0.1-0.14c-4.17-2.88-8.51-5.35-12.95-7.49c3.29,9.11,5.32,18.82,5.88,28.93c9.72,4.39,16.5,8.9,22.28,14.62
		C194.05,73.35,191.69,66.02,188.45,58.99z"/>
	<path d="M52.92,59.69c-6.8,7.5-12.26,15.83-16.34,24.66c8.91,8.14,17.65,20.79,23.37,40.53c7.01,24.19,12.11,39.06,17.36,49.3
		c24.31-1.45,46.32-11.38,63.14-26.89L52.92,59.69z"/>
	<path class="st2" d="M98.13,197.48c19.23,0.37,38.55-4.9,55.24-15.83c0.22-0.14,0.43-0.29,0.65-0.43c1.04-0.7,2.07-1.42,3.09-2.16
		c0.32-0.23,0.64-0.46,0.95-0.7c0.93-0.69,1.84-1.4,2.75-2.13c0.35-0.28,0.7-0.55,1.04-0.83c0.92-0.76,1.83-1.54,2.73-2.34
		c0.29-0.25,0.58-0.5,0.86-0.75l-24.99-25.01c-16.81,15.51-38.83,25.44-63.14,26.89C83.13,185.55,89.14,191.19,98.13,197.48z"/>
</g>
</svg>
