<?xml version="1.0" encoding="utf-8"?>
<!-- Generator: Adobe Illustrator 26.0.1, SVG Export Plug-In . SVG Version: 6.00 Build 0)  -->
<svg version="1.1" id="Layer_1" xmlns="http://www.w3.org/2000/svg" xmlns:xlink="http://www.w3.org/1999/xlink" x="0px" y="0px"
	 viewBox="0 0 200 200" style="enable-background:new 0 0 200 200;" xml:space="preserve">
<style type="text/css">
	.st0{fill-rule:evenodd;clip-rule:evenodd;}
	.st1{enable-background:new    ;}
	.st2{opacity:0.65;}
	.st3{opacity:0.64;}
	.st4{opacity:0.5;}
	.st5{opacity:0.8;}
	.st6{fill-rule:evenodd;clip-rule:evenodd;enable-background:new    ;}
</style>
<path class="st1" d="M100,2.5C46.15,2.5,2.5,46.15,2.5,100c0,53.85,43.65,97.5,97.5,97.5c53.85,0,97.5-43.65,97.5-97.5
	C197.5,46.15,153.85,2.5,100,2.5z M100,167.79c-11.4-0.01-20.65-8.59-20.65-19.18h41.29C120.65,159.2,111.4,167.78,100,167.79z
	 M158.09,131.8c-0.01,4.59-3.74,8.3-8.32,8.29H50.23c0,0-0.01,0-0.01,0c-4.59,0-8.31-3.71-8.32-8.3c0-2.09,0.8-4.09,2.24-5.6
	c5.01-5.38,14.39-13.48,14.39-40.02c-0.03-19.64,13.9-36.54,33.18-40.26v-5.41c0-4.58,3.71-8.29,8.29-8.29c4.58,0,8.3,3.71,8.3,8.29
	v5.38c19.28,3.73,33.21,20.62,33.18,40.26c0,26.53,9.38,34.63,14.39,40.02h-0.02C157.3,127.68,158.1,129.7,158.09,131.8
	C158.09,131.8,158.09,131.8,158.09,131.8z"/>
</svg>
