<?xml version="1.0" encoding="utf-8"?>
<!-- Generator: Adobe Illustrator 26.0.1, SVG Export Plug-In . SVG Version: 6.00 Build 0)  -->
<svg version="1.1" id="Layer_1" xmlns="http://www.w3.org/2000/svg" xmlns:xlink="http://www.w3.org/1999/xlink" x="0px" y="0px"
	 viewBox="0 0 152.21 200" style="enable-background:new 0 0 152.21 200;" xml:space="preserve">
<style type="text/css">
	.st0{fill-rule:evenodd;clip-rule:evenodd;}
	.st1{enable-background:new    ;}
	.st2{opacity:0.65;}
	.st3{opacity:0.64;}
	.st4{opacity:0.5;}
	.st5{opacity:0.8;}
	.st6{fill-rule:evenodd;clip-rule:evenodd;enable-background:new    ;}
</style>
<g id="Mask_Group_9_00000152242733350354721140000014928272867004085683_" transform="translate(-397 -170.815)">
	<g id="BitcoinSign_00000100368198620712936020000015348716050995048627_" transform="translate(401.84 170.815)">
		<g id="Group_682_00000044172580563118554350000017491298017534104511_" transform="translate(0 0)">
			<path id="Path_410_00000099623312528399172310000014123583065305086374_" d="M115.68,92.72c11.4-5.41,17.74-17.81,15.44-30.22
				c-2.05-21.3-20.45-28.44-43.69-30.47V2.5h-18v28.77c-4.73,0-9.56,0.09-14.37,0.19V2.5H37.07v29.53
				c-3.9,0.08-7.72,0.16-11.44,0.16V32.1H0.77v19.2c0,0,13.3-0.25,13.07,0c5.02-0.63,9.62,2.87,10.36,7.87v80.92
				c-0.21,3.51-3.23,6.17-6.73,5.96c-0.01,0-0.02,0-0.03,0c0.23,0.21-13.1,0-13.1,0L0.76,167.5h23.42c4.36,0,8.65,0.07,12.87,0.11
				v29.87h17.98v-29.54c4.95,0.1,9.72,0.14,14.38,0.14v29.42h18v-29.82c30.26-1.74,51.44-9.35,54.08-37.74
				C143.63,107.08,132.86,96.88,115.68,92.72z M55.48,52.55c10.15,0,42.08-3.23,42.08,17.96c0,20.31-31.92,17.94-42.08,17.94V52.55z
				 M55.48,146.16v-39.54c12.19,0,50.46-3.5,50.46,19.78c0.01,22.33-38.26,19.79-50.46,19.8L55.48,146.16z"/>
		</g>
	</g>
</g>
</svg>
