<?xml version="1.0" encoding="utf-8"?>
<!-- Generator: Adobe Illustrator 26.0.1, SVG Export Plug-In . SVG Version: 6.00 Build 0)  -->
<svg version="1.1" id="Layer_1" xmlns="http://www.w3.org/2000/svg" xmlns:xlink="http://www.w3.org/1999/xlink" x="0px" y="0px"
	 viewBox="0 0 200 200" style="enable-background:new 0 0 200 200;" xml:space="preserve">
<style type="text/css">
	.st0{fill-rule:evenodd;clip-rule:evenodd;}
	.st1{enable-background:new    ;}
	.st2{opacity:0.65;}
	.st3{opacity:0.64;}
	.st4{opacity:0.5;}
	.st5{opacity:0.8;}
	.st6{fill-rule:evenodd;clip-rule:evenodd;enable-background:new    ;}
</style>
<path id="Icon_awesome-calendar-day_00000114052350960675434710000003578993017052652933_" class="st1" d="M6.19,177.39
	c0,11.1,9,20.11,20.11,20.11h147.41c11.1,0,20.11-9,20.11-20.11V63.48H6.19V177.39z M29.7,92.92c0.01-2.59,2.11-4.68,4.69-4.69
	h28.18c2.59,0.01,4.68,2.11,4.69,4.69v28.18c-0.01,2.59-2.11,4.68-4.69,4.69H34.39c-2.59-0.01-4.68-2.11-4.69-4.69V92.92z
	 M173.71,19.59h-20.09V9.2c-0.01-3.7-3.01-6.69-6.71-6.7h-13.4c-3.69,0.01-6.68,3-6.7,6.7v10.39H73.2V9.2
	c-0.01-3.7-3.01-6.69-6.71-6.7H53.1c-3.69,0.01-6.68,3-6.7,6.7v10.39H26.29c-11.1,0-20.11,9-20.11,20.11l0,0v13.79h187.63V39.7
	C193.81,28.59,184.81,19.59,173.71,19.59L173.71,19.59z"/>
</svg>
