<?xml version="1.0" encoding="utf-8"?>
<!-- Generator: Adobe Illustrator 26.0.1, SVG Export Plug-In . SVG Version: 6.00 Build 0)  -->
<svg version="1.1" id="Layer_1" xmlns="http://www.w3.org/2000/svg" xmlns:xlink="http://www.w3.org/1999/xlink" x="0px" y="0px"
	 viewBox="0 0 200 200" style="enable-background:new 0 0 200 200;" xml:space="preserve">
<style type="text/css">
	.st0{fill-rule:evenodd;clip-rule:evenodd;}
	.st1{enable-background:new    ;}
	.st2{opacity:0.65;}
	.st3{opacity:0.64;}
	.st4{opacity:0.5;}
	.st5{opacity:0.8;}
	.st6{fill-rule:evenodd;clip-rule:evenodd;enable-background:new    ;}
</style>
<path id="Icon_awesome-times-circle_00000160907652146808335290000008831887903646444446_" class="st1" d="M99.99,2.5
	C46.14,2.5,2.5,46.13,2.5,99.99c0,53.87,43.64,97.51,97.49,97.51c53.86,0,97.51-43.64,97.51-97.51C197.5,46.13,153.86,2.5,99.99,2.5
	z M158.1,74.01l-68.81,68.8c-2.34,2.33-6.13,2.33-8.47,0l-38.89-38.88c-2.34-2.34-2.34-6.13,0-8.46l8.46-8.46
	c2.34-2.34,6.13-2.34,8.46,0l26.21,26.19l56.12-56.1c2.33-2.34,6.12-2.34,8.46,0l8.46,8.46C160.44,67.89,160.44,71.68,158.1,74.01z"
	/>
</svg>
