<?xml version="1.0" encoding="utf-8"?>
<!-- Generator: Adobe Illustrator 26.0.1, SVG Export Plug-In . SVG Version: 6.00 Build 0)  -->
<svg version="1.1" id="Layer_1" xmlns="http://www.w3.org/2000/svg" xmlns:xlink="http://www.w3.org/1999/xlink" x="0px" y="0px"
	 viewBox="0 0 200 200" style="enable-background:new 0 0 200 200;" xml:space="preserve">
<style type="text/css">
	.st0{fill-rule:evenodd;clip-rule:evenodd;}
	.st1{enable-background:new    ;}
	.st2{opacity:0.65;}
	.st3{opacity:0.64;}
	.st4{opacity:0.5;}
	.st5{opacity:0.8;}
	.st6{fill-rule:evenodd;clip-rule:evenodd;enable-background:new    ;}
</style>
<g>
	<g id="Exclusion_53_00000028305941991935024230000009782273690901260180_">
		<path d="M100.02,165.64c-35.9,0-65-29.1-65-65s29.1-65,65-65s65,29.1,65,65C164.99,136.52,135.91,165.6,100.02,165.64z
			 M66.95,93.54c-1.16-0.01-2.28,0.45-3.1,1.28l-6.13,6.16c-0.81,0.8-1.28,1.89-1.28,3.03c-0.01,1.18,0.45,2.31,1.28,3.14
			l28.28,28.28c0.82,0.82,1.94,1.28,3.1,1.27c1.15,0.01,2.26-0.45,3.07-1.27l50.09-50.08c1.7-1.67,1.71-4.41,0.04-6.1
			c-0.01-0.01-0.03-0.03-0.04-0.04l-6.13-6.16c-0.82-0.82-1.94-1.28-3.1-1.27c-1.15-0.01-2.26,0.45-3.07,1.27L89.09,113.9
			L70.03,94.83C69.22,94,68.11,93.53,66.95,93.54z"/>
	</g>
	<g id="Ellipse_103_00000085221055757647545760000009086374700998170528_">
		<g>
			<path d="M100,197.97c-53.76,0-97.5-43.74-97.5-97.5S46.24,2.97,100,2.97s97.5,43.74,97.5,97.5S153.76,197.97,100,197.97z
				 M100,11.09c-49.28,0-89.38,40.09-89.38,89.38s40.09,89.38,89.38,89.38s89.38-40.09,89.38-89.38S149.28,11.09,100,11.09z"/>
		</g>
	</g>
</g>
</svg>
