<?xml version="1.0" encoding="utf-8"?>
<!-- Generator: Adobe Illustrator 26.0.1, SVG Export Plug-In . SVG Version: 6.00 Build 0)  -->
<svg version="1.1" id="Layer_1" xmlns="http://www.w3.org/2000/svg" xmlns:xlink="http://www.w3.org/1999/xlink" x="0px" y="0px"
	 viewBox="0 0 200 200" style="enable-background:new 0 0 200 200;" xml:space="preserve">
<style type="text/css">
	.st0{fill-rule:evenodd;clip-rule:evenodd;}
	.st1{enable-background:new    ;}
	.st2{opacity:0.65;}
	.st3{opacity:0.64;}
	.st4{opacity:0.5;}
	.st5{opacity:0.8;}
	.st6{fill-rule:evenodd;clip-rule:evenodd;enable-background:new    ;}
</style>
<path id="Icon_awesome-clock_00000100367779792215869880000012393243097687313855_" class="st1" d="M100,2.5
	c53.85,0,97.5,43.65,97.5,97.5s-43.65,97.5-97.5,97.5S2.5,153.85,2.5,100l0,0C2.5,46.15,46.15,2.5,100,2.5z M77.6,140.13l34.62-25.2
	c1.21-0.89,1.93-2.31,1.94-3.81V44.95c-0.01-2.6-2.11-4.71-4.72-4.72H90.55c-2.6,0.01-4.71,2.11-4.72,4.72v54.14l-24.96,18.16
	c-2.11,1.53-2.57,4.48-1.04,6.59c0,0.01,0.01,0.01,0.01,0.02l11.09,15.26c1.55,2.12,4.52,2.58,6.64,1.03
	C77.59,140.14,77.6,140.14,77.6,140.13z"/>
</svg>
