<?xml version="1.0" encoding="utf-8"?>
<!-- Generator: Adobe Illustrator 26.0.1, SVG Export Plug-In . SVG Version: 6.00 Build 0)  -->
<svg version="1.1" id="Layer_1" xmlns="http://www.w3.org/2000/svg" xmlns:xlink="http://www.w3.org/1999/xlink" x="0px" y="0px"
	 viewBox="0 0 200 200" style="enable-background:new 0 0 200 200;" xml:space="preserve">
<style type="text/css">
	.st0{fill-rule:evenodd;clip-rule:evenodd;}
	.st1{enable-background:new    ;}
	.st2{opacity:0.65;}
	.st3{opacity:0.64;}
	.st4{opacity:0.5;}
	.st5{opacity:0.8;}
	.st6{fill-rule:evenodd;clip-rule:evenodd;enable-background:new    ;}
</style>
<g id="Icon_awesome-cog_00000152978112276843502810000011312534642352450231_" class="st1">
	<path d="M100.01,197.5c-7.22,0-14.43-0.78-21.45-2.34c-4.99-1.1-8.48-5.45-8.48-10.57v-13.66c-5.9-2.48-11.43-5.68-16.52-9.56
		l-11.82,6.82c-4.45,2.53-9.93,1.68-13.37-2.05c-9.76-10.58-17.19-23.43-21.49-37.18c-1.5-4.9,0.53-10.07,4.93-12.62l11.84-6.85
		c-0.79-6.34-0.79-12.71,0-19.05l-11.84-6.83c-4.37-2.48-6.46-7.81-4.93-12.64c4.27-13.73,11.71-26.6,21.5-37.18
		c3.35-3.71,9.01-4.59,13.39-2.02l11.78,6.83c5.09-3.85,10.62-7.03,16.5-9.52V15.41c0-5.12,3.49-9.47,8.49-10.57
		c14.02-3.12,28.85-3.12,42.88,0c4.99,1.12,8.47,5.47,8.47,10.57v13.62c5.9,2.47,11.43,5.67,16.51,9.53l11.8-6.82
		c4.45-2.53,9.93-1.69,13.37,2.04c9.77,10.58,17.2,23.45,21.5,37.18c1.5,4.89-0.53,10.06-4.93,12.62l-11.85,6.85
		c0.79,6.34,0.79,12.71,0,19.05l13.5,8.04c3.21,2.76,4.59,7.18,3.37,11.37c-4.31,13.87-11.75,26.74-21.54,37.31
		c-3.35,3.71-9.01,4.59-13.39,2.02l-11.82-6.82c-5.09,3.84-10.61,7.03-16.49,9.52v13.68c0,5.12-3.49,9.47-8.49,10.57
		C114.43,196.72,107.22,197.49,100.01,197.5z M82.93,182.95c11.21,2.26,22.95,2.26,34.15,0v-20.96l4.27-1.52
		c7.46-2.66,14.3-6.61,20.32-11.74l3.45-2.94l18.15,10.48c7.64-8.59,13.51-18.75,17.11-29.6l-18.25-10.54l0.83-4.46
		c1.44-7.78,1.44-15.66,0-23.44l-0.83-4.46l18.18-10.5c-3.61-10.84-9.5-21.01-17.1-29.58l-18.15,10.5l-3.46-2.98
		c-5.98-5.14-12.79-9.09-20.26-11.7l-4.3-1.51V17.05c-11.19-2.28-22.93-2.27-34.14,0v20.97l-4.27,1.52
		c-7.47,2.65-14.31,6.6-20.33,11.73l-3.46,2.94L36.74,43.72c-7.63,8.59-13.5,18.74-17.1,29.58l18.18,10.5L37,88.26
		c-1.44,7.77-1.44,15.65,0,23.43l0.83,4.47l-18.18,10.5c3.61,10.84,9.5,21.01,17.1,29.58l18.17-10.48l3.46,2.98
		c5.99,5.16,12.8,9.11,20.26,11.73l4.3,1.51V182.95z M162.18,157.48c-0.01,0.01-0.02,0.03-0.03,0.03
		C162.16,157.51,162.17,157.49,162.18,157.48z M164.68,157.09l0.02,0.01C164.69,157.1,164.68,157.09,164.68,157.09z M19.15,74.81
		c0,0.01,0,0.01,0,0.01C19.15,74.82,19.15,74.82,19.15,74.81z M18.2,72.47l0.03,0.01C18.22,72.48,18.21,72.47,18.2,72.47z
		 M35.31,42.89c0.01,0,0.01,0.01,0.01,0.01L35.31,42.89z M37.86,42.49c-0.01,0.01-0.02,0.02-0.03,0.03
		C37.85,42.5,37.86,42.49,37.86,42.49z M99.98,135.75h-0.03c-19.74,0-35.8-16.06-35.8-35.8s16.06-35.8,35.8-35.8
		c19.74,0,35.8,16.06,35.8,35.8C135.72,119.65,119.68,135.71,99.98,135.75z M99.95,77C87.29,77,77,87.3,77,99.95
		s10.29,22.95,22.95,22.95h0.02c12.62-0.03,22.91-10.33,22.93-22.96C122.9,87.3,112.61,77,99.95,77z"/>
</g>
</svg>
