<?xml version="1.0" encoding="utf-8"?>
<!-- Generator: Adobe Illustrator 26.0.1, SVG Export Plug-In . SVG Version: 6.00 Build 0)  -->
<svg version="1.1" id="Layer_1" xmlns="http://www.w3.org/2000/svg" xmlns:xlink="http://www.w3.org/1999/xlink" x="0px" y="0px"
	 viewBox="0 0 200 200" style="enable-background:new 0 0 200 200;" xml:space="preserve">
<style type="text/css">
	.st0{fill-rule:evenodd;clip-rule:evenodd;}
	.st1{enable-background:new    ;}
	.st2{opacity:0.65;}
	.st3{opacity:0.64;}
	.st4{opacity:0.5;}
	.st5{opacity:0.8;}
	.st6{fill-rule:evenodd;clip-rule:evenodd;enable-background:new    ;}
</style>
<g>
	<g>
		<path d="M144.64,173.37v4.45c0,10.87-8.81,19.68-19.68,19.68H36.65c-10.88,0-19.69-8.81-19.69-19.68V46.3
			c0-10.87,8.81-19.68,19.69-19.68h18.71v120.79c0,14.31,11.64,25.96,25.96,25.96H144.64z"/>
	</g>
	<g>
		<path d="M183.04,15.91v131.51c0,7.41-6.02,13.42-13.42,13.42H81.31c-7.39,0-13.42-6.02-13.42-13.42V15.91
			c0-7.39,6.03-13.41,13.42-13.41h88.31C177.03,2.5,183.04,8.52,183.04,15.91z"/>
	</g>
</g>
</svg>
