<?xml version="1.0" encoding="utf-8"?>
<!-- Generator: Adobe Illustrator 26.0.1, SVG Export Plug-In . SVG Version: 6.00 Build 0)  -->
<svg version="1.1" id="Layer_1" xmlns="http://www.w3.org/2000/svg" xmlns:xlink="http://www.w3.org/1999/xlink" x="0px" y="0px"
	 viewBox="0 0 200 200" style="enable-background:new 0 0 200 200;" xml:space="preserve">
<style type="text/css">
	.st0{fill-rule:evenodd;clip-rule:evenodd;}
	.st1{enable-background:new    ;}
	.st2{opacity:0.65;}
	.st3{opacity:0.64;}
	.st4{opacity:0.5;}
	.st5{opacity:0.8;}
	.st6{fill-rule:evenodd;clip-rule:evenodd;enable-background:new    ;}
</style>
<g id="Icon_awesome-window-maximize_00000046319796107998725070000009821582995131257986_">
	<path d="M26.51,191.23c-13.74-0.43-24.41-11.79-24-25.3l0-132.07C2.11,20.55,12.78,9.2,26.29,8.77L173.6,8.77l0.11,0.01
		c13.51,0.43,24.18,11.78,23.77,25.3l0,132.07c0.4,13.31-10.26,24.66-23.78,25.08L26.51,191.23z M26.51,22.86
		c-5.54,0.18-10.09,5.02-9.92,10.79l0,132.5c-0.18,5.98,4.38,10.82,10.14,11.01l146.74-0.01c5.54-0.18,10.09-5.02,9.92-10.79
		l0-132.5c0.18-5.94-4.32-10.77-10.04-11H26.51z M174.9,82.99H25.12V44.34c-0.16-6.05,4.78-11.32,11.01-11.54l127.47-0.01
		c6.49,0.23,11.43,5.5,11.27,11.73L174.9,82.99z M39.21,68.9H160.8l-0.02-22.03L39.2,46.88L39.21,68.9z M160.78,44.35
		c0,0.03,0,0.08,0,0.12V44.35z M39.2,44.16v0.13C39.21,44.25,39.21,44.2,39.2,44.16z"/>
</g>
</svg>
