<?xml version="1.0" encoding="utf-8"?>
<!-- Generator: Adobe Illustrator 26.0.1, SVG Export Plug-In . SVG Version: 6.00 Build 0)  -->
<svg version="1.1" id="Layer_1" xmlns="http://www.w3.org/2000/svg" xmlns:xlink="http://www.w3.org/1999/xlink" x="0px" y="0px"
	 viewBox="0 0 200 200" style="enable-background:new 0 0 200 200;" xml:space="preserve">
<style type="text/css">
	.st0{fill-rule:evenodd;clip-rule:evenodd;}
	.st1{enable-background:new    ;}
	.st2{opacity:0.65;}
	.st3{opacity:0.64;}
	.st4{opacity:0.5;}
	.st5{opacity:0.8;}
	.st6{fill-rule:evenodd;clip-rule:evenodd;enable-background:new    ;}
</style>
<g id="Group_7882" transform="translate(-734.999 -905)">
	<path id="Exclusion_51" d="M835,1102.5c-25.87,0.07-50.7-10.22-68.95-28.56c-18.34-18.24-28.62-43.07-28.55-68.94
		c-0.07-25.87,10.21-50.7,28.56-68.94c18.24-18.34,43.07-28.63,68.94-28.56c25.87-0.07,50.7,10.21,68.95,28.56
		c18.34,18.25,28.62,43.07,28.55,68.94c0.07,25.87-10.21,50.7-28.55,68.94C885.7,1092.29,860.87,1102.57,835,1102.5z M818.43,953
		c-9.64,1.58-19.01,4.5-27.85,8.67c-15.66,22.48-22.77,49.82-20.04,77.08c10.31,7.7,21.89,13.53,34.21,17.24
		c2.79-3.74,5.24-7.71,7.33-11.87c-4-1.46-7.85-3.3-11.48-5.5c0.47-0.35,0.91-0.7,1.34-1.05l0.08-0.07l0.1-0.08
		c0.41-0.33,0.84-0.65,1.3-1c10.7,5.05,22.38,7.68,34.21,7.7c11.83-0.02,23.52-2.64,34.21-7.7c0.44,0.33,0.9,0.68,1.38,1.08
		l0.2,0.16c0.39,0.31,0.8,0.65,1.23,0.96c-3.68,2.2-7.57,4.04-11.6,5.5c2.09,4.16,4.54,8.13,7.33,11.87
		c12.31-3.74,23.89-9.57,34.21-17.24c2.81-27.32-4.34-54.74-20.15-77.21c-8.87-4.05-18.23-6.93-27.85-8.55
		c-1.31,2.38-2.5,4.82-3.56,7.33c-5.11-0.79-10.27-1.19-15.44-1.19c-5.18,0-10.35,0.4-15.46,1.19
		C821.05,957.81,819.82,955.36,818.43,953z M859.97,1023.12c-7.06-0.44-12.45-6.49-12.08-13.56c-0.37-7.08,5-13.16,12.08-13.65
		c3.1,0.01,6.06,1.28,8.21,3.5c2.6,2.74,4.01,6.4,3.9,10.18c0.35,7.06-5.05,13.1-12.1,13.54V1023.12z M815.02,1023.12
		c-7.07-0.43-12.47-6.48-12.1-13.56c-0.37-7.09,5.01-13.17,12.1-13.65c7.1,0.35,12.57,6.39,12.22,13.49c0,0.06,0,0.11-0.01,0.17
		c0.35,7.11-5.1,13.17-12.21,13.57V1023.12z"/>
</g>
</svg>
