<?xml version="1.0" encoding="utf-8"?>
<!-- Generator: Adobe Illustrator 26.0.1, SVG Export Plug-In . SVG Version: 6.00 Build 0)  -->
<svg version="1.1" id="Layer_1" xmlns="http://www.w3.org/2000/svg" xmlns:xlink="http://www.w3.org/1999/xlink" x="0px" y="0px"
	 viewBox="0 0 200 200" style="enable-background:new 0 0 200 200;" xml:space="preserve">
<style type="text/css">
	.st0{fill-rule:evenodd;clip-rule:evenodd;}
	.st1{enable-background:new    ;}
	.st2{opacity:0.65;}
	.st3{opacity:0.64;}
	.st4{opacity:0.5;}
	.st5{opacity:0.8;}
	.st6{fill-rule:evenodd;clip-rule:evenodd;enable-background:new    ;}
</style>
<path id="Icon_awesome-clock_00000116929059868304999750000008472662457697075630_" class="st1" d="M100,2.5
	c-26.93,0-51.3,10.91-68.94,28.56C13.41,48.7,2.5,73.08,2.5,100c0,53.85,43.65,97.5,97.5,97.5s97.5-43.65,97.5-97.5
	C197.5,46.15,153.85,2.5,100,2.5z M143.28,92.64l-36.79,45.27c-2.91,3.58-8.18,4.13-11.76,1.21c-0.45-0.36-0.85-0.77-1.22-1.21
	L56.73,92.64c-2.92-3.58-2.38-8.85,1.21-11.76c1.49-1.21,3.35-1.87,5.27-1.87h73.58c4.62,0,8.36,3.74,8.36,8.36
	C145.15,89.29,144.49,91.15,143.28,92.64z"/>
</svg>
