<?xml version="1.0" encoding="utf-8"?>
<!-- Generator: Adobe Illustrator 26.0.1, SVG Export Plug-In . SVG Version: 6.00 Build 0)  -->
<svg version="1.1" id="Layer_1" xmlns="http://www.w3.org/2000/svg" xmlns:xlink="http://www.w3.org/1999/xlink" x="0px" y="0px"
	 viewBox="0 0 200 200" style="enable-background:new 0 0 200 200;" xml:space="preserve">
<style type="text/css">
	.st0{fill-rule:evenodd;clip-rule:evenodd;}
	.st1{enable-background:new    ;}
	.st2{opacity:0.65;}
	.st3{opacity:0.64;}
	.st4{opacity:0.5;}
	.st5{opacity:0.8;}
	.st6{fill-rule:evenodd;clip-rule:evenodd;enable-background:new    ;}
</style>
<path class="st1" d="M99.99,2.5C46.14,2.5,2.5,46.13,2.5,99.99c0,53.87,43.64,97.51,97.49,97.51c53.86,0,97.51-43.64,97.51-97.51
	C197.5,46.13,153.86,2.5,99.99,2.5z M88.92,31.33h22.17c3.21,0,5.81,2.6,5.81,5.81l-2,76.77c0,3.21-2.6,5.81-5.81,5.81H90.92
	c-3.21,0-5.81-2.6-5.81-5.81l-2-76.77C83.11,33.94,85.71,31.33,88.92,31.33z M100.01,168.67c-9.5,0-17.19-7.69-17.19-17.17
	c0-9.5,7.69-17.19,17.19-17.19c9.5,0.01,17.17,7.7,17.17,17.19S109.49,168.67,100.01,168.67z"/>
</svg>
