<?xml version="1.0" encoding="utf-8"?>
<!-- Generator: Adobe Illustrator 26.0.1, SVG Export Plug-In . SVG Version: 6.00 Build 0)  -->
<svg version="1.1" id="Layer_1" xmlns="http://www.w3.org/2000/svg" xmlns:xlink="http://www.w3.org/1999/xlink" x="0px" y="0px"
	 viewBox="0 0 79.19 200" style="enable-background:new 0 0 79.19 200;" xml:space="preserve">
<style type="text/css">
	.st0{fill-rule:evenodd;clip-rule:evenodd;}
	.st1{enable-background:new    ;}
	.st2{opacity:0.65;}
	.st3{opacity:0.64;}
	.st4{opacity:0.5;}
	.st5{opacity:0.8;}
	.st6{fill-rule:evenodd;clip-rule:evenodd;enable-background:new    ;}
</style>
<g>
	<path class="st1" d="M39.61,196.81c-13.39,0-24.23-10.84-24.23-24.21c0-13.39,10.84-24.23,24.23-24.23
		c13.39,0.02,24.21,10.86,24.21,24.23C63.82,185.97,52.97,196.81,39.61,196.81z"/>
	<path d="M55.22,3.19H23.97c-4.52,0-8.19,3.67-8.19,8.19l2.82,108.23c0,4.52,3.67,8.19,8.19,8.19H52.4c4.52,0,8.19-3.67,8.19-8.19
		l2.82-108.23C63.41,6.86,59.75,3.19,55.22,3.19z"/>
</g>
</svg>
