<?xml version="1.0" encoding="utf-8"?>
<!-- Generator: Adobe Illustrator 26.0.1, SVG Export Plug-In . SVG Version: 6.00 Build 0)  -->
<svg version="1.1" id="Layer_1" xmlns="http://www.w3.org/2000/svg" xmlns:xlink="http://www.w3.org/1999/xlink" x="0px" y="0px"
	 viewBox="0 0 200 200" style="enable-background:new 0 0 200 200;" xml:space="preserve">
<style type="text/css">
	.st0{fill-rule:evenodd;clip-rule:evenodd;}
	.st1{enable-background:new    ;}
	.st2{opacity:0.65;}
	.st3{opacity:0.64;}
	.st4{opacity:0.5;}
	.st5{opacity:0.8;}
	.st6{fill-rule:evenodd;clip-rule:evenodd;enable-background:new    ;}
</style>
<path id="arrows-expand_00000182491944182493106680000003088315191430158217_" class="st6" d="M100,14.7c3.37,0,6.09,2.73,6.09,6.09
	v158.42c0,3.37-2.73,6.09-6.09,6.09c-3.37,0-6.09-2.73-6.09-6.09V20.79C93.91,17.42,96.63,14.7,100,14.7z M195.71,95.69
	c2.38,2.38,2.39,6.23,0.01,8.62c0,0-0.01,0.01-0.01,0.01l-24.37,24.37c-2.38,2.38-6.25,2.38-8.63,0c-2.38-2.38-2.38-6.25,0-8.63l0,0
	l13.98-13.97h-46.22c-3.37,0-6.09-2.73-6.09-6.09c0-3.37,2.73-6.09,6.09-6.09h46.22l-13.98-13.97c-2.38-2.38-2.38-6.25,0-8.63
	c2.38-2.38,6.25-2.38,8.63,0l0,0L195.71,95.69z M75.63,100c0,3.37-2.73,6.09-6.09,6.09H23.31l13.98,13.97
	c2.38,2.38,2.38,6.25,0,8.63c-2.38,2.38-6.25,2.38-8.63,0L4.29,104.31c-2.38-2.38-2.39-6.23-0.01-8.62c0,0,0.01-0.01,0.01-0.01
	l24.37-24.37c2.38-2.38,6.25-2.38,8.63,0s2.38,6.25,0,8.63L23.31,93.91h46.22C72.9,93.91,75.63,96.63,75.63,100z"/>
</svg>
