<?xml version="1.0" encoding="utf-8"?>
<!-- Generator: Adobe Illustrator 26.0.1, SVG Export Plug-In . SVG Version: 6.00 Build 0)  -->
<svg version="1.1" id="Layer_1" xmlns="http://www.w3.org/2000/svg" xmlns:xlink="http://www.w3.org/1999/xlink" x="0px" y="0px"
	 viewBox="0 0 155.28 200" style="enable-background:new 0 0 155.28 200;" xml:space="preserve">
<style type="text/css">
	.st0{fill-rule:evenodd;clip-rule:evenodd;}
	.st1{enable-background:new    ;}
	.st2{opacity:0.65;}
	.st3{opacity:0.64;}
	.st4{opacity:0.5;}
	.st5{opacity:0.8;}
	.st6{fill-rule:evenodd;clip-rule:evenodd;enable-background:new    ;}
</style>
<g transform="matrix(1, 0, 0, 1, 0, 0)" class="st1">
	<path id="Exclusion_20-2_00000052079335151341007730000017136245583858209713_" d="M81.65,197.36c-7.62,0.29-15.23-0.86-22.43-3.38
		c-6.22-2.24-11.62-6.32-15.48-11.69l-0.98-1.42l-0.57-0.82c-5.16-6.4-8.63-13.99-10.09-22.08c-2.52,9.41-1.58,19.41,2.66,28.18
		c-20.44-12.32-32.72-34.66-32.17-58.52v-1.77C4,107.42,13.62,90.57,28.78,79.95c6.27-5,11.72-10.95,16.14-17.64
		c4.2-6.63,5.73-14.61,4.26-22.32c5.32,4.69,8.39,11.44,8.43,18.53c0.11,4.5-0.21,8.99-0.95,13.43c0.44-0.91,0.99-1.9,1.56-2.92
		l0.18-0.32c2.24-3.55,3.87-7.46,4.82-11.55C66.1,41.5,59.33,25.67,39.96,2.5l8.05,1.03c20.52,2.57,40.12,10.04,57.14,21.78
		c16.34,12.32,27.38,30.38,30.91,50.53c2.34,13.09,0.67,26.59-4.79,38.71c6.12-7.2,9.76-16.17,10.39-25.6l0.09-4.87
		c7.48,11.87,11.2,25.71,10.69,39.73c1.55,17.92-3.84,35.75-15.04,49.82C123.64,189.94,102.95,198.75,81.65,197.36z M69.25,23.72
		L69.25,23.72c5.12,17.38,7.95,39.79,2.78,50.65c-5.61,10.54-12.81,20.15-21.35,28.49c-7.39,7.92-13.22,14.17-13.22,19.57
		c-2.89,10.73-0.66,22.18,6.02,31.05c9.03,11.12,22.72,17.41,37.04,17.01c20.04-0.73,36.28-16.53,37.55-36.55
		c6.99-19.48,1.3-54.97-12.83-80.81c-9.1-12.92-21.54-23.11-36-29.49L69.25,23.72z M75.67,147.1c-1.04,0-2.08-0.1-3.1-0.3
		c-7.16-1.18-13.35-5.63-16.75-12.04c-2.46-5.05-2.46-10.95,0-16c0.53-2.7,4.03-5.2,8.44-8.44l0.09-0.07
		c5.02-3.3,9.5-7.36,13.29-12.03c3.65-7.96,4.87-16.81,3.52-25.45c6.57,4.58,11.77,10.87,15.04,18.18
		c4.62,13.5,4.1,28.23-1.44,41.38c-2.31,8.64-10.13,14.66-19.08,14.69V147.1z"/>
</g>
</svg>
