<?xml version="1.0" encoding="utf-8"?>
<!-- Generator: Adobe Illustrator 26.0.1, SVG Export Plug-In . SVG Version: 6.00 Build 0)  -->
<svg version="1.1" id="Layer_1" xmlns="http://www.w3.org/2000/svg" xmlns:xlink="http://www.w3.org/1999/xlink" x="0px" y="0px"
	 viewBox="0 0 200 200" style="enable-background:new 0 0 200 200;" xml:space="preserve">
<style type="text/css">
	.st0{fill-rule:evenodd;clip-rule:evenodd;}
	.st1{enable-background:new    ;}
	.st2{opacity:0.65;}
	.st3{opacity:0.64;}
	.st4{opacity:0.5;}
	.st5{opacity:0.8;}
	.st6{fill-rule:evenodd;clip-rule:evenodd;enable-background:new    ;}
</style>
<g>
	<path d="M160.55,100c0,3.33-2.66,6.06-6.05,6.06h-6.42c-2.73,21.86-20.11,39.29-42.03,42.02v6.42c0,3.33-2.66,6.05-6.05,6.05
		c-3.33,0-6.06-2.72-6.06-6.05v-6.42c-21.86-2.79-39.24-20.16-42.02-42.02H45.5c-3.33,0-6.05-2.73-6.05-6.06s2.72-6.05,6.05-6.05
		h6.42c2.78-21.87,20.16-39.24,42.02-42.03V45.5c0-3.33,2.73-6.05,6.06-6.05c3.39,0,6.05,2.72,6.05,6.05v6.42
		c21.92,2.73,39.3,20.16,42.03,42.03h6.42C157.89,93.95,160.55,96.67,160.55,100z"/>
</g>
<path id="Icon_material-center-focus-strong" class="st1" d="M21.78,139.73H2.5v38.5c0.03,10.62,8.63,19.22,19.25,19.25h38.5v-19.22
	h-38.5L21.78,139.73z M21.78,21.72h38.5V2.49H21.75C11.13,2.53,2.53,11.13,2.5,21.74v38.5h19.25L21.78,21.72z M178.26,2.49h-38.51
	v19.25h38.5v38.5h19.25v-38.5C197.47,11.13,188.87,2.53,178.26,2.49z M178.26,178.26h-38.51v19.25h38.5
	c10.62-0.03,19.22-8.63,19.25-19.25v-38.51h-19.24V178.26z"/>
</svg>
