<?xml version="1.0" encoding="utf-8"?>
<!-- Generator: Adobe Illustrator 26.0.1, SVG Export Plug-In . SVG Version: 6.00 Build 0)  -->
<svg version="1.1" id="Layer_1" xmlns="http://www.w3.org/2000/svg" xmlns:xlink="http://www.w3.org/1999/xlink" x="0px" y="0px"
	 viewBox="0 0 200 200" style="enable-background:new 0 0 200 200;" xml:space="preserve">
<style type="text/css">
	.st0{fill-rule:evenodd;clip-rule:evenodd;}
	.st1{enable-background:new    ;}
	.st2{opacity:0.65;}
	.st3{opacity:0.64;}
	.st4{opacity:0.5;}
	.st5{opacity:0.8;}
	.st6{fill-rule:evenodd;clip-rule:evenodd;enable-background:new    ;}
</style>
<g>
	<path d="M196.47,60.05v-0.01L139.18,2.7c-31.81,3.69-69.13,13.96-95.01,39.87C17.48,69.28,7.39,108.1,4.01,140.55l29.51,29.52
		l0.01,0.01l25.95,25.98c32.41-3.39,71.22-13.48,97.9-40.18c25.89-25.92,36.15-63.26,39.83-95.1L196.47,60.05z M128.63,92.7
		c-0.95,0.94-2.18,1.42-3.43,1.42s-2.5-0.48-3.44-1.42l-5.24-5.24L106.2,97.78l5.24,5.24c1.9,1.9,1.9,4.98,0,6.89
		c-0.95,0.94-2.19,1.42-3.43,1.42c-1.25,0-2.5-0.48-3.44-1.42l-5.24-5.26l-10.32,10.34l5.24,5.24c1.9,1.9,1.9,4.97,0,6.87
		c-0.96,0.96-2.2,1.44-3.43,1.44c-1.25,0-2.5-0.48-3.44-1.44l-5.24-5.24L78,125.99c-0.96,0.96-2.19,1.44-3.43,1.44
		c-1.25,0-2.5-0.48-3.44-1.44c-1.9-1.9-1.9-4.97,0-6.87l4.14-4.13l-5.25-5.27c-1.91-1.89-1.91-4.97,0-6.87
		c1.9-1.89,4.97-1.89,6.87,0l5.25,5.25l10.32-10.32l-5.25-5.25c-1.9-1.91-1.9-4.99,0-6.88c1.9-1.9,4.97-1.9,6.87,0l5.25,5.24
		l10.32-10.32l-5.25-5.25c-1.9-1.89-1.9-4.97,0-6.88c1.9-1.9,4.97-1.9,6.87,0l5.25,5.26l4.13-4.15c1.9-1.9,4.97-1.9,6.87,0
		c1.9,1.9,1.9,4.99,0,6.89l-4.13,4.13l5.24,5.25C130.53,87.71,130.53,90.81,128.63,92.7z"/>
	<path d="M196.27,3.65c-7-0.69-23.2-1.91-43.17-0.76l43.93,43.96C198.17,26.85,196.96,10.65,196.27,3.65z"/>
	<path d="M46.76,197.09c-19.98,1.15-36.1-0.02-43.08-0.7c-0.5-5.06-1.24-14.96-1.18-27.64c0.03-4.8,0.17-9.99,0.48-15.48L19.6,169.9
		L46.76,197.09z"/>
</g>
</svg>
