<?xml version="1.0" encoding="utf-8"?>
<!-- Generator: Adobe Illustrator 26.0.1, SVG Export Plug-In . SVG Version: 6.00 Build 0)  -->
<svg version="1.1" id="Layer_1" xmlns="http://www.w3.org/2000/svg" xmlns:xlink="http://www.w3.org/1999/xlink" x="0px" y="0px"
	 viewBox="0 0 200 200" style="enable-background:new 0 0 200 200;" xml:space="preserve">
<style type="text/css">
	.st0{fill-rule:evenodd;clip-rule:evenodd;}
	.st1{enable-background:new    ;}
	.st2{opacity:0.65;}
	.st3{opacity:0.64;}
	.st4{opacity:0.5;}
	.st5{opacity:0.8;}
	.st6{fill-rule:evenodd;clip-rule:evenodd;enable-background:new    ;}
</style>
<g>
	<path d="M139.18,2.7c-31.8,3.69-69.12,13.96-95.01,39.87C17.48,69.28,7.39,108.1,4.01,140.55l29.51,29.53
		c35.76-0.39,91.57-7.42,127.29-43.18c18.69-18.69,29.51-42.91,35.66-66.85L139.18,2.7z M128.63,92.71
		c-0.96,0.94-2.19,1.42-3.43,1.42c-1.25,0-2.49-0.48-3.43-1.42l-5.25-5.25L106.2,97.78l5.25,5.25c1.9,1.9,1.9,4.97,0,6.89
		c-0.96,0.94-2.19,1.42-3.43,1.42c-1.25,0-2.49-0.48-3.43-1.42l-5.25-5.26l-10.32,10.34l5.25,5.25c1.9,1.9,1.9,4.97,0,6.87
		c-0.96,0.96-2.2,1.44-3.43,1.44c-1.25,0-2.49-0.48-3.43-1.44l-5.25-5.25L78,125.99c-0.96,0.96-2.19,1.44-3.43,1.44
		c-1.25,0-2.49-0.48-3.43-1.44c-1.9-1.9-1.9-4.97,0-6.87l4.14-4.14l-5.25-5.26c-1.91-1.9-1.91-4.97,0-6.87c1.9-1.9,4.97-1.9,6.87,0
		l5.25,5.25l10.32-10.32l-5.25-5.25c-1.9-1.91-1.9-4.99,0-6.89c1.9-1.9,4.97-1.9,6.87,0l5.25,5.25l10.32-10.32l-5.25-5.25
		c-1.9-1.9-1.9-4.97,0-6.89c1.9-1.9,4.97-1.9,6.87,0l5.25,5.26l4.14-4.15c1.9-1.9,4.97-1.9,6.87,0s1.9,4.99,0,6.89l-4.14,4.14
		l5.25,5.25C130.53,87.72,130.53,90.81,128.63,92.71z"/>
	<path class="st3" d="M157.38,155.88c25.89-25.91,36.16-63.26,39.83-95.09l-0.74-0.74C190.33,84,179.5,108.2,160.81,126.9
		c-35.72,35.75-91.52,42.78-127.3,43.17l25.96,25.98C91.89,192.67,130.7,182.58,157.38,155.88z"/>
	<path d="M196.27,3.65c-7-0.69-23.2-1.91-43.17-0.76l43.93,43.96C198.17,26.85,196.96,10.65,196.27,3.65z"/>
	<path d="M2.98,153.27c-0.32,5.49-0.46,10.68-0.48,15.48c3.4,0.36,9.35,0.88,17.1,1.15L2.98,153.27z"/>
	<path class="st3" d="M3.68,196.4c6.98,0.68,23.11,1.85,43.09,0.69L19.6,169.91c-7.75-0.28-13.7-0.8-17.1-1.15
		C2.44,181.43,3.18,191.33,3.68,196.4z"/>
</g>
</svg>
