<?xml version="1.0" encoding="utf-8"?>
<!-- Generator: Adobe Illustrator 26.0.1, SVG Export Plug-In . SVG Version: 6.00 Build 0)  -->
<svg version="1.1" id="Layer_1" xmlns="http://www.w3.org/2000/svg" xmlns:xlink="http://www.w3.org/1999/xlink" x="0px" y="0px"
	 viewBox="0 0 200 200" style="enable-background:new 0 0 200 200;" xml:space="preserve">
<style type="text/css">
	.st0{fill-rule:evenodd;clip-rule:evenodd;}
	.st1{enable-background:new    ;}
	.st2{opacity:0.65;}
	.st3{opacity:0.64;}
	.st4{opacity:0.5;}
	.st5{opacity:0.8;}
	.st6{fill-rule:evenodd;clip-rule:evenodd;enable-background:new    ;}
</style>
<g id="Group_7883" transform="translate(-624.521 -906)">
	<path id="github-logo" class="st0" d="M724.51,908.5c-53.84,0-97.49,44.75-97.49,99.96c0,43.03,26.85,81.23,66.66,94.84
		c4.87,0.88,6.7-2.12,6.7-4.75c0-2.37-0.12-10.25-0.12-18.62c-24.49,4.63-30.83-6.12-32.78-11.73c-2.16-5.47-5.59-10.31-9.99-14.12
		c-3.41-1.87-8.29-6.5-0.12-6.62c6.32,0.7,11.92,4.52,14.99,10.23c5.6,10.31,18.29,14.02,28.35,8.27c0.02-0.01,0.03-0.02,0.04-0.03
		c0.42-5.08,2.63-9.84,6.22-13.37c-21.69-2.5-44.36-11.12-44.36-49.36c-0.14-9.94,3.44-19.55,9.99-26.87
		c-2.99-8.63-2.65-18.11,0.95-26.49c0,0,8.19-2.64,26.83,10.25c15.95-4.5,32.79-4.5,48.74,0c18.64-13,26.81-10.25,26.81-10.25
		c3.61,8.38,3.96,17.86,0.98,26.49c6.57,7.31,10.15,16.93,9.99,26.87c0,38.36-22.79,46.86-44.5,49.36
		c4.71,4.89,7.11,11.64,6.58,18.49c0,13.37-0.12,24.12-0.12,27.49c0,2.63,1.83,5.75,6.7,4.75c51.05-17.61,78.52-74.33,61.35-126.68
		C803.56,935.94,766.38,908.52,724.51,908.5z"/>
</g>
</svg>
