<?xml version="1.0" encoding="utf-8"?>
<!-- Generator: Adobe Illustrator 26.0.1, SVG Export Plug-In . SVG Version: 6.00 Build 0)  -->
<svg version="1.1" id="Layer_1" xmlns="http://www.w3.org/2000/svg" xmlns:xlink="http://www.w3.org/1999/xlink" x="0px" y="0px"
	 viewBox="0 0 200 200" style="enable-background:new 0 0 200 200;" xml:space="preserve">
<style type="text/css">
	.st0{fill-rule:evenodd;clip-rule:evenodd;}
	.st1{enable-background:new    ;}
	.st2{opacity:0.65;}
	.st3{opacity:0.64;}
	.st4{opacity:0.5;}
	.st5{opacity:0.8;}
	.st6{fill-rule:evenodd;clip-rule:evenodd;enable-background:new    ;}
</style>
<path id="arrow-down-up" class="st6" d="M142.65,185.31c3.37,0,6.09-2.73,6.09-6.09V35.5l38.34,38.35c2.38,2.38,6.25,2.38,8.63,0
	c2.38-2.38,2.38-6.25,0-8.63l-48.75-48.75c-2.38-2.38-6.23-2.39-8.62-0.01c0,0-0.01,0.01-0.01,0.01L89.59,65.22
	c-2.38,2.38-2.38,6.25,0,8.63c2.38,2.38,6.25,2.38,8.63,0l38.34-38.35v143.72C136.56,182.58,139.29,185.31,142.65,185.31z
	 M57.35,14.69c3.37,0,6.09,2.73,6.09,6.09V164.5l38.34-38.35c2.38-2.38,6.25-2.38,8.63,0s2.38,6.25,0,8.63l-48.75,48.75
	c-2.38,2.38-6.23,2.39-8.62,0.01c0,0-0.01-0.01-0.01-0.01L4.29,134.78c-2.38-2.38-2.38-6.25,0-8.63s6.25-2.38,8.63,0l0,0
	l38.34,38.35V20.79C51.25,17.42,53.98,14.69,57.35,14.69z"/>
</svg>
