<?xml version="1.0" encoding="utf-8"?>
<!-- Generator: Adobe Illustrator 26.0.1, SVG Export Plug-In . SVG Version: 6.00 Build 0)  -->
<svg version="1.1" id="Layer_1" xmlns="http://www.w3.org/2000/svg" xmlns:xlink="http://www.w3.org/1999/xlink" x="0px" y="0px"
	 viewBox="0 0 200 200" style="enable-background:new 0 0 200 200;" xml:space="preserve">
<style type="text/css">
	.st0{fill-rule:evenodd;clip-rule:evenodd;}
	.st1{enable-background:new    ;}
	.st2{opacity:0.65;}
	.st3{opacity:0.64;}
	.st4{opacity:0.5;}
	.st5{opacity:0.8;}
	.st6{fill-rule:evenodd;clip-rule:evenodd;enable-background:new    ;}
</style>
<g>
	<path d="M189.36,156.85c-11.24,10.86-32.04,9.35-55.23-1.81c-16.78-8.06-34.8-21.16-51.39-38.32C43.23,75.84,26.89,27.52,46.25,8.8
		c19.36-18.71,67.1-0.74,106.61,40.14c8.91,9.21,16.63,18.81,23.04,28.35C197.92,110.1,204.35,142.35,189.36,156.85z"/>
	<path d="M185.54,160.54l-31.22,30.18c-1.35,1.19-2.82,2.24-4.37,3.16c-1.57,0.92-3.22,1.7-4.93,2.34c-3.66,1.32-7.49,2.1-11.38,2.3
		c-4.37,0.22-8.76-0.04-13.08-0.79c-4.85-0.83-9.63-2.07-14.27-3.7c-5.16-1.81-10.2-3.98-15.07-6.48c-4.68-2.4-9.22-5.05-13.62-7.92
		c-0.62-0.4-1.24-0.79-1.84-1.2c-5.35-3.59-10.5-7.46-15.43-11.61c-10.54-8.85-20.13-18.78-28.63-29.62
		c-4.02-5.14-7.77-10.49-11.21-16.04c-3.19-5.16-6.07-10.5-8.62-15.99c-2.34-5.03-4.32-10.21-5.93-15.51
		c-1.43-4.74-2.44-9.6-3.01-14.52c-0.54-4.35-0.57-8.76-0.09-13.12c0.42-3.89,1.44-7.7,3.02-11.28c0.77-1.68,1.68-3.28,2.73-4.79
		c1.81-2.6,4.04-4.88,6.6-6.74l24.72-23.89C31.6,26,30.66,42.93,37.27,63c8.26,22.72,21.41,43.36,38.51,60.45
		c14.47,15.6,31.85,28.16,51.12,37.02c3.51,1.61,7.07,3.11,10.7,4.47C158.26,171.89,175.29,170.33,185.54,160.54z"/>
</g>
</svg>
