<?xml version="1.0" encoding="utf-8"?>
<!-- Generator: Adobe Illustrator 26.0.1, SVG Export Plug-In . SVG Version: 6.00 Build 0)  -->
<svg version="1.1" id="Layer_1" xmlns="http://www.w3.org/2000/svg" xmlns:xlink="http://www.w3.org/1999/xlink" x="0px" y="0px"
	 viewBox="0 0 200 200" style="enable-background:new 0 0 200 200;" xml:space="preserve">
<style type="text/css">
	.st0{fill-rule:evenodd;clip-rule:evenodd;}
	.st1{enable-background:new    ;}
	.st2{opacity:0.65;}
	.st3{opacity:0.64;}
	.st4{opacity:0.5;}
	.st5{opacity:0.8;}
	.st6{fill-rule:evenodd;clip-rule:evenodd;enable-background:new    ;}
</style>
<path id="house-door_00000016063338797670360510000008849653608363341485_" class="st1" d="M104.93,4.55
	c-2.72-2.72-7.13-2.73-9.85-0.01c0,0-0.01,0.01-0.01,0.01L11.5,88.11c-1.31,1.31-2.04,3.08-2.03,4.93v97.49
	c0,3.85,3.12,6.96,6.96,6.96h62.67c3.85,0,6.96-3.12,6.96-6.96v-55.71h27.86v55.71c0,3.85,3.12,6.96,6.96,6.96h62.67
	c3.85,0,6.96-3.12,6.96-6.96V93.04c0-1.85-0.73-3.62-2.03-4.93l-18.86-18.84V23.4c0-3.85-3.12-6.96-6.96-6.96h-13.93
	c-3.85,0-6.96,3.12-6.96,6.96v18.01L104.93,4.55z"/>
</svg>
