<?xml version="1.0" encoding="utf-8"?>
<!-- Generator: Adobe Illustrator 26.0.1, SVG Export Plug-In . SVG Version: 6.00 Build 0)  -->
<svg version="1.1" id="Layer_1" xmlns="http://www.w3.org/2000/svg" xmlns:xlink="http://www.w3.org/1999/xlink" x="0px" y="0px"
	 viewBox="0 0 200 200" style="enable-background:new 0 0 200 200;" xml:space="preserve">
<style type="text/css">
	.st0{fill-rule:evenodd;clip-rule:evenodd;}
	.st1{enable-background:new    ;}
	.st2{opacity:0.65;}
	.st3{opacity:0.64;}
	.st4{opacity:0.5;}
	.st5{opacity:0.8;}
	.st6{fill-rule:evenodd;clip-rule:evenodd;enable-background:new    ;}
</style>
<path id="Icon_awesome-key_00000160878795441812573750000013950384953754009746_" d="M197.5,69.57
	c-0.02,37.04-30.06,67.05-67.09,67.03c-4.18,0-8.34-0.39-12.44-1.17l-9.14,10.33c-1.73,1.95-4.22,3.07-6.83,3.07H87.78v15.12
	c0,5.05-4.09,9.14-9.14,9.14h0h-15.2v15.24c0,5.05-4.09,9.14-9.14,9.14h0H11.64c-5.03,0-9.11-4.06-9.14-9.09v-29.7
	c0-2.42,0.96-4.74,2.67-6.46L66.8,90.56C55.21,55.4,74.31,17.5,109.48,5.91s73.06,7.52,84.65,42.68
	C196.36,55.36,197.5,62.44,197.5,69.57z M134.78,51.28c0,7.71,6.25,13.97,13.97,13.97s13.97-6.25,13.97-13.97
	s-6.25-13.97-13.97-13.97C141.04,37.31,134.78,43.57,134.78,51.28L134.78,51.28z"/>
</svg>
