<?xml version="1.0" encoding="utf-8"?>
<!-- Generator: Adobe Illustrator 26.0.1, SVG Export Plug-In . SVG Version: 6.00 Build 0)  -->
<svg version="1.1" id="Layer_1" xmlns="http://www.w3.org/2000/svg" xmlns:xlink="http://www.w3.org/1999/xlink" x="0px" y="0px"
	 viewBox="0 0 200 200" style="enable-background:new 0 0 200 200;" xml:space="preserve">
<style type="text/css">
	.st0{fill-rule:evenodd;clip-rule:evenodd;}
	.st1{enable-background:new    ;}
	.st2{opacity:0.65;}
	.st3{opacity:0.64;}
	.st4{opacity:0.5;}
	.st5{opacity:0.8;}
	.st6{fill-rule:evenodd;clip-rule:evenodd;enable-background:new    ;}
</style>
<path id="Icon_awesome-clock" class="st1" d="M197.5,100c0-26.93-10.91-51.3-28.56-68.94C151.3,13.41,126.92,2.5,100,2.5
	C46.15,2.5,2.5,46.15,2.5,100c0,53.85,43.65,97.5,97.5,97.5C153.85,197.5,197.5,153.85,197.5,100z M107.36,143.28l-45.27-36.79
	c-3.58-2.91-4.13-8.18-1.21-11.76c0.36-0.45,0.77-0.85,1.21-1.22l45.27-36.78c3.58-2.92,8.85-2.38,11.76,1.21
	c1.21,1.49,1.87,3.35,1.87,5.27v73.58c0,4.62-3.74,8.36-8.36,8.36C110.71,145.15,108.85,144.49,107.36,143.28z"/>
</svg>
