<?xml version="1.0" encoding="utf-8"?>
<!-- Generator: Adobe Illustrator 26.0.1, SVG Export Plug-In . SVG Version: 6.00 Build 0)  -->
<svg version="1.1" id="Layer_1" xmlns="http://www.w3.org/2000/svg" xmlns:xlink="http://www.w3.org/1999/xlink" x="0px" y="0px"
	 viewBox="0 0 200 200" style="enable-background:new 0 0 200 200;" xml:space="preserve">
<style type="text/css">
	.st0{fill-rule:evenodd;clip-rule:evenodd;}
	.st1{enable-background:new    ;}
	.st2{opacity:0.65;}
	.st3{opacity:0.64;}
	.st4{opacity:0.5;}
	.st5{opacity:0.8;}
	.st6{fill-rule:evenodd;clip-rule:evenodd;enable-background:new    ;}
</style>
<g id="Icon_ionic-ios-mail" transform="translate(-3.375 -7.875)">
	<path id="Path_505" d="M199.28,56.92l-50.44,51.38c-0.36,0.35-0.38,0.92-0.03,1.28c0.01,0.01,0.02,0.02,0.03,0.03l35.3,37.59
		c2.37,2.39,2.37,6.24,0,8.63c-2.39,2.37-6.24,2.37-8.63,0l-35.15-37.45c-0.37-0.37-0.98-0.38-1.36,0c0,0,0,0,0,0l-8.58,8.72
		c-7.09,7.23-16.78,11.32-26.9,11.34c-10.35-0.04-20.25-4.25-27.46-11.67l-8.25-8.39c-0.37-0.37-0.98-0.38-1.36,0c0,0,0,0,0,0
		l-35.17,37.44c-2.39,2.37-6.24,2.37-8.63,0c-2.37-2.39-2.37-6.24,0-8.63l35.31-37.61c0.32-0.38,0.32-0.94,0-1.32L7.47,56.92
		c-0.34-0.37-0.93-0.39-1.3-0.05c-0.2,0.18-0.3,0.44-0.29,0.7v102.8c0.03,8.27,6.73,14.97,15,15h165c8.27-0.03,14.97-6.73,15-15
		V57.58c-0.01-0.52-0.44-0.93-0.96-0.92C199.68,56.66,199.45,56.76,199.28,56.92z"/>
	<path id="Path_506" d="M103.38,126.2c6.91,0.03,13.55-2.74,18.38-7.69l73.51-74.86c-2.63-2.12-5.9-3.28-9.28-3.28H20.83
		c-3.38-0.01-6.66,1.15-9.28,3.28l73.51,74.86C89.88,123.44,96.49,126.21,103.38,126.2z"/>
</g>
</svg>
