<?xml version="1.0" encoding="utf-8"?>
<!-- Generator: Adobe Illustrator 26.0.1, SVG Export Plug-In . SVG Version: 6.00 Build 0)  -->
<svg version="1.1" id="Layer_1" xmlns="http://www.w3.org/2000/svg" xmlns:xlink="http://www.w3.org/1999/xlink" x="0px" y="0px"
	 viewBox="0 0 200 200" style="enable-background:new 0 0 200 200;" xml:space="preserve">
<style type="text/css">
	.st0{fill-rule:evenodd;clip-rule:evenodd;}
	.st1{enable-background:new    ;}
	.st2{opacity:0.65;}
	.st3{opacity:0.64;}
	.st4{opacity:0.5;}
	.st5{opacity:0.8;}
	.st6{fill-rule:evenodd;clip-rule:evenodd;enable-background:new    ;}
</style>
<path id="activity" class="st6" d="M75.62,26.88c2.57,0,4.86,1.61,5.73,4.02l43.02,118.29l18.65-51.28c0.88-2.4,3.17-4,5.73-4h42.66
	c3.37,0,6.09,2.73,6.09,6.09c0,3.37-2.73,6.09-6.09,6.09h-38.39l-22.91,63.01c-1.15,3.16-4.64,4.8-7.81,3.65
	c-1.7-0.62-3.03-1.95-3.65-3.65L75.62,50.81l-18.65,51.27c-0.88,2.41-3.17,4.01-5.73,4.01H8.59c-3.37,0-6.09-2.73-6.09-6.09
	c0-3.37,2.73-6.09,6.09-6.09h38.39L69.9,30.9C70.77,28.49,73.06,26.88,75.62,26.88z"/>
</svg>
