<?xml version="1.0" encoding="utf-8"?>
<!-- Generator: Adobe Illustrator 26.0.1, SVG Export Plug-In . SVG Version: 6.00 Build 0)  -->
<svg version="1.1" id="Layer_1" xmlns="http://www.w3.org/2000/svg" xmlns:xlink="http://www.w3.org/1999/xlink" x="0px" y="0px"
	 viewBox="0 0 200 200" style="enable-background:new 0 0 200 200;" xml:space="preserve">
<style type="text/css">
	.st0{fill-rule:evenodd;clip-rule:evenodd;}
	.st1{enable-background:new    ;}
	.st2{opacity:0.65;}
	.st3{opacity:0.64;}
	.st4{opacity:0.5;}
	.st5{opacity:0.8;}
	.st6{fill-rule:evenodd;clip-rule:evenodd;enable-background:new    ;}
</style>
<path id="arrows-expand_00000146494708562845327690000013651262428632019362_" class="st6" d="M14.7,100c0-3.37,2.73-6.09,6.09-6.09
	h158.42c3.37,0,6.09,2.73,6.09,6.09c0,3.37-2.73,6.09-6.09,6.09H20.79C17.42,106.09,14.7,103.37,14.7,100z M95.69,4.29
	c2.38-2.38,6.23-2.39,8.62-0.01c0,0,0.01,0.01,0.01,0.01l24.37,24.37c2.38,2.38,2.38,6.25,0,8.63c-2.38,2.38-6.25,2.38-8.63,0l0,0
	l-13.97-13.98v46.22c0,3.37-2.73,6.09-6.09,6.09c-3.37,0-6.09-2.73-6.09-6.09V23.31L79.94,37.29c-2.38,2.38-6.25,2.38-8.63,0
	c-2.38-2.38-2.38-6.25,0-8.63l0,0L95.69,4.29z M100,124.37c3.37,0,6.09,2.73,6.09,6.09v46.22l13.97-13.98
	c2.38-2.38,6.25-2.38,8.63,0c2.38,2.38,2.38,6.25,0,8.63l-24.37,24.37c-2.38,2.38-6.23,2.39-8.62,0.01c0,0-0.01-0.01-0.01-0.01
	l-24.37-24.37c-2.38-2.38-2.38-6.25,0-8.63c2.38-2.38,6.25-2.38,8.63,0l13.97,13.98v-46.22C93.91,127.1,96.63,124.37,100,124.37z"/>
</svg>
