<?xml version="1.0" encoding="utf-8"?>
<!-- Generator: Adobe Illustrator 26.0.1, SVG Export Plug-In . SVG Version: 6.00 Build 0)  -->
<svg version="1.1" id="Layer_1" xmlns="http://www.w3.org/2000/svg" xmlns:xlink="http://www.w3.org/1999/xlink" x="0px" y="0px"
	 viewBox="0 0 200 200" style="enable-background:new 0 0 200 200;" xml:space="preserve">
<style type="text/css">
	.st0{fill-rule:evenodd;clip-rule:evenodd;}
	.st1{enable-background:new    ;}
	.st2{opacity:0.65;}
	.st3{opacity:0.64;}
	.st4{opacity:0.5;}
	.st5{opacity:0.8;}
	.st6{fill-rule:evenodd;clip-rule:evenodd;enable-background:new    ;}
</style>
<path id="Icon_awesome-window-maximize_00000008127172302442278960000015338285381931512490_" d="M179.21,53H20.78
	C10.37,53.36,2.19,62.71,2.51,73.9v52.2c-0.32,11.19,7.86,20.54,18.27,20.9h158.43c10.41-0.36,18.59-9.71,18.28-20.9V73.9
	C197.8,62.71,189.62,53.36,179.21,53z M54.34,105.37c0.47,0.2,0.68,0.59,0.65,1.17c-0.03,0.59-0.44,1.53-1.21,2.83
	c-0.77,1.34-1.4,2.16-1.88,2.46c-0.49,0.3-0.93,0.3-1.34,0l-10.71-7.77l1.41,13.14c0.09,0.5-0.12,0.88-0.66,1.15
	c-0.53,0.27-1.58,0.4-3.12,0.4s-2.58-0.13-3.12-0.4c-0.54-0.27-0.75-0.65-0.65-1.15l1.41-13.14l-10.67,7.77
	c-0.4,0.3-0.86,0.3-1.36,0c-0.5-0.3-1.14-1.12-1.91-2.46c-0.77-1.3-1.17-2.24-1.18-2.83c-0.02-0.58,0.21-0.97,0.68-1.17L32.8,100
	l-12.12-5.31c-0.47-0.24-0.7-0.65-0.68-1.23c0.01-0.58,0.41-1.53,1.18-2.83c0.77-1.31,1.41-2.11,1.91-2.41c0.5-0.3,0.96-0.3,1.36,0
	l10.67,7.72l-1.41-13.08c-0.1-0.54,0.12-0.94,0.65-1.21c0.54-0.26,1.58-0.4,3.12-0.4s2.58,0.14,3.12,0.4
	c0.54,0.27,0.75,0.67,0.66,1.21l-1.42,13.08l10.72-7.72c0.4-0.3,0.85-0.3,1.33,0c0.49,0.3,1.12,1.12,1.89,2.46
	c0.77,1.27,1.18,2.2,1.21,2.78c0.03,0.59-0.18,1-0.65,1.23L42.21,100L54.34,105.37z M116.84,105.37c0.47,0.2,0.69,0.59,0.65,1.17
	c-0.03,0.59-0.43,1.53-1.21,2.83c-0.77,1.34-1.4,2.16-1.88,2.46c-0.49,0.3-0.93,0.3-1.34,0l-10.71-7.77l1.41,13.14
	c0.1,0.5-0.12,0.88-0.66,1.15c-0.53,0.27-1.58,0.4-3.12,0.4c-1.54,0-2.58-0.13-3.12-0.4c-0.53-0.27-0.75-0.65-0.65-1.15l1.41-13.14
	l-10.67,7.77c-0.4,0.3-0.86,0.3-1.36,0c-0.5-0.3-1.14-1.12-1.91-2.46c-0.77-1.3-1.17-2.24-1.18-2.83c-0.02-0.58,0.21-0.97,0.68-1.17
	L95.3,100l-12.12-5.31c-0.47-0.24-0.7-0.65-0.68-1.23c0.01-0.58,0.41-1.53,1.18-2.83c0.77-1.31,1.41-2.11,1.91-2.41
	c0.5-0.3,0.96-0.3,1.36,0l10.67,7.72l-1.41-13.08c-0.1-0.54,0.12-0.94,0.65-1.21c0.54-0.26,1.58-0.4,3.12-0.4
	c1.54,0,2.59,0.14,3.12,0.4c0.54,0.27,0.76,0.67,0.66,1.21l-1.41,13.08l10.71-7.72c0.41-0.3,0.85-0.3,1.34,0
	c0.48,0.3,1.11,1.12,1.88,2.46c0.77,1.27,1.18,2.2,1.21,2.78c0.03,0.59-0.18,1-0.65,1.23L104.71,100L116.84,105.37z M179.34,105.37
	c0.47,0.2,0.69,0.59,0.65,1.17c-0.03,0.59-0.43,1.53-1.2,2.83c-0.78,1.34-1.41,2.16-1.89,2.46c-0.49,0.3-0.93,0.3-1.33,0
	l-10.72-7.77l1.41,13.14c0.1,0.5-0.12,0.88-0.66,1.15c-0.53,0.27-1.57,0.4-3.12,0.4c-1.54,0-2.58-0.13-3.12-0.4
	c-0.53-0.27-0.75-0.65-0.65-1.15l1.41-13.14l-10.67,7.77c-0.4,0.3-0.86,0.3-1.36,0c-0.5-0.3-1.14-1.12-1.91-2.46
	c-0.77-1.3-1.17-2.24-1.18-2.83c-0.02-0.58,0.21-0.97,0.68-1.17l12.13-5.37l-12.13-5.31c-0.47-0.24-0.7-0.65-0.68-1.23
	c0.02-0.58,0.41-1.53,1.18-2.83c0.77-1.31,1.41-2.11,1.91-2.41c0.5-0.3,0.96-0.3,1.36,0l10.67,7.72l-1.41-13.08
	c-0.1-0.54,0.12-0.94,0.65-1.21c0.54-0.26,1.58-0.4,3.12-0.4c1.54,0,2.59,0.14,3.12,0.4c0.54,0.27,0.76,0.67,0.66,1.21l-1.41,13.08
	l10.71-7.72c0.41-0.3,0.85-0.3,1.34,0c0.48,0.3,1.11,1.12,1.88,2.46c0.78,1.27,1.18,2.2,1.21,2.78c0.03,0.59-0.18,1-0.65,1.23
	L167.21,100L179.34,105.37z"/>
</svg>
