<?xml version="1.0" encoding="utf-8"?>
<!-- Generator: Adobe Illustrator 26.0.1, SVG Export Plug-In . SVG Version: 6.00 Build 0)  -->
<svg version="1.1" id="Layer_1" xmlns="http://www.w3.org/2000/svg" xmlns:xlink="http://www.w3.org/1999/xlink" x="0px" y="0px"
	 viewBox="0 0 175.19 200" style="enable-background:new 0 0 175.19 200;" xml:space="preserve">
<style type="text/css">
	.st0{fill-rule:evenodd;clip-rule:evenodd;}
	.st1{enable-background:new    ;}
	.st2{opacity:0.65;}
	.st3{opacity:0.64;}
	.st4{opacity:0.5;}
	.st5{opacity:0.8;}
	.st6{fill-rule:evenodd;clip-rule:evenodd;enable-background:new    ;}
</style>
<g>
	<path class="st2" d="M153.95,51.59c0,0.01,0.01,0.01,0.01,0.01c-0.05,0.29-0.09,0.59-0.14,0.89c-0.01,0-0.01-0.01-0.02-0.01
		c-2.63-1.36-4.25-1.99-6.5-2.75c-0.82-0.28-1.25-0.4-1.86-0.58c-1.22-0.35-2.48-0.68-3.77-0.97c-1.3-0.29-2.63-0.54-4-0.76
		c-5.19-0.79-10.43-1.18-15.68-1.14H74.48c-3.73,0-6.91,2.72-7.49,6.41l-10.11,64.03v0.03l-0.29,1.84c0-0.01,0-0.01,0.01-0.02
		l-8.97,56.87h-37.4c-0.27,0-0.54-0.02-0.8-0.07c-2.85-0.45-4.79-3.12-4.34-5.96L30.34,9.38c0.66-4.22,4.3-7.32,8.56-7.32h60.62
		c20.87,0,37.19,4.41,46.21,14.69C153.99,26.33,157.06,39.33,153.95,51.59z"/>
	<path class="st4" d="M168.79,95.47c-7,35.9-30.92,48.31-61.48,48.31h-4.72c-3.74-0.01-6.92,2.71-7.49,6.41l-0.39,2.07l-5.94,37.68
		l-0.31,1.6c-0.58,3.69-3.76,6.4-7.49,6.4H49.42c-0.23,0-0.47-0.02-0.7-0.05c-2.48-0.4-4.18-2.72-3.78-5.21l2.55-16.37l0.14-0.87
		l8.97-56.87c-0.01,0.01-0.01,0.01-0.01,0.02l0.29-1.84h0.09c1.01-3.71,4.39-6.36,8.32-6.36h17.79c34.92,0,62.27-14.15,70.26-55.21
		c0.18-0.9,0.34-1.81,0.48-2.69c3.26,1.67,6.2,3.93,8.64,6.65C170.19,67.95,171.7,80.47,168.79,95.47z"/>
	<path class="st5" d="M153.82,52.49c-0.14,0.88-0.3,1.79-0.48,2.69c-7.99,41.06-35.34,55.21-70.26,55.21H65.29
		c-3.93,0-7.31,2.65-8.32,6.36h-0.09v-0.03l10.11-64.03c0.58-3.69,3.76-6.41,7.49-6.41h47.51c5.25-0.04,10.49,0.35,15.68,1.14
		c1.37,0.22,2.7,0.47,4,0.76c1.29,0.29,2.55,0.62,3.77,0.97c0.61,0.18,1.04,0.3,1.86,0.58c2.25,0.76,3.87,1.39,6.5,2.75
		C153.81,52.48,153.81,52.49,153.82,52.49z"/>
</g>
</svg>
