<?xml version="1.0" encoding="utf-8"?>
<!-- Generator: Adobe Illustrator 26.0.1, SVG Export Plug-In . SVG Version: 6.00 Build 0)  -->
<svg version="1.1" id="Layer_1" xmlns="http://www.w3.org/2000/svg" xmlns:xlink="http://www.w3.org/1999/xlink" x="0px" y="0px"
	 viewBox="0 0 200 200" style="enable-background:new 0 0 200 200;" xml:space="preserve">
<style type="text/css">
	.st0{fill-rule:evenodd;clip-rule:evenodd;}
	.st1{enable-background:new    ;}
	.st2{opacity:0.65;}
	.st3{opacity:0.64;}
	.st4{opacity:0.5;}
	.st5{opacity:0.8;}
	.st6{fill-rule:evenodd;clip-rule:evenodd;enable-background:new    ;}
</style>
<path id="Icon_awesome-pen" class="st1" d="M192.18,30.72l-22.9-22.87c-7.16-7.11-18.71-7.11-25.86,0l-21.53,21.56l48.75,48.75
	l21.53-21.53c7.11-7.16,7.11-18.71,0-25.86L192.18,30.72z M113.28,37.98l-8.21,8.21l48.74,48.74l8.21-8.21L113.28,37.98z
	 M7.45,143.83l-4.9,43.49c-0.08,0.69-0.08,1.39,0,2.08c0.59,5.01,5.12,8.6,10.14,8.02l43.47-4.8l91.89-91.92L99.3,51.95L7.45,143.83
	z"/>
</svg>
