<?xml version="1.0" encoding="utf-8"?>
<!-- Generator: Adobe Illustrator 26.0.1, SVG Export Plug-In . SVG Version: 6.00 Build 0)  -->
<svg version="1.1" id="Layer_1" xmlns="http://www.w3.org/2000/svg" xmlns:xlink="http://www.w3.org/1999/xlink" x="0px" y="0px"
	 viewBox="0 0 200 200" style="enable-background:new 0 0 200 200;" xml:space="preserve">
<style type="text/css">
	.st0{fill-rule:evenodd;clip-rule:evenodd;}
	.st1{enable-background:new    ;}
	.st2{opacity:0.65;}
	.st3{opacity:0.64;}
	.st4{opacity:0.5;}
	.st5{opacity:0.8;}
	.st6{fill-rule:evenodd;clip-rule:evenodd;enable-background:new    ;}
</style>
<path class="st1" d="M126.25,187.07c0.06,4.01-3.15,7.54-7.17,7.89c-0.25,0.02-0.5,0.03-0.75,0.03l-36.81-0.11
	c-4.44-0.06-7.87-3.49-7.93-7.93l0.28-60.88l-60.93,0.24c-4.44-0.06-7.87-3.49-7.93-7.93l0-36.82c-0.06-4.01,3.15-7.54,7.17-7.89
	c0.25-0.02,0.5-0.03,0.75-0.03l60.89,0.28l-0.19-60.98c-0.06-4.01,3.15-7.54,7.17-7.89c0.25-0.02,0.5-0.03,0.75-0.03l36.88,0.04
	c4.44,0.06,7.87,3.49,7.93,7.93l-0.32,60.93l60.93-0.24c4.44,0.06,7.87,3.49,7.93,7.93l-0.04,36.94c0.06,4.01-3.15,7.54-7.17,7.89
	c-0.25,0.02-0.5,0.03-0.75,0.03l-60.95-0.39L126.25,187.07z"/>
</svg>
