<?xml version="1.0" encoding="utf-8"?>
<!-- Generator: Adobe Illustrator 26.0.1, SVG Export Plug-In . SVG Version: 6.00 Build 0)  -->
<svg version="1.1" id="Layer_1" xmlns="http://www.w3.org/2000/svg" xmlns:xlink="http://www.w3.org/1999/xlink" x="0px" y="0px"
	 viewBox="0 0 119.71 200" style="enable-background:new 0 0 119.71 200;" xml:space="preserve">
<style type="text/css">
	.st0{fill-rule:evenodd;clip-rule:evenodd;}
	.st1{enable-background:new    ;}
	.st2{opacity:0.65;}
	.st3{opacity:0.64;}
	.st4{opacity:0.5;}
	.st5{opacity:0.8;}
	.st6{fill-rule:evenodd;clip-rule:evenodd;enable-background:new    ;}
</style>
<g>
	<path id="Icon_awesome-dollar-sign_00000103964233981071456410000008300121292192302771_" d="M84.36,91.96L43.78,80.09
		c-5.87-1.71-9.25-7.86-7.54-13.74c1.38-4.73,5.72-7.99,10.65-7.98h24.91c4.58,0,9.06,1.37,12.85,3.94c2.31,1.51,5.37,1.2,7.33-0.75
		l13.07-12.77c2.38-2.37,2.39-6.23,0.01-8.61c-0.21-0.22-0.44-0.41-0.69-0.59c-9.28-7.26-20.72-11.22-32.5-11.27H47.83h-0.96
		C24.14,28.36,5.74,46.82,5.78,69.56c0,1.23,0.06,2.47,0.17,3.69c2.13,17.37,14.58,31.73,31.48,36.29l38.47,11.27
		c5.87,1.71,9.25,7.86,7.54,13.74c-1.38,4.73-5.72,7.99-10.65,7.98H47.92c-4.58,0-9.06-1.37-12.85-3.94
		c-2.31-1.51-5.37-1.2-7.33,0.75l-13.07,12.77c-2.38,2.37-2.39,6.23-0.02,8.61c0.21,0.22,0.44,0.41,0.69,0.59
		c9.28,7.26,20.72,11.22,32.5,11.27l24.04-0.08c17.63,0.03,33.43-10.85,39.71-27.31c7.55-21.49-3.75-45.04-25.24-52.59
		C85.69,92.37,85.03,92.16,84.36,91.96z"/>
	<path d="M47.7,194.67v-17.54h24.32v17.54c0,1.56-1.74,2.83-3.9,2.83H51.6C49.45,197.5,47.7,196.23,47.7,194.67z"/>
	<path d="M72.02,5.33v17.54H47.7V5.33c0-1.56,1.74-2.83,3.9-2.83h16.52C70.27,2.5,72.02,3.77,72.02,5.33z"/>
</g>
</svg>
