<?xml version="1.0" encoding="utf-8"?>
<!-- Generator: Adobe Illustrator 26.0.1, SVG Export Plug-In . SVG Version: 6.00 Build 0)  -->
<svg version="1.1" id="Layer_1" xmlns="http://www.w3.org/2000/svg" xmlns:xlink="http://www.w3.org/1999/xlink" x="0px" y="0px"
	 viewBox="0 0 145.21 200" style="enable-background:new 0 0 145.21 200;" xml:space="preserve">
<style type="text/css">
	.st0{fill-rule:evenodd;clip-rule:evenodd;}
	.st1{enable-background:new    ;}
	.st2{opacity:0.65;}
	.st3{opacity:0.64;}
	.st4{opacity:0.5;}
	.st5{opacity:0.8;}
	.st6{fill-rule:evenodd;clip-rule:evenodd;enable-background:new    ;}
</style>
<g>
	<path d="M69.05,197.5c-14.58,0-26.38-11.81-26.38-26.36c0-14.58,11.81-26.38,26.38-26.38c14.58,0.02,26.36,11.83,26.36,26.38
		C95.42,185.69,83.61,197.5,69.05,197.5z"/>
	<path d="M91.9,122.19v2.28c0,5.05-4.08,9.14-9.14,9.14H55.22c-5.05,0-9.14-4.08-9.14-9.14v-3.76c0-23.53,17.81-33,31.3-40.5
		c11.56-6.49,18.64-10.9,18.64-19.49c0-11.38-14.48-18.9-26.2-18.9c-13.08,0.24-25.07,7.38-31.5,18.78
		c-3.09,3.86-8.71,4.57-12.66,1.58L9.23,49.75c-3.9-2.97-4.77-8.51-1.96-12.54C21.3,14.73,46.33,1.51,72.81,2.56
		c32.31,0,66.76,25.23,66.78,58.49C139.59,105.2,91.9,105.91,91.9,122.19z"/>
</g>
</svg>
