<?xml version="1.0" encoding="utf-8"?>
<!-- Generator: Adobe Illustrator 26.0.1, SVG Export Plug-In . SVG Version: 6.00 Build 0)  -->
<svg version="1.1" id="Layer_1" xmlns="http://www.w3.org/2000/svg" xmlns:xlink="http://www.w3.org/1999/xlink" x="0px" y="0px"
	 viewBox="0 0 200 200" style="enable-background:new 0 0 200 200;" xml:space="preserve">
<style type="text/css">
	.st0{fill-rule:evenodd;clip-rule:evenodd;}
	.st1{enable-background:new    ;}
	.st2{opacity:0.65;}
	.st3{opacity:0.64;}
	.st4{opacity:0.5;}
	.st5{opacity:0.8;}
	.st6{fill-rule:evenodd;clip-rule:evenodd;enable-background:new    ;}
</style>
<path class="st1" d="M99.99,2.5C46.14,2.5,2.5,46.13,2.5,99.99c0,53.87,43.64,97.51,97.49,97.51c53.86,0,97.51-43.64,97.51-97.51
	C197.5,46.13,153.86,2.5,99.99,2.5z M97.69,163.51c-9.5,0-17.19-7.69-17.19-17.17c0-9.5,7.69-17.19,17.19-17.19
	c9.5,0.01,17.17,7.7,17.17,17.19C114.86,155.82,107.17,163.51,97.69,163.51z M112.57,114.45v1.49c0,3.29-2.66,5.95-5.95,5.95H88.68
	c-3.29,0-5.95-2.66-5.95-5.95v-2.45c0-15.33,11.6-21.49,20.39-26.38c7.53-4.23,12.14-7.1,12.14-12.7c0-7.41-9.43-12.31-17.07-12.31
	c-8.52,0.16-16.33,4.81-20.52,12.24c-2.02,2.52-5.68,2.98-8.24,1.03l-10.71-8.1c-2.54-1.94-3.11-5.54-1.28-8.17
	c9.14-14.65,25.45-23.26,42.7-22.57c21.05,0,43.49,16.44,43.5,38.1C143.64,103.39,112.57,103.85,112.57,114.45z"/>
</svg>
