<?xml version="1.0" encoding="utf-8"?>
<!-- Generator: Adobe Illustrator 26.0.1, SVG Export Plug-In . SVG Version: 6.00 Build 0)  -->
<svg version="1.1" id="Layer_1" xmlns="http://www.w3.org/2000/svg" xmlns:xlink="http://www.w3.org/1999/xlink" x="0px" y="0px"
	 viewBox="0 0 200 200" style="enable-background:new 0 0 200 200;" xml:space="preserve">
<style type="text/css">
	.st0{fill-rule:evenodd;clip-rule:evenodd;}
	.st1{enable-background:new    ;}
	.st2{opacity:0.65;}
	.st3{opacity:0.64;}
	.st4{opacity:0.5;}
	.st5{opacity:0.8;}
	.st6{fill-rule:evenodd;clip-rule:evenodd;enable-background:new    ;}
</style>
<path id="Icon_ionic-ios-paper-plane_00000080185066539701959050000016104725876468295061_" class="st1" d="M4.35,111.32
	c-1.74,0.97-2.36,3.16-1.4,4.9c0.37,0.67,0.95,1.21,1.66,1.53l41.19-0.66c1.72,0.65,3.12,1.95,3.88,3.62l11.09,47.06
	c0.44,2.07,4.27,2.63,4.32,0.52l8.28-38.89c0.21-2.88,1.31-5.63,3.15-7.85l89.42-87.61c0.51-0.5,1.24-0.71,1.94-0.56
	c1.1,0.26,1.78,1.36,1.52,2.46c-0.07,0.3-0.21,0.58-0.4,0.82l-84.16,89.54c-1.63,2.3-2.66,4.97-3.02,7.76l-9.34,38.32
	c0.39,2.94,2.68,4.06,4.53,1.43l28.39-19.49c1.1-1.57,3.27-1.95,4.84-0.85c0.01,0.01,0.02,0.02,0.03,0.02l19.25,42.96
	c1.53,1.13,3.69,0.82,4.82-0.71c0.31-0.41,0.52-0.89,0.62-1.4l62.37-183.55c1.19-5.28-4.42-9.49-9.16-6.85L4.35,111.32z"/>
</svg>
