<?xml version="1.0" encoding="utf-8"?>
<!-- Generator: Adobe Illustrator 26.0.1, SVG Export Plug-In . SVG Version: 6.00 Build 0)  -->
<svg version="1.1" id="Layer_1" xmlns="http://www.w3.org/2000/svg" xmlns:xlink="http://www.w3.org/1999/xlink" x="0px" y="0px"
	 viewBox="0 0 200 200" style="enable-background:new 0 0 200 200;" xml:space="preserve">
<style type="text/css">
	.st0{fill-rule:evenodd;clip-rule:evenodd;}
	.st1{enable-background:new    ;}
	.st2{opacity:0.65;}
	.st3{opacity:0.64;}
	.st4{opacity:0.5;}
	.st5{opacity:0.8;}
	.st6{fill-rule:evenodd;clip-rule:evenodd;enable-background:new    ;}
</style>
<g>
	<polygon points="65.69,107.14 100,132.09 134.32,107.14 121.21,66.77 78.79,66.77 	"/>
	<path d="M162.41,118.53l-21.32-4.4l-36.27,26.38v26.88l0.19,0.13C129.93,159.32,150.51,141.54,162.41,118.53z"/>
	<path d="M58.51,11.65c-0.15,0.07-0.3,0.14-0.44,0.21c-1.24,0.59-2.47,1.22-3.68,1.86c-0.21,0.11-0.43,0.22-0.64,0.34
		c-1.42,0.77-2.82,1.57-4.2,2.41c-0.01,0-0.01,0.01-0.02,0.01c-2.89,1.76-5.7,3.67-8.4,5.73c-0.03,0.02-0.06,0.05-0.09,0.07
		c-1.29,0.98-2.55,2-3.8,3.04c-0.1,0.08-0.19,0.16-0.29,0.24c-1.15,0.98-2.28,1.98-3.38,3.01c-0.17,0.16-0.35,0.32-0.52,0.48
		c-1,0.94-1.97,1.91-2.92,2.89c-0.29,0.3-0.59,0.6-0.88,0.91c-0.8,0.84-1.58,1.7-2.35,2.57c-0.23,0.27-0.47,0.53-0.7,0.8l27.19-2.38
		L58.51,11.65z"/>
	<path d="M92.28,170.79l2.91-2.22v-28.06l-36.27-26.38l-27.13,5.6l-11.81,36.04c0.38,0.54,0.77,1.06,1.15,1.59
		c15.29,9.58,33.36,15.13,52.73,15.13C80.15,172.49,86.31,171.9,92.28,170.79z"/>
	<path d="M148.92,15.56c-0.17-0.1-0.34-0.2-0.51-0.3c-0.4-0.23-0.8-0.45-1.2-0.67l4.06,20.96l15.78,1.95
		c-1.85-4.88-4.06-9.58-6.62-14.06C156.8,20.55,152.95,17.91,148.92,15.56z"/>
	<path d="M122.74,57.14L142,38.28l-5.59-28.85c-4.19-1.69-8.52-3.1-12.97-4.2c-0.08-0.02-0.16-0.04-0.23-0.06
		c-1.37-0.34-2.76-0.64-4.15-0.92c-0.2-0.04-0.4-0.08-0.6-0.12c-1.29-0.25-2.6-0.47-3.91-0.67c-0.31-0.05-0.62-0.09-0.92-0.13
		c-1.23-0.17-2.47-0.33-3.71-0.45c-0.38-0.04-0.77-0.07-1.15-0.1c-1.08-0.1-2.16-0.18-3.25-0.24c-0.54-0.03-1.08-0.05-1.62-0.07
		c-0.99-0.04-1.97-0.06-2.97-0.07c-0.31,0-0.61-0.01-0.92-0.01c-0.47,0-0.94,0.01-1.41,0.02c-0.53,0.01-1.06,0.02-1.58,0.03
		c-0.59,0.02-1.19,0.04-1.78,0.07c-0.83,0.04-1.67,0.09-2.5,0.15c-0.56,0.04-1.12,0.09-1.68,0.14C90.38,2.85,89.7,2.92,89.02,3
		c-0.42,0.05-0.84,0.09-1.26,0.14c-1.03,0.13-2.05,0.28-3.07,0.44c-0.3,0.05-0.6,0.1-0.9,0.15c-2.35,0.4-4.67,0.87-6.96,1.43
		c-0.05,0.01-0.1,0.03-0.16,0.04c-2.46,0.61-4.89,1.31-7.27,2.1l-6.9,29.94l15.18,19.91H122.74z"/>
	<path d="M2.5,102.82c0.04,1.54,0.12,3.08,0.24,4.61c0,0.04,0.01,0.08,0.01,0.12c0.06,0.73,0.12,1.46,0.19,2.18
		c0.01,0.14,0.03,0.28,0.04,0.42c0.07,0.66,0.15,1.33,0.23,1.99c0.03,0.21,0.05,0.41,0.08,0.62c0.08,0.62,0.17,1.24,0.26,1.85
		c0.04,0.24,0.07,0.49,0.11,0.73c0.09,0.59,0.19,1.17,0.29,1.76c0.05,0.27,0.1,0.54,0.15,0.81c0.1,0.56,0.21,1.12,0.32,1.68
		c0.06,0.29,0.12,0.57,0.18,0.86c0,0.01,0,0.02,0.01,0.03c0.62,2.88,1.35,5.71,2.22,8.49c0.01,0.02,0.01,0.04,0.02,0.06
		c1.72,5.53,3.93,10.84,6.56,15.9l9.02-27.52L2.5,102.82z"/>
	<path d="M170.28,47.6l-21.35-2.63L130.2,63.31l13.48,41.53l22.81,4.71c4.51-11.38,6.99-23.78,6.99-36.77
		C173.5,64.07,172.37,55.64,170.28,47.6z"/>
	<g class="st3">
		<path d="M180.03,155.77l-11.81-36.04l-5.8-1.2c-11.89,23.01-32.48,40.79-57.41,48.99l32.57,22.58
			C154.77,182.89,169.48,170.88,180.03,155.77z"/>
		<path d="M177.57,117.4l9.02,27.52c3.99-7.68,6.99-15.95,8.84-24.65c0.05-0.23,0.1-0.46,0.15-0.68c0.11-0.57,0.22-1.13,0.33-1.7
			c0.05-0.26,0.1-0.53,0.15-0.79c0.1-0.59,0.2-1.18,0.29-1.77c0.04-0.24,0.08-0.48,0.11-0.71c0.09-0.62,0.18-1.24,0.26-1.86
			c0.03-0.2,0.05-0.4,0.08-0.6c0.08-0.66,0.16-1.33,0.23-2c0.01-0.14,0.03-0.27,0.04-0.41c0.07-0.73,0.14-1.46,0.2-2.2
			c0-0.03,0-0.06,0.01-0.09c0.12-1.53,0.19-3.07,0.24-4.62L177.57,117.4z"/>
		<path d="M65.39,191.28l26.89-20.49c-5.97,1.12-12.12,1.71-18.42,1.71c-19.37,0-37.44-5.55-52.73-15.13
			C32.21,172.57,47.54,184.48,65.39,191.28z"/>
		<path d="M76.66,194.8c0.02,0.01,0.04,0.01,0.06,0.02c0.94,0.23,1.89,0.45,2.84,0.65c0.01,0,0.01,0,0.02,0
			c2.83,0.6,5.68,1.08,8.55,1.43c0.12,0.01,0.25,0.03,0.37,0.04c0.79,0.09,1.58,0.18,2.38,0.25c0.2,0.02,0.41,0.04,0.61,0.05
			c0.73,0.06,1.46,0.12,2.19,0.16c0.22,0.01,0.43,0.03,0.65,0.04c0.76,0.04,1.52,0.08,2.29,0.1c0.17,0.01,0.34,0.01,0.51,0.02
			c1.9,0.06,3.8,0.06,5.7,0c0.06,0,0.13-0.01,0.19-0.01c0.88-0.03,1.75-0.07,2.63-0.12c0.14-0.01,0.28-0.02,0.43-0.03
			c0.82-0.05,1.63-0.11,2.45-0.18c0.13-0.01,0.26-0.02,0.39-0.04c0.86-0.08,1.73-0.17,2.59-0.27c0.06-0.01,0.13-0.01,0.19-0.02
			c3.85-0.46,7.68-1.15,11.44-2.07c0.11-0.03,0.22-0.05,0.33-0.08c0.96-0.24,1.92-0.49,2.88-0.76l-25.47-17.66L76.66,194.8z"/>
		<path d="M160.44,23.43c2.56,4.48,4.77,9.18,6.62,14.06l8.7,1.07C171.22,32.98,166.08,27.9,160.44,23.43z"/>
		<path d="M197.14,91.16c-0.01-0.14-0.02-0.28-0.04-0.42c-0.06-0.66-0.13-1.32-0.21-1.97c-0.03-0.22-0.05-0.44-0.08-0.67
			c-0.11-0.87-0.22-1.74-0.35-2.61c0,0,0-0.01,0-0.01c-1.96-13.12-6.54-25.4-13.19-36.28l-13-1.6c2.09,8.04,3.22,16.48,3.22,25.18
			c0,12.99-2.48,25.39-6.99,36.77l4.29,0.89L197.14,91.16z"/>
	</g>
	<path d="M56.32,104.83l13.62-41.97L55.06,43.35L18.4,46.56C11.46,57.14,6.52,69.15,4.11,82.04c0,0.02-0.01,0.05-0.01,0.07
		c-0.36,1.93-0.66,3.88-0.9,5.85c-0.02,0.19-0.04,0.39-0.07,0.58c-0.09,0.73-0.16,1.46-0.23,2.19c-0.01,0.15-0.03,0.29-0.04,0.44
		l26.34,19.27L56.32,104.83z"/>
</g>
</svg>
