<?xml version="1.0" encoding="utf-8"?>
<!-- Generator: Adobe Illustrator 26.0.1, SVG Export Plug-In . SVG Version: 6.00 Build 0)  -->
<svg version="1.1" id="Layer_1" xmlns="http://www.w3.org/2000/svg" xmlns:xlink="http://www.w3.org/1999/xlink" x="0px" y="0px"
	 viewBox="0 0 200 200" style="enable-background:new 0 0 200 200;" xml:space="preserve">
<style type="text/css">
	.st0{fill-rule:evenodd;clip-rule:evenodd;}
	.st1{enable-background:new    ;}
	.st2{opacity:0.65;}
	.st3{opacity:0.64;}
	.st4{opacity:0.5;}
	.st5{opacity:0.8;}
	.st6{fill-rule:evenodd;clip-rule:evenodd;enable-background:new    ;}
</style>
<path id="Icon_awesome-star_00000059267573649930251040000013967193322967928498_" class="st1" d="M89.59,13.21L65.78,61.48
	l-53.37,7.7C6.04,70.15,1.66,76.1,2.63,82.47c0.38,2.51,1.57,4.83,3.4,6.6l38.53,37.54l-9.16,53.04
	c-1.09,6.34,3.18,12.37,9.52,13.46c2.53,0.43,5.12,0.02,7.39-1.17l47.73-25.04l47.64,25.04c5.71,2.99,12.76,0.78,15.75-4.93
	c1.18-2.26,1.59-4.84,1.17-7.35l-9.16-53.04l38.52-37.54c4.62-4.49,4.72-11.88,0.23-16.5c-1.79-1.84-4.14-3.04-6.68-3.41
	l-53.25-7.77l-23.75-48.19c-2.87-5.78-9.88-8.14-15.65-5.27C92.57,9.07,90.72,10.92,89.59,13.21z"/>
</svg>
