<?xml version="1.0" encoding="utf-8"?>
<!-- Generator: Adobe Illustrator 26.0.1, SVG Export Plug-In . SVG Version: 6.00 Build 0)  -->
<svg version="1.1" id="Layer_1" xmlns="http://www.w3.org/2000/svg" xmlns:xlink="http://www.w3.org/1999/xlink" x="0px" y="0px"
	 viewBox="0 0 200 200" style="enable-background:new 0 0 200 200;" xml:space="preserve">
<style type="text/css">
	.st0{fill-rule:evenodd;clip-rule:evenodd;}
	.st1{enable-background:new    ;}
	.st2{opacity:0.65;}
	.st3{opacity:0.64;}
	.st4{opacity:0.5;}
	.st5{opacity:0.8;}
	.st6{fill-rule:evenodd;clip-rule:evenodd;enable-background:new    ;}
</style>
<path d="M159.94,112.57l30.22-30.35c2.22-2.22,3.54-4.94,3.97-7.69l0.15-2.59l3.14-57.75c0.37-6.86-4.88-12.08-11.74-11.67
	l-56.25,3.31l-6.28,0.37c-2.09,0.66-4.11,1.85-5.82,3.57l-97.68,98.07L6.69,120.87c-5.1,5.13-5.53,12.98-0.96,17.54l56.25,55.95
	c4.57,4.56,12.44,4.1,17.54-1.04L159.94,112.57z M185.09,14.89c2.85,2.85,2.85,7.47,0,10.33c-2.86,2.86-7.48,2.86-10.34,0.01
	c-2.86-2.86-2.86-7.48,0-10.34C177.6,12.03,182.23,12.03,185.09,14.89z M59.92,137.29c-5.67-5.67-5.67-14.85-0.01-20.51
	c5.67-5.67,14.85-5.67,20.51,0c5.66,5.67,5.65,14.85-0.01,20.51C74.76,142.95,65.58,142.95,59.92,137.29z M98.08,116.89l-0.89,0.89
	c-1.97,1.97-5.14,1.97-7.11,0l-10.71-10.71c-1.97-1.97-1.97-5.14,0-7.11l1.46-1.46c9.15-9.15,19.75-5.9,27.91-3.58
	c7.02,1.97,11.48,3.01,14.82-0.33c4.43-4.43,1.72-12.98-2.84-17.54c-5.18-4.99-12.62-6.88-19.55-4.94c-2.7,0.3-5.16-1.61-5.53-4.31
	l-1.56-11.22c-0.36-2.67,1.45-5.16,4.11-5.64c14.2-3.29,29.07,1.3,38.95,12.01c12.56,12.56,16.14,35.76,3.22,48.7
	C123.23,128.83,104.41,110.57,98.08,116.89z"/>
</svg>
