<?xml version="1.0" encoding="utf-8"?>
<!-- Generator: Adobe Illustrator 26.0.1, SVG Export Plug-In . SVG Version: 6.00 Build 0)  -->
<svg version="1.1" id="Layer_1" xmlns="http://www.w3.org/2000/svg" xmlns:xlink="http://www.w3.org/1999/xlink" x="0px" y="0px"
	 viewBox="0 0 200 200" style="enable-background:new 0 0 200 200;" xml:space="preserve">
<style type="text/css">
	.st0{fill-rule:evenodd;clip-rule:evenodd;}
	.st1{enable-background:new    ;}
	.st2{opacity:0.65;}
	.st3{opacity:0.64;}
	.st4{opacity:0.5;}
	.st5{opacity:0.8;}
	.st6{fill-rule:evenodd;clip-rule:evenodd;enable-background:new    ;}
</style>
<g>
	<path class="st0" d="M34.87,96.85c0.29,0.49,0.5,1.05,0.59,1.64c1.86,11.48,7.16,21.86,15.32,30.03c21.42,21.43,56.28,21.44,77.7,0
		c21.42-21.44,21.42-56.33,0-77.77c-8.16-8.17-18.54-13.47-30.01-15.33c-0.6-0.1-1.17-0.31-1.68-0.61
		C80.67,27.97,74.66,15.63,73.15,6.17c-15.42,4.4-29.97,12.66-42.12,24.82C18.87,43.15,10.62,57.75,6.22,73.21
		c2.28,0.35,4.75,0.94,7.22,1.87C20.12,77.6,29.21,83.42,34.87,96.85z"/>
	<path d="M170.56,73.14c0-20.03-5.99-38.64-16.25-54.19C132.88,4.53,107.01-0.46,82.49,3.99c0.76,6.03,4.22,16.3,18.3,22.15
		c13.14,2.3,25.03,8.46,34.43,17.87c25.14,25.16,25.14,66.09,0,91.24c-12.57,12.57-29.08,18.86-45.58,18.86
		c-16.51,0-33.02-6.29-45.58-18.86c-9.4-9.4-15.56-21.31-17.86-34.47C20.36,86.7,10.1,83.25,4.07,82.48
		c-4.66,25.68,1.05,52.85,17.05,74.85c14.88,9.06,32.34,14.29,51.04,14.29C126.51,171.62,170.56,127.53,170.56,73.14z"/>
	<path class="st3" d="M168.94,169c38.08-38.11,38.08-99.9,0-138.01c-4.56-4.56-9.47-8.56-14.62-12.03
		c10.26,15.55,16.25,34.16,16.25,54.19c0,54.39-44.06,98.48-98.4,98.48c-18.69,0-36.15-5.23-51.04-14.29
		c2.96,4.07,6.24,7.99,9.91,11.67C69.12,207.11,130.86,207.11,168.94,169z"/>
</g>
</svg>
