<?xml version="1.0" encoding="utf-8"?>
<!-- Generator: Adobe Illustrator 26.0.1, SVG Export Plug-In . SVG Version: 6.00 Build 0)  -->
<svg version="1.1" id="Layer_1" xmlns="http://www.w3.org/2000/svg" xmlns:xlink="http://www.w3.org/1999/xlink" x="0px" y="0px"
	 viewBox="0 0 200 200" style="enable-background:new 0 0 200 200;" xml:space="preserve">
<style type="text/css">
	.st0{fill-rule:evenodd;clip-rule:evenodd;}
	.st1{enable-background:new    ;}
	.st2{opacity:0.65;}
	.st3{opacity:0.64;}
	.st4{opacity:0.5;}
	.st5{opacity:0.8;}
	.st6{fill-rule:evenodd;clip-rule:evenodd;enable-background:new    ;}
</style>
<g>
	<path class="st0" d="M34.87,96.85c0.29,0.49,0.5,1.05,0.59,1.64c1.86,11.48,7.16,21.86,15.32,30.03c21.42,21.43,56.28,21.44,77.7,0
		c21.42-21.44,21.42-56.33,0-77.77c-8.16-8.17-18.54-13.47-30.01-15.33c-0.6-0.1-1.17-0.31-1.68-0.61
		C80.67,27.97,74.66,15.63,73.15,6.17c-15.42,4.4-29.97,12.66-42.12,24.82C18.87,43.15,10.62,57.75,6.22,73.21
		c2.28,0.35,4.75,0.94,7.22,1.87C20.12,77.6,29.21,83.42,34.87,96.85z"/>
	<path d="M168.94,168.99c-38.08,38.12-99.82,38.12-137.9,0c-3.68-3.67-6.95-7.59-9.92-11.66c-16-22.01-21.71-49.17-17.05-74.85
		c6.03,0.76,16.29,4.22,22.13,18.3c2.29,13.17,8.46,25.07,17.86,34.47c12.57,12.58,29.07,18.87,45.58,18.86
		c16.5,0,33.02-6.28,45.58-18.86c25.14-25.15,25.14-66.08,0-91.24c-9.4-9.41-21.29-15.58-34.43-17.87
		c-14.08-5.85-17.53-16.12-18.3-22.15c24.52-4.45,50.39,0.54,71.83,14.96c5.15,3.47,10.06,7.47,14.62,12.03
		C207.02,69.09,207.02,130.88,168.94,168.99z"/>
</g>
</svg>
