<?xml version="1.0" encoding="utf-8"?>
<!-- Generator: Adobe Illustrator 26.0.1, SVG Export Plug-In . SVG Version: 6.00 Build 0)  -->
<svg version="1.1" id="Layer_1" xmlns="http://www.w3.org/2000/svg" xmlns:xlink="http://www.w3.org/1999/xlink" x="0px" y="0px"
	 viewBox="0 0 200 200" style="enable-background:new 0 0 200 200;" xml:space="preserve">
<style type="text/css">
	.st0{fill-rule:evenodd;clip-rule:evenodd;}
	.st1{enable-background:new    ;}
	.st2{opacity:0.65;}
	.st3{opacity:0.64;}
	.st4{opacity:0.5;}
	.st5{opacity:0.8;}
	.st6{fill-rule:evenodd;clip-rule:evenodd;enable-background:new    ;}
</style>
<path id="Icon_awesome-times-circle_00000183249520896720099790000002403831585960631457_" class="st1" d="M100,2.5
	C46.14,2.5,2.5,46.13,2.5,100s43.64,97.5,97.5,97.5s97.5-43.64,97.5-97.5S153.86,2.5,100,2.5z M147.81,125.6
	c1.72,1.66,1.85,4.51,0.31,6.35c-0.1,0.12-0.2,0.22-0.31,0.33l-15.57,15.48c-1.9,1.85-4.79,1.85-6.68,0L100,121.97L74.4,147.76
	c-1.9,1.85-4.79,1.85-6.68,0l-15.53-15.53c-1.72-1.66-1.85-4.51-0.31-6.35c0.1-0.12,0.2-0.22,0.31-0.33L77.99,100L52.19,74.36
	c-1.72-1.66-1.85-4.51-0.31-6.35c0.1-0.12,0.2-0.22,0.31-0.33l15.57-15.54c1.9-1.85,4.79-1.85,6.68,0L100,77.98l25.59-25.79
	c1.9-1.85,4.79-1.85,6.68,0l15.56,15.59c1.72,1.66,1.85,4.51,0.31,6.35c-0.1,0.12-0.2,0.22-0.31,0.33L121.98,100L147.81,125.6z"/>
</svg>
