<?xml version="1.0" encoding="utf-8"?>
<!-- Generator: Adobe Illustrator 26.0.1, SVG Export Plug-In . SVG Version: 6.00 Build 0)  -->
<svg version="1.1" id="Layer_1" xmlns="http://www.w3.org/2000/svg" xmlns:xlink="http://www.w3.org/1999/xlink" x="0px" y="0px"
	 viewBox="0 0 200 200" style="enable-background:new 0 0 200 200;" xml:space="preserve">
<style type="text/css">
	.st0{fill-rule:evenodd;clip-rule:evenodd;}
	.st1{enable-background:new    ;}
	.st2{opacity:0.65;}
	.st3{opacity:0.64;}
	.st4{opacity:0.5;}
	.st5{opacity:0.8;}
	.st6{fill-rule:evenodd;clip-rule:evenodd;enable-background:new    ;}
</style>
<path class="st1" d="M194.69,150.82c3.4,3.3,3.67,8.93,0.61,12.59c-0.19,0.23-0.39,0.45-0.61,0.65l-30.85,30.67
	c-3.76,3.66-9.49,3.66-13.25,0l-50.64-51.11l-50.71,51.11c-3.76,3.66-9.49,3.66-13.25,0L5.24,163.96c-3.4-3.3-3.67-8.93-0.61-12.59
	c0.19-0.23,0.39-0.45,0.61-0.65l51.11-50.64L5.24,49.3c-3.4-3.3-3.67-8.93-0.61-12.59c0.19-0.23,0.39-0.45,0.61-0.65L36.09,5.27
	c3.76-3.66,9.49-3.66,13.25,0l50.64,51.18l50.71-51.11c3.76-3.66,9.49-3.66,13.25,0l30.83,30.89c3.4,3.3,3.67,8.93,0.61,12.59
	c-0.19,0.23-0.39,0.45-0.61,0.65l-51.25,50.6L194.69,150.82z"/>
</svg>
