<?xml version="1.0" encoding="utf-8"?>
<!-- Generator: Adobe Illustrator 26.0.1, SVG Export Plug-In . SVG Version: 6.00 Build 0)  -->
<svg version="1.1" id="Layer_1" xmlns="http://www.w3.org/2000/svg" xmlns:xlink="http://www.w3.org/1999/xlink" x="0px" y="0px"
	 viewBox="0 0 200 200" style="enable-background:new 0 0 200 200;" xml:space="preserve">
<style type="text/css">
	.st0{fill-rule:evenodd;clip-rule:evenodd;}
	.st1{enable-background:new    ;}
	.st2{opacity:0.65;}
	.st3{opacity:0.64;}
	.st4{opacity:0.5;}
	.st5{opacity:0.8;}
	.st6{fill-rule:evenodd;clip-rule:evenodd;enable-background:new    ;}
</style>
<g id="Group_485_00000017477888463679643800000000968076630705606842_" transform="translate(-60 -32)">
	<g id="Icon_awesome-user-alt_00000049200788699864231970000003991571944659163069_">
		<path d="M160,144.19c30.29,0,54.84-24.55,54.84-54.84S190.29,34.5,160,34.5s-54.84,24.55-54.84,54.84
			C105.16,119.63,129.71,144.18,160,144.19z M208.75,156.38h-20.98c-17.63,8.14-37.94,8.14-55.57,0h-20.94
			c-26.92,0-48.75,21.83-48.75,48.75v6.09c0,10.1,8.18,18.28,18.28,18.28l0,0h158.44c10.1,0,18.28-8.18,18.28-18.28l0,0v-6.09
			C257.5,178.2,235.67,156.38,208.75,156.38z"/>
	</g>
</g>
</svg>
