<?xml version="1.0" encoding="utf-8"?>
<!-- Generator: Adobe Illustrator 26.0.1, SVG Export Plug-In . SVG Version: 6.00 Build 0)  -->
<svg version="1.1" id="Layer_1" xmlns="http://www.w3.org/2000/svg" xmlns:xlink="http://www.w3.org/1999/xlink" x="0px" y="0px"
	 viewBox="0 0 200 200" style="enable-background:new 0 0 200 200;" xml:space="preserve">
<style type="text/css">
	.st0{fill-rule:evenodd;clip-rule:evenodd;}
	.st1{enable-background:new    ;}
	.st2{opacity:0.65;}
	.st3{opacity:0.64;}
	.st4{opacity:0.5;}
	.st5{opacity:0.8;}
	.st6{fill-rule:evenodd;clip-rule:evenodd;enable-background:new    ;}
</style>
<g id="Group_485_00000098915160005097623340000016696011302502679943_" transform="translate(-60 -32)">
	<g id="Ellipse_61_00000161617102672715459580000014484687932458868353_" transform="translate(60 32)">
		<g>
			<path d="M100,197.5c-53.76,0-97.5-43.74-97.5-97.5S46.24,2.5,100,2.5s97.5,43.74,97.5,97.5S153.76,197.5,100,197.5z M100,13.33
				c-47.79,0-86.67,38.88-86.67,86.67s38.88,86.67,86.67,86.67s86.67-38.88,86.67-86.67S147.79,13.33,100,13.33z"/>
		</g>
	</g>
	<g id="Icon_awesome-user-alt_00000085948939273941985030000000249256211920620174_">
		<path d="M160,133.35c16.83,0,30.47-13.64,30.47-30.47S176.83,72.42,160,72.42s-30.47,13.64-30.47,30.47
			C129.53,119.71,143.17,133.35,160,133.35z M187.08,140.12h-11.66c-9.8,4.52-21.08,4.52-30.88,0h-11.63
			c-14.96,0-27.08,12.13-27.08,27.08v3.39c0,5.61,4.55,10.16,10.16,10.16l0,0h88.02c5.61,0,10.16-4.55,10.16-10.16l0,0v-3.39
			C214.17,152.25,202.04,140.12,187.08,140.12z"/>
	</g>
</g>
</svg>
